<svg xmlns="http://www.w3.org/2000/svg" width="16" height="16" fill="none" viewBox="0 0 16 16"><path fill="#CCC" d="M0 4.33333H5.33333V2H0.666667C0.3 2 0 2.3 0 2.66667V4.33333Z"/><path fill="#999" d="M10.6663 2H5.33301V4.33333H10.6663V2Z"/><path fill="#666" d="M16.0003 4.33333H10.667V2H15.3337C15.7003 2 16.0003 2.3 16.0003 2.66667V4.33333Z"/><path fill="url(#paint0_linear_1825_17865)" d="M15.3333 14H0.666667C0.3 14 0 13.7 0 13.3333V4H16V13.3333C16 13.7 15.7 14 15.3333 14Z"/><g filter="url(#filter0_dd_1825_17865)"><path fill="url(#paint1_linear_1825_17865)" d="M5.06614 8.1L2.13281 11.0333C1.96615 11.2 1.96615 11.4333 2.13281 11.5667L2.73281 12.1667C2.89948 12.3333 3.13281 12.3333 3.26615 12.1667L6.19948 9.23333C6.36615 9.06666 6.36615 8.83333 6.19948 8.7L5.59948 8.1C5.46615 7.96667 5.19948 7.96667 5.06614 8.1Z"/><mask id="mask0_1825_17865" style="mask-type:alpha" width="5" height="5" x="2" y="8" maskUnits="userSpaceOnUse"><path fill="url(#paint2_linear_1825_17865)" d="M5.06614 8.1L2.13281 11.0333C1.96615 11.2 1.96615 11.4333 2.13281 11.5667L2.73281 12.1667C2.89948 12.3333 3.13281 12.3333 3.26615 12.1667L6.19948 9.23333C6.36615 9.06666 6.36615 8.83333 6.19948 8.7L5.59948 8.1C5.46615 7.96667 5.19948 7.96667 5.06614 8.1Z"/></mask><g mask="url(#mask0_1825_17865)"><g filter="url(#filter1_dd_1825_17865)"><path fill="url(#paint3_linear_1825_17865)" d="M3.26517 5.76602L6.1985 8.69935C6.36517 8.86602 6.36517 9.09935 6.1985 9.23268L5.5985 9.83268C5.43184 9.99935 5.1985 9.99935 5.06517 9.83268L2.13184 6.89935C1.96517 6.73268 1.96517 6.49935 2.13184 6.36602L2.73183 5.76602C2.86517 5.63268 3.13184 5.63268 3.26517 5.76602Z"/></g></g><path fill="url(#paint4_linear_1825_17865)" d="M3.26712 5.76602L6.20045 8.69935C6.36712 8.86602 6.36712 9.09935 6.20045 9.23268L5.60046 9.83268C5.43379 9.99935 5.20045 9.99935 5.06712 9.83268L2.13379 6.89935C1.96712 6.73268 1.96712 6.49935 2.13379 6.36602L2.73379 5.76602C2.86712 5.63268 3.13379 5.63268 3.26712 5.76602Z"/></g><g filter="url(#filter2_dd_1825_17865)"><path fill="url(#paint5_linear_1825_17865)" d="M13.3337 10.666H8.00033C7.80033 10.666 7.66699 10.7993 7.66699 10.9993V11.9993C7.66699 12.1993 7.80033 12.3327 8.00033 12.3327H13.3337C13.5337 12.3327 13.667 12.1993 13.667 11.9993V10.9993C13.667 10.7993 13.5337 10.666 13.3337 10.666Z"/></g><defs><filter id="filter0_dd_1825_17865" width="6.984" height="9.292" x=".674" y="4.666" color-interpolation-filters="sRGB" filterUnits="userSpaceOnUse"><feFlood flood-opacity="0" result="BackgroundImageFix"/><feColorMatrix in="SourceAlpha" result="hardAlpha" type="matrix" values="0 0 0 0 0 0 0 0 0 0 0 0 0 0 0 0 0 0 127 0"/><feOffset dy=".333"/><feGaussianBlur stdDeviation=".667"/><feColorMatrix type="matrix" values="0 0 0 0 0 0 0 0 0 0 0 0 0 0 0 0 0 0 0.25 0"/><feBlend in2="BackgroundImageFix" mode="normal" result="effect1_dropShadow_1825_17865"/><feColorMatrix in="SourceAlpha" result="hardAlpha" type="matrix" values="0 0 0 0 0 0 0 0 0 0 0 0 0 0 0 0 0 0 127 0"/><feOffset dy=".333"/><feGaussianBlur stdDeviation=".667"/><feColorMatrix type="matrix" values="0 0 0 0 0 0 0 0 0 0 0 0 0 0 0 0 0 0 0.25 0"/><feBlend in2="effect1_dropShadow_1825_17865" mode="normal" result="effect2_dropShadow_1825_17865"/><feBlend in="SourceGraphic" in2="effect2_dropShadow_1825_17865" mode="normal" result="shape"/></filter><filter id="filter1_dd_1825_17865" width="6.983" height="6.958" x=".674" y="4.666" color-interpolation-filters="sRGB" filterUnits="userSpaceOnUse"><feFlood flood-opacity="0" result="BackgroundImageFix"/><feColorMatrix in="SourceAlpha" result="hardAlpha" type="matrix" values="0 0 0 0 0 0 0 0 0 0 0 0 0 0 0 0 0 0 127 0"/><feOffset dy=".333"/><feGaussianBlur stdDeviation=".667"/><feColorMatrix type="matrix" values="0 0 0 0 0 0 0 0 0 0 0 0 0 0 0 0 0 0 0.25 0"/><feBlend in2="BackgroundImageFix" mode="normal" result="effect1_dropShadow_1825_17865"/><feColorMatrix in="SourceAlpha" result="hardAlpha" type="matrix" values="0 0 0 0 0 0 0 0 0 0 0 0 0 0 0 0 0 0 127 0"/><feOffset dy=".333"/><feGaussianBlur stdDeviation=".667"/><feColorMatrix type="matrix" values="0 0 0 0 0 0 0 0 0 0 0 0 0 0 0 0 0 0 0.25 0"/><feBlend in2="effect1_dropShadow_1825_17865" mode="normal" result="effect2_dropShadow_1825_17865"/><feBlend in="SourceGraphic" in2="effect2_dropShadow_1825_17865" mode="normal" result="shape"/></filter><filter id="filter2_dd_1825_17865" width="8.667" height="4.333" x="6.334" y="9.666" color-interpolation-filters="sRGB" filterUnits="userSpaceOnUse"><feFlood flood-opacity="0" result="BackgroundImageFix"/><feColorMatrix in="SourceAlpha" result="hardAlpha" type="matrix" values="0 0 0 0 0 0 0 0 0 0 0 0 0 0 0 0 0 0 127 0"/><feOffset dy=".333"/><feGaussianBlur stdDeviation=".667"/><feColorMatrix type="matrix" values="0 0 0 0 0 0 0 0 0 0 0 0 0 0 0 0 0 0 0.25 0"/><feBlend in2="BackgroundImageFix" mode="normal" result="effect1_dropShadow_1825_17865"/><feColorMatrix in="SourceAlpha" result="hardAlpha" type="matrix" values="0 0 0 0 0 0 0 0 0 0 0 0 0 0 0 0 0 0 127 0"/><feOffset dy=".333"/><feGaussianBlur stdDeviation=".667"/><feColorMatrix type="matrix" values="0 0 0 0 0 0 0 0 0 0 0 0 0 0 0 0 0 0 0.25 0"/><feBlend in2="effect1_dropShadow_1825_17865" mode="normal" result="effect2_dropShadow_1825_17865"/><feBlend in="SourceGraphic" in2="effect2_dropShadow_1825_17865" mode="normal" result="shape"/></filter><linearGradient id="paint0_linear_1825_17865" x1="12.149" x2="3.941" y1="15.942" y2="1.725" gradientUnits="userSpaceOnUse"><stop stop-color="#333"/><stop offset="1" stop-color="#4D4D4D"/></linearGradient><linearGradient id="paint1_linear_1825_17865" x1="4.842" x2="3.494" y1="11.332" y2="8.997" gradientUnits="userSpaceOnUse"><stop stop-color="#999"/><stop offset="1" stop-color="#B3B3B3"/></linearGradient><linearGradient id="paint2_linear_1825_17865" x1="4.842" x2="3.494" y1="11.332" y2="8.997" gradientUnits="userSpaceOnUse"><stop stop-color="#999"/><stop offset="1" stop-color="#B3B3B3"/></linearGradient><linearGradient id="paint3_linear_1825_17865" x1="5.423" x2="2.911" y1="10.011" y2="5.659" gradientUnits="userSpaceOnUse"><stop stop-color="#CCC"/><stop offset="1" stop-color="#E6E6E6"/></linearGradient><linearGradient id="paint4_linear_1825_17865" x1="5.425" x2="2.913" y1="10.011" y2="5.659" gradientUnits="userSpaceOnUse"><stop stop-color="#CCC"/><stop offset="1" stop-color="#E6E6E6"/></linearGradient><linearGradient id="paint5_linear_1825_17865" x1="11.717" x2="9.617" y1="13.318" y2="9.681" gradientUnits="userSpaceOnUse"><stop stop-color="#CCC"/><stop offset="1" stop-color="#E6E6E6"/></linearGradient></defs></svg>