<svg width="16" height="16" viewBox="0 0 16 16" fill="none" xmlns="http://www.w3.org/2000/svg">
<g clip-path="url(#clip0_1909_18132)">
<path fill-rule="evenodd" clip-rule="evenodd" d="M7.69797 0.156184C7.77288 0.031333 7.89773 -0.0186073 8.02258 0.031333C8.34719 0.156184 8.64683 0.281034 8.97144 0.505765C9.27109 0.680556 9.57073 0.880318 9.82043 1.10505C9.92031 1.20493 9.94527 1.35475 9.87036 1.45463C9.52078 2.05391 9.49581 2.80302 9.87036 3.45224C10.2449 4.10146 10.9191 4.45104 11.6183 4.45104C11.7681 4.45104 11.868 4.55092 11.893 4.67577C12.0178 5.34997 12.0428 6.04913 11.9179 6.72332C11.9179 6.84817 11.7931 6.94806 11.6682 6.94806C10.9691 6.94806 10.2949 7.29764 9.92031 7.94686C9.54575 8.57111 9.5957 9.34519 9.94528 9.94447C10.0202 10.0443 9.99522 10.1942 9.89534 10.2691C9.37097 10.7185 8.77168 11.0681 8.12245 11.2929C7.9976 11.3178 7.87276 11.2679 7.79785 11.168C7.44826 10.5437 6.79904 10.1442 6.04994 10.1442C5.30083 10.1442 4.65161 10.5438 4.30203 11.143C4.22712 11.2679 4.10227 11.3178 3.97742 11.2679C3.65281 11.143 3.3282 10.9932 3.02856 10.8184C2.72892 10.6436 2.42927 10.4439 2.17957 10.2191C2.07969 10.1193 2.05472 9.96944 2.12963 9.86956C2.47922 9.27028 2.50419 8.52117 2.12963 7.87195C1.75508 7.22273 1.08089 6.87314 0.381727 6.87314C0.231906 6.87314 0.132024 6.77326 0.107054 6.64841C-0.0177965 5.97422 -0.0427681 5.27506 0.0820824 4.60086C0.0820824 4.47601 0.206933 4.37613 0.331784 4.37613C1.03095 4.37613 1.70514 4.02655 2.07969 3.37733C2.45424 2.75308 2.4043 1.979 2.05472 1.37972C1.97981 1.25487 2.00478 1.10505 2.10466 1.03014C2.62904 0.580676 3.22832 0.231094 3.87754 0.00636323C4.00239 -0.0186069 4.12724 0.0313334 4.20215 0.131214C4.55173 0.755467 5.20096 1.15499 5.95006 1.15499C6.69916 1.15499 7.34838 0.755466 7.69797 0.156184ZM8.25 5.625C8.25 6.86764 7.24264 7.875 6 7.875C4.75736 7.875 3.75 6.86764 3.75 5.625C3.75 4.38236 4.75736 3.375 6 3.375C7.24264 3.375 8.25 4.38236 8.25 5.625Z" fill="url(#paint0_linear_1909_18132)"/>
<path fill-rule="evenodd" clip-rule="evenodd" d="M14.5724 14.505C14.6177 14.5866 14.6054 14.672 14.5376 14.7254C14.3641 14.8657 14.1986 14.9922 13.9695 15.1005C13.7763 15.2109 13.5691 15.3133 13.3641 15.38C13.2766 15.4034 13.1853 15.3692 13.1539 15.2956C12.933 14.909 12.5247 14.6548 12.0438 14.6547C11.5629 14.6545 11.1523 14.917 10.928 15.3055C10.8799 15.3888 10.7924 15.4122 10.715 15.3861C10.3003 15.2391 9.90374 15.0287 9.56915 14.743C9.49977 14.703 9.48433 14.6015 9.52438 14.5322C9.7487 14.1436 9.77074 13.6568 9.53014 13.2404C9.30341 12.832 8.85723 12.6114 8.41206 12.6134C8.33252 12.623 8.25728 12.561 8.2477 12.4815C8.16617 12.0459 8.16418 11.6007 8.24759 11.1679C8.27377 11.0905 8.34158 11.0371 8.42111 11.0275C8.88016 11.0335 9.31047 10.801 9.5508 10.3847C9.79114 9.96841 9.77741 9.47946 9.55655 9.09293C9.51121 9.01125 9.52351 8.92585 9.59132 8.87249C9.76484 8.73216 9.95224 8.59985 10.1455 8.48942C10.3388 8.37899 10.5459 8.27656 10.7509 8.20991C10.8385 8.18645 10.9297 8.22064 10.9612 8.29431C11.1821 8.68084 11.5903 8.93505 12.0713 8.93521C12.5522 8.93536 12.9628 8.67287 13.1871 8.28435C13.2351 8.2011 13.3227 8.17764 13.4001 8.20382C13.8148 8.35074 14.2113 8.56118 14.5459 8.84686C14.6153 8.88691 14.6307 8.98834 14.5907 9.05772C14.3664 9.44624 14.3443 9.93304 14.5849 10.3495C14.8116 10.7579 15.2578 10.9785 15.703 10.9765C15.7964 10.9749 15.8716 11.0369 15.8812 11.1164C15.9628 11.552 15.9647 11.9972 15.8813 12.43C15.8552 12.5074 15.7873 12.5608 15.7078 12.5704C15.2488 12.5643 14.8185 12.7969 14.5781 13.2132C14.3378 13.6295 14.3515 14.1184 14.5724 14.505ZM11.3563 13.0572C10.6657 12.6585 10.4291 11.7755 10.8278 11.085C11.2265 10.3944 12.1095 10.1579 12.8 10.5565C13.4905 10.9552 13.7271 11.8382 13.3285 12.5287C12.9298 13.2192 12.0468 13.4558 11.3563 13.0572Z" fill="url(#paint1_linear_1909_18132)"/>
</g>
<defs>
<linearGradient id="paint0_linear_1909_18132" x1="8.9717" y1="10.8245" x2="2.97903" y2="0.444546" gradientUnits="userSpaceOnUse">
<stop stop-color="#626F7A"/>
<stop offset="1" stop-color="#8B9299"/>
</linearGradient>
<linearGradient id="paint1_linear_1909_18132" x1="8.23537" y1="11.79" x2="15.9261" y2="11.7902" gradientUnits="userSpaceOnUse">
<stop stop-color="#626F7A"/>
<stop offset="1" stop-color="#8B9299"/>
</linearGradient>
<clipPath id="clip0_1909_18132">
<rect width="16" height="16" fill="white"/>
</clipPath>
</defs>
</svg>
