<svg xmlns="http://www.w3.org/2000/svg" xmlns:xlink="http://www.w3.org/1999/xlink" width="322" height="44" viewBox="0 0 322 44">
  <defs>
    <clipPath id="clip-On-Disabled">
      <rect width="322" height="44"/>
    </clipPath>
  </defs>
  <g id="On-Disabled" clip-path="url(#clip-On-Disabled)">
    <rect width="322" height="44" fill="#f1f1f1"/>
    <g id="Background" fill="#1f1f1f">
      <path d="M 321.5 43.5 L 0.5 43.5 L 0.5 0.5 L 321.5 0.5 L 321.5 43.5 Z" stroke="none"/>
      <path d="M 1 1 L 1 43 L 321 43 L 321 1 L 1 1 M 0 0 L 322 0 L 322 44 L 0 44 L 0 0 Z" stroke="none" fill="#1f1f1f"/>
    </g>
    <rect id="Divider" width="1" height="24" transform="translate(161 10)" fill="#313131"/>
    <text id="Camera_label" data-name="Camera label" transform="translate(200 13)" fill="#585858" font-size="12" font-family="SegoeUI, Segoe UI"><tspan x="0" y="13">Camera not in use</tspan></text>
    <path id="Camera_disabled_icon" data-name="Camera disabled icon" d="M12.5,509.031a3.408,3.408,0,0,1,1.359.272,3.634,3.634,0,0,1,1.117.745,3.348,3.348,0,0,1,.75,1.1A3.555,3.555,0,0,1,16,512.508a3.35,3.35,0,0,1-.273,1.351,3.608,3.608,0,0,1-.75,1.11,3.371,3.371,0,0,1-1.109.745,3.617,3.617,0,0,1-1.367.272,3.407,3.407,0,0,1-1.359-.272,3.634,3.634,0,0,1-1.117-.745,3.347,3.347,0,0,1-.75-1.1A3.555,3.555,0,0,1,9,512.508a3.351,3.351,0,0,1,.273-1.351,3.608,3.608,0,0,1,.75-1.11,3.371,3.371,0,0,1,1.109-.745A3.616,3.616,0,0,1,12.5,509.031ZM10,512.508a2.393,2.393,0,0,0,.2.963,2.585,2.585,0,0,0,.531.792,2.423,2.423,0,0,0,.8.536,2.491,2.491,0,0,0,.977.194,2.591,2.591,0,0,0,.719-.1,2.241,2.241,0,0,0,.656-.31l-3.461-3.439a2.334,2.334,0,0,0-.3.652A2.76,2.76,0,0,0,10,512.508Zm4.586,1.366a2.333,2.333,0,0,0,.3-.652,2.759,2.759,0,0,0,.109-.714,2.393,2.393,0,0,0-.2-.963,2.428,2.428,0,0,0-.539-.784,2.725,2.725,0,0,0-.8-.536,2.353,2.353,0,0,0-.969-.2,2.593,2.593,0,0,0-.719.1,2.245,2.245,0,0,0-.656.311ZM16,504v5.326a4.453,4.453,0,0,0-1-.823v-2.9l-3,1.5v.714a4.157,4.157,0,0,0-.508.078,4.1,4.1,0,0,0-.492.14v-2.981H1v5.962H8a4.038,4.038,0,0,0-.219.994H0v-7.95H12v1.925Z" transform="translate(171 -486)" fill="#585858"/>
    <text id="Mic_label" data-name="Mic label" transform="translate(38 13)" fill="#fff" font-size="12" font-family="SegoeUI, Segoe UI"><tspan x="0" y="13">Microphone on</tspan></text>
    <path id="Mic_on_icon" data-name="Mic on icon" d="M259.518,12.092a1.476,1.476,0,0,1-.589-.118,1.5,1.5,0,0,1-.8-.8,1.486,1.486,0,0,1-.118-.59V1.511a1.486,1.486,0,0,1,.118-.59,1.5,1.5,0,0,1,.8-.8A1.476,1.476,0,0,1,259.518,0h4.02a1.476,1.476,0,0,1,.589.118,1.5,1.5,0,0,1,.8.8,1.487,1.487,0,0,1,.118.59V10.58a1.487,1.487,0,0,1-.118.59,1.5,1.5,0,0,1-.8.8,1.476,1.476,0,0,1-.589.118Zm-.5-1.511a.51.51,0,0,0,.5.5h4.02a.51.51,0,0,0,.5-.5V1.511a.485.485,0,0,0-.149-.354.482.482,0,0,0-.353-.15h-4.02a.482.482,0,0,0-.353.15.485.485,0,0,0-.149.354Zm8.04-2.519v2.85a3.106,3.106,0,0,1-.251,1.244,3.2,3.2,0,0,1-1.7,1.7,3.085,3.085,0,0,1-1.241.252H262.03v1.008h2.01v1.008h-5.025V15.115h2.01V14.107h-1.837a3.085,3.085,0,0,1-1.241-.252,3.2,3.2,0,0,1-1.7-1.7A3.107,3.107,0,0,1,256,10.911V8.061h1.005v2.85a2.128,2.128,0,0,0,.173.85,2.2,2.2,0,0,0,.463.693,2.281,2.281,0,0,0,.7.472,1.981,1.981,0,0,0,.848.173h4.68a2.113,2.113,0,0,0,.848-.173,2.195,2.195,0,0,0,.691-.464,2.288,2.288,0,0,0,.471-.7,2,2,0,0,0,.173-.85V8.061Z" transform="translate(-244.073 14)" fill="#fff"/>
  </g>
</svg>
