<?xml version="1.0" encoding="utf-8"?>
<svg version="1.2" baseProfile="tiny-ps" xmlns="http://www.w3.org/2000/svg" width="36px" height="36px" viewBox="0 0 36 36" preserveAspectRatio="xMidYMid meet">
 <g fill="#000000">
  <path d="M0 18 l0 -18 18 0 18 0 0 18 0 18 -18 0 -18 0 0 -18z m31 0 l0 -13 -13 0 -13 0 0 13 0 13 13 0 13 0 0 -13z"/>
 </g>
 <g fill="#4e5056">
  <path d="M2 18 l0 -16 16 0 16 0 0 16 0 16 -16 0 -16 0 0 -16z m23 -4 l0 -4 -7.4 0 c-7.7 0 -8.6 0.5 -8.6 5 0 2.4 1.3 2.8 9.3 2.9 l6.7 0.1 0 -4z"/>
 </g>
 <g fill="#686564">
  <path d="M3 18 l0 -15 4 0 c2.2 0 4 0.5 4 1 0 0.6 -1.3 1 -3 1 l-3 0 0 13 0 13 13 0 13 0 0 -13 0 -13 -5.5 0 c-3 0 -5.5 -0.4 -5.5 -1 0 -0.6 2.8 -1 6.5 -1 l6.5 0 0 15 0 15 -15 0 -15 0 0 -15z"/>
  <path d="M6.2 17.7 c-0.1 -10.3 0.1 -11.8 1.4 -11.3 0.9 0.3 2 0.6 2.5 0.6 0.5 0 0.9 2.7 0.9 6 l0 6.1 7.3 -0.3 7.2 -0.3 0 -4 c0 -3.6 -0.3 -4 -2.7 -4.3 -6 -0.7 -2.2 -4.2 4.5 -4.2 l2.8 0 -0.2 11.8 -0.3 11.7 -11.6 0 -11.7 0 -0.1 -11.8z m8.8 8.8 c0 -0.8 -0.4 -1.5 -1 -1.5 -0.5 0 -1 0.7 -1 1.5 0 0.8 0.5 1.5 1 1.5 0.6 0 1 -0.7 1 -1.5z m8 0 c0 -0.8 -0.4 -1.5 -1 -1.5 -0.5 0 -1 0.7 -1 1.5 0 0.8 0.5 1.5 1 1.5 0.6 0 1 -0.7 1 -1.5z m5.6 -11.5 l0 -6.5 -0.3 6.3 -0.4 6.3 -10.4 -0.3 c-5.7 -0.2 -10.1 0.1 -9.8 0.5 0.2 0.4 5 0.6 10.6 0.5 l10.2 -0.3 0.1 -6.5z"/>
 </g>
 <g fill="#dd5215">
  <path d="M8 14 l0 -7 4 0 4 0 0 7 0 7 -4 0 -4 0 0 -7z"/>
  <path d="M7.8 4.3 c1.8 -0.2 4.5 -0.2 6 0 1.5 0.2 0 0.4 -3.3 0.4 -3.3 0 -4.5 -0.2 -2.7 -0.4z"/>
 </g>
 <g fill="#5ac228">
  <path d="M15 17.2 c0 -3 0.5 -4.1 2.3 -5 l2.2 -1.1 -2.2 0 c-1.6 -0.1 -2.3 -0.7 -2.3 -2.1 0 -1.8 0.7 -2 5.5 -2 l5.5 0 0 7 0 7 -5.5 0 -5.5 0 0 -3.8z"/>
  <path d="M17.8 4.3 c1.8 -0.2 4.5 -0.2 6 0 1.5 0.2 0 0.4 -3.3 0.4 -3.3 0 -4.5 -0.2 -2.7 -0.4z"/>
 </g>
 <g fill="#2681b5">
  <path d="M23 18.6 c0 -3.7 1 -5.6 3.1 -5.6 1.5 0 1.9 0.7 1.9 4 0 3.6 -0.2 4 -2.5 4 -2 0 -2.5 -0.5 -2.5 -2.4z"/>
  <path d="M20 9.6 c0 -0.7 1 -1.6 2.3 -2 4.1 -1.1 5.7 -0.7 5.7 1.4 0 1.7 -0.7 2 -4 2 -2.7 0 -4 -0.4 -4 -1.4z"/>
  <path d="M22.8 4.3 c1.8 -0.2 4.5 -0.2 6 0 1.5 0.2 0 0.4 -3.3 0.4 -3.3 0 -4.5 -0.2 -2.7 -0.4z"/>
 </g>
 <g fill="#61d951">
  <path d="M15 12.9 c0 -5.9 0.1 -6.1 2.3 -5.5 1.2 0.3 3.7 0.6 5.5 0.6 l3.3 0 -0.3 4.7 c-0.3 4.5 -2.8 7.6 -2.8 3.4 0 -1.8 -0.3 -1.9 -2.5 -0.9 -1.4 0.6 -2.5 1.7 -2.5 2.5 0 0.7 -0.7 1.3 -1.5 1.3 -1.2 0 -1.5 -1.3 -1.5 -6.1z"/>
 </g>
 <g fill="#1497e3">
  <path d="M23 14.1 c0 -5 0.3 -5.9 1.9 -6.4 2.6 -0.6 3.1 0 3.1 3.9 0 4.4 -0.9 6.4 -2.9 6.5 -1.2 0 -1.2 0.2 0.4 0.9 1.9 0.8 1.9 0.9 -0.2 0.9 -2.1 0.1 -2.3 -0.3 -2.3 -5.8z"/>
  <path d="M24.8 4.3 c1.2 -0.2 3 -0.2 4 0 0.9 0.3 -0.1 0.5 -2.3 0.4 -2.2 0 -3 -0.2 -1.7 -0.4z"/>
 </g>
 <g fill="#cdb416">
  <path d="M13 19 c0 -1.5 0.7 -2 2.5 -2 1.8 0 2.5 0.5 2.5 2 0 1.5 -0.7 2 -2.5 2 -1.8 0 -2.5 -0.5 -2.5 -2z"/>
  <path d="M13 9 c0 -1.5 0.7 -2 2.5 -2 1.8 0 2.5 0.5 2.5 2 0 1.5 -0.7 2 -2.5 2 -1.8 0 -2.5 -0.5 -2.5 -2z"/>
  <path d="M12.8 4.3 c1.8 -0.2 4.5 -0.2 6 0 1.5 0.2 0 0.4 -3.3 0.4 -3.3 0 -4.5 -0.2 -2.7 -0.4z"/>
 </g>
 <g fill="#fcd801">
  <path d="M13 14 c0 -5.7 0.1 -6 2.5 -6 2.4 0 2.5 0.3 2.5 6 0 5.7 -0.1 6 -2.5 6 -2.4 0 -2.5 -0.3 -2.5 -6z"/>
 </g>
 <g fill="#ada695">
  <path d="M2.4 32.7 c-0.2 -0.7 -0.3 -7.8 -0.2 -15.7 l0.3 -14.5 15.5 0 15.5 0 0 15.5 0 15.5 -15.3 0.3 c-11.9 0.2 -15.4 0 -15.8 -1.1z m28.6 -14.7 l0 -13 -13 0 -13 0 0 13 0 13 13 0 13 0 0 -13z"/>
  <path d="M8 26.5 c0 -2.2 0.4 -2.6 2.3 -2.3 1.4 0.2 2.2 1 2.2 2.3 0 1.3 -0.8 2.1 -2.2 2.3 -1.9 0.3 -2.3 -0.1 -2.3 -2.3z"/>
  <path d="M15.4 27.5 c-0.8 -1.9 0.3 -3.5 2.5 -3.5 2.4 0 3 0.8 2.4 3.1 -0.6 2.2 -4.1 2.6 -4.9 0.4z"/>
  <path d="M23.4 27.5 c-0.8 -2 0.4 -3.5 2.7 -3.5 1.4 0 1.9 0.7 1.9 2.5 0 1.8 -0.5 2.5 -2 2.5 -1.1 0 -2.3 -0.7 -2.6 -1.5z"/>
 </g>
 <g fill="#f0e5c8">
  <path d="M3 18 l0 -15 15 0 15 0 0 15 0 15 -15 0 -15 0 0 -15z m29 0 l0 -14.1 -13.7 0.3 -13.8 0.3 -0.3 13.8 -0.3 13.7 14.1 0 14 0 0 -14z"/>
  <path d="M8.2 26.3 c0.5 -2.6 3.8 -2.9 3.8 -0.4 0 1.5 -0.6 2.1 -2.1 2.1 -1.4 0 -1.9 -0.5 -1.7 -1.7z"/>
  <path d="M16 26 c0 -1.3 0.7 -2 2 -2 1.3 0 2 0.7 2 2 0 1.3 -0.7 2 -2 2 -1.3 0 -2 -0.7 -2 -2z"/>
  <path d="M24 25.9 c0 -2.5 3.3 -2.2 3.8 0.4 0.2 1.2 -0.3 1.7 -1.7 1.7 -1.5 0 -2.1 -0.6 -2.1 -2.1z"/>
 </g>
</svg>