<svg width="16" height="16" viewBox="0 0 16 16" fill="none" xmlns="http://www.w3.org/2000/svg">
<g clip-path="url(#clip0_1825_18138)">
<path d="M8.3125 3L7.47871 1.89974C7.26684 1.62016 6.9931 1.39344 6.67896 1.23734C6.36481 1.08125 6.01879 1.00001 5.668 1H1C0.734784 1 0.48043 1.10536 0.292893 1.29289C0.105357 1.48043 0 1.73478 0 2L0 12C0.00155124 12.53 0.212763 13.0378 0.5875 13.4125C0.962237 13.7872 1.47004 13.9984 2 14H14C14.53 13.9984 15.0378 13.7872 15.4125 13.4125C15.7872 13.0378 15.9984 12.53 16 12V4C16 3.73478 15.8946 3.48043 15.7071 3.29289C15.5196 3.10536 15.2652 3 15 3H8.3125Z" fill="url(#paint0_linear_1825_18138)"/>
<mask id="mask0_1825_18138" style="mask-type:alpha" maskUnits="userSpaceOnUse" x="0" y="1" width="16" height="13">
<path d="M8.3125 3L7.47871 1.89974C7.26684 1.62016 6.9931 1.39344 6.67896 1.23734C6.36481 1.08125 6.01879 1.00001 5.668 1H1C0.734784 1 0.48043 1.10536 0.292893 1.29289C0.105357 1.48043 0 1.73478 0 2L0 12C0.00155124 12.53 0.212763 13.0378 0.5875 13.4125C0.962237 13.7872 1.47004 13.9984 2 14H14C14.53 13.9984 15.0378 13.7872 15.4125 13.4125C15.7872 13.0378 15.9984 12.53 16 12V4C16 3.73478 15.8946 3.48043 15.7071 3.29289C15.5196 3.10536 15.2652 3 15 3H8.3125Z" fill="url(#paint1_linear_1825_18138)"/>
</mask>
<g mask="url(#mask0_1825_18138)">
<g filter="url(#filter0_dd_1825_18138)">
<path d="M14.9985 5.00187H10L8 5.00172C7.62917 5.19449 6.41839 4.9973 6.00047 5.00171H1.00151C0.868112 4.99367 0.734525 5.01401 0.609573 5.06142C0.484622 5.10882 0.37115 5.18219 0.276655 5.27669C0.18216 5.37119 0.108792 5.48467 0.061398 5.60962C0.0140044 5.73458 -0.00633622 5.86817 0.00172002 6.00156V13.9986C-0.00634109 14.132 0.0139961 14.2656 0.0613881 14.3905C0.10878 14.5155 0.182148 14.6289 0.276644 14.7234C0.37114 14.8179 0.484614 14.8913 0.609568 14.9387C0.734521 14.9861 0.868111 15.0065 1.00151 14.9984H14.9985C15.1319 15.0065 15.2655 14.9861 15.3904 14.9387C15.5154 14.8913 15.6289 14.8179 15.7234 14.7234C15.8178 14.6289 15.8912 14.5155 15.9386 14.3905C15.986 14.2655 16.0064 14.132 15.9983 13.9986V6.00171C16.0064 5.86832 15.986 5.73473 15.9386 5.60977C15.8912 5.48481 15.8179 5.37134 15.7234 5.27683C15.6289 5.18233 15.5154 5.10896 15.3905 5.06156C15.2655 5.01416 15.1319 4.99382 14.9985 5.00187Z" fill="url(#paint2_linear_1825_18138)"/>
</g>
</g>
<path d="M14.9985 4.00172H8.2L7.20022 4.70161C6.82939 4.89438 6.41839 4.99714 6.00047 5.00156H1.00151C0.868112 4.99351 0.734525 5.01386 0.609573 5.06126C0.484622 5.10866 0.37115 5.18203 0.276655 5.27654C0.18216 5.37104 0.108792 5.48451 0.061398 5.60947C0.0140044 5.73442 -0.00633622 5.86801 0.00172002 6.00141V13.9984C-0.00634109 14.1318 0.0139961 14.2654 0.0613881 14.3904C0.10878 14.5153 0.182148 14.6288 0.276644 14.7233C0.37114 14.8178 0.484614 14.8912 0.609568 14.9386C0.734521 14.986 0.868111 15.0063 1.00151 14.9983H14.9985C15.1319 15.0063 15.2655 14.9859 15.3904 14.9385C15.5154 14.8911 15.6289 14.8178 15.7234 14.7233C15.8178 14.6288 15.8912 14.5153 15.9386 14.3903C15.986 14.2654 16.0064 14.1318 15.9983 13.9984V5.00156C16.0064 4.86816 15.986 4.73457 15.9386 4.60961C15.8912 4.48466 15.8179 4.37118 15.7234 4.27668C15.6289 4.18218 15.5154 4.1088 15.3905 4.0614C15.2655 4.01401 15.1319 3.99366 14.9985 4.00172H14.9985Z" fill="url(#paint3_linear_1825_18138)"/>
<path opacity="0.25" d="M15.7017 4.30036C15.6137 4.20263 15.5056 4.1252 15.3847 4.0734C15.2638 4.0216 15.1332 3.99668 15.0017 4.00036H8.20172L7.20172 4.70036C6.83081 4.89316 6.41972 4.99594 6.00172 5.00036H1.00172C0.868297 4.9923 0.734682 5.01264 0.609705 5.06005C0.484727 5.10745 0.371231 5.18083 0.276715 5.27535C0.182198 5.36987 0.108814 5.48336 0.0614098 5.60834C0.0140056 5.73332 -0.00633928 5.86693 0.00171929 6.00036V7.00036C-0.00634091 6.86693 0.0140029 6.73332 0.0614065 6.60834C0.10881 6.48336 0.182194 6.36986 0.276711 6.27535C0.371227 6.18083 0.484724 6.10745 0.609703 6.06004C0.734681 6.01264 0.868296 5.9923 1.00172 6.00036H6.00172C6.60283 5.98827 7.18978 5.81563 7.70172 5.50036L8.50172 5.00036H15.0017C15.1351 4.9923 15.2688 5.01265 15.3937 5.06006C15.5187 5.10746 15.6322 5.18085 15.7267 5.27536C15.8212 5.36988 15.8946 5.48337 15.942 5.60835C15.9894 5.73332 16.0098 5.86693 16.0017 6.00036V5.00036C16.0054 4.86891 15.9805 4.73823 15.9287 4.61736C15.8769 4.49649 15.7995 4.38833 15.7017 4.30036Z" fill="url(#paint4_linear_1825_18138)"/>
<mask id="mask1_1825_18138" style="mask-type:alpha" maskUnits="userSpaceOnUse" x="0" y="4" width="16" height="11">
<path d="M14.9985 4.00172H8.2L7.20022 4.70161C6.82939 4.89438 6.41839 4.99714 6.00047 5.00156H1.00151C0.868112 4.99351 0.734525 5.01386 0.609573 5.06126C0.484622 5.10866 0.37115 5.18203 0.276655 5.27654C0.18216 5.37104 0.108792 5.48451 0.061398 5.60947C0.0140044 5.73442 -0.00633622 5.86801 0.00172002 6.00141V13.9984C-0.00634109 14.1318 0.0139961 14.2654 0.0613881 14.3904C0.10878 14.5153 0.182148 14.6288 0.276644 14.7233C0.37114 14.8178 0.484614 14.8912 0.609568 14.9386C0.734521 14.986 0.868111 15.0063 1.00151 14.9983H14.9985C15.1319 15.0063 15.2655 14.9859 15.3904 14.9385C15.5154 14.8911 15.6289 14.8178 15.7234 14.7233C15.8178 14.6288 15.8912 14.5153 15.9386 14.3903C15.986 14.2654 16.0064 14.1318 15.9983 13.9984V5.00156C16.0064 4.86816 15.986 4.73457 15.9386 4.60961C15.8912 4.48466 15.8179 4.37118 15.7234 4.27668C15.6289 4.18218 15.5154 4.1088 15.3905 4.0614C15.2655 4.01401 15.1319 3.99366 14.9985 4.00172H14.9985Z" fill="url(#paint5_linear_1825_18138)"/>
</mask>
<g mask="url(#mask1_1825_18138)">
<g filter="url(#filter1_dd_1825_18138)">
<path d="M5 10H11C11.5304 10 12.0391 10.2107 12.4142 10.5858C12.7893 10.9609 13 11.4696 13 12V15H3V12C3 11.4696 3.21071 10.9609 3.58579 10.5858C3.96086 10.2107 4.46957 10 5 10Z" fill="url(#paint6_linear_1825_18138)"/>
</g>
</g>
<path d="M5 10H11C11.5304 10 12.0391 10.2107 12.4142 10.5858C12.7893 10.9609 13 11.4696 13 12V15H3V12C3 11.4696 3.21071 10.9609 3.58579 10.5858C3.96086 10.2107 4.46957 10 5 10Z" fill="url(#paint7_linear_1825_18138)"/>
<path d="M10.5 12H5.5C5.22386 12 5 12.2239 5 12.5C5 12.7761 5.22386 13 5.5 13H10.5C10.7761 13 11 12.7761 11 12.5C11 12.2239 10.7761 12 10.5 12Z" fill="#114A8B"/>
</g>
<defs>
<filter id="filter0_dd_1825_18138" x="-1" y="4" width="18" height="12" filterUnits="userSpaceOnUse" color-interpolation-filters="sRGB">
<feFlood flood-opacity="0" result="BackgroundImageFix"/>
<feColorMatrix in="SourceAlpha" type="matrix" values="0 0 0 0 0 0 0 0 0 0 0 0 0 0 0 0 0 0 127 0" result="hardAlpha"/>
<feOffset/>
<feGaussianBlur stdDeviation="0.166667"/>
<feColorMatrix type="matrix" values="0 0 0 0 0 0 0 0 0 0 0 0 0 0 0 0 0 0 0.1 0"/>
<feBlend mode="normal" in2="BackgroundImageFix" result="effect1_dropShadow_1825_18138"/>
<feColorMatrix in="SourceAlpha" type="matrix" values="0 0 0 0 0 0 0 0 0 0 0 0 0 0 0 0 0 0 127 0" result="hardAlpha"/>
<feOffset/>
<feGaussianBlur stdDeviation="0.5"/>
<feColorMatrix type="matrix" values="0 0 0 0 0 0 0 0 0 0 0 0 0 0 0 0 0 0 0.2 0"/>
<feBlend mode="normal" in2="effect1_dropShadow_1825_18138" result="effect2_dropShadow_1825_18138"/>
<feBlend mode="normal" in="SourceGraphic" in2="effect2_dropShadow_1825_18138" result="shape"/>
</filter>
<filter id="filter1_dd_1825_18138" x="2" y="9" width="12" height="7" filterUnits="userSpaceOnUse" color-interpolation-filters="sRGB">
<feFlood flood-opacity="0" result="BackgroundImageFix"/>
<feColorMatrix in="SourceAlpha" type="matrix" values="0 0 0 0 0 0 0 0 0 0 0 0 0 0 0 0 0 0 127 0" result="hardAlpha"/>
<feOffset/>
<feGaussianBlur stdDeviation="0.166667"/>
<feColorMatrix type="matrix" values="0 0 0 0 0 0 0 0 0 0 0 0 0 0 0 0 0 0 0.1 0"/>
<feBlend mode="normal" in2="BackgroundImageFix" result="effect1_dropShadow_1825_18138"/>
<feColorMatrix in="SourceAlpha" type="matrix" values="0 0 0 0 0 0 0 0 0 0 0 0 0 0 0 0 0 0 127 0" result="hardAlpha"/>
<feOffset/>
<feGaussianBlur stdDeviation="0.5"/>
<feColorMatrix type="matrix" values="0 0 0 0 0 0 0 0 0 0 0 0 0 0 0 0 0 0 0.2 0"/>
<feBlend mode="normal" in2="effect1_dropShadow_1825_18138" result="effect2_dropShadow_1825_18138"/>
<feBlend mode="normal" in="SourceGraphic" in2="effect2_dropShadow_1825_18138" result="shape"/>
</filter>
<linearGradient id="paint0_linear_1825_18138" x1="11.4683" y1="14.139" x2="4.1515" y2="1.4659" gradientUnits="userSpaceOnUse">
<stop offset="0.1135" stop-color="#D18B00"/>
<stop offset="0.6162" stop-color="#E09F00"/>
</linearGradient>
<linearGradient id="paint1_linear_1825_18138" x1="11.4683" y1="14.139" x2="4.1515" y2="1.4659" gradientUnits="userSpaceOnUse">
<stop offset="0.1135" stop-color="#D18B00"/>
<stop offset="0.6162" stop-color="#E09F00"/>
</linearGradient>
<linearGradient id="paint2_linear_1825_18138" x1="12.1767" y1="16.7345" x2="4.48067" y2="3.40451" gradientUnits="userSpaceOnUse">
<stop stop-color="#F5B300"/>
<stop offset="0.5" stop-color="#FFCB3C"/>
<stop offset="1" stop-color="#FFD762"/>
</linearGradient>
<linearGradient id="paint3_linear_1825_18138" x1="12.1767" y1="16.7343" x2="4.48067" y2="3.40435" gradientUnits="userSpaceOnUse">
<stop stop-color="#F5B300"/>
<stop offset="0.5" stop-color="#FFCB3C"/>
<stop offset="1" stop-color="#FFD762"/>
</linearGradient>
<linearGradient id="paint4_linear_1825_18138" x1="0.430309" y1="5.50017" x2="16.0017" y2="5.50017" gradientUnits="userSpaceOnUse">
<stop stop-color="white"/>
<stop offset="1" stop-color="white" stop-opacity="0"/>
</linearGradient>
<linearGradient id="paint5_linear_1825_18138" x1="12.1767" y1="16.7343" x2="4.48067" y2="3.40435" gradientUnits="userSpaceOnUse">
<stop stop-color="#F5B300"/>
<stop offset="0.5" stop-color="#FFCB3C"/>
<stop offset="1" stop-color="#FFD762"/>
</linearGradient>
<linearGradient id="paint6_linear_1825_18138" x1="8.30516" y1="15.1422" x2="7.36003" y2="9.7821" gradientUnits="userSpaceOnUse">
<stop stop-color="#0062B4"/>
<stop offset="1" stop-color="#1493DF"/>
</linearGradient>
<linearGradient id="paint7_linear_1825_18138" x1="8.30516" y1="15.1422" x2="7.36003" y2="9.7821" gradientUnits="userSpaceOnUse">
<stop stop-color="#0062B4"/>
<stop offset="1" stop-color="#1493DF"/>
</linearGradient>
<clipPath id="clip0_1825_18138">
<rect width="16" height="16" fill="white"/>
</clipPath>
</defs>
</svg>
