<svg xmlns="http://www.w3.org/2000/svg" xmlns:xlink="http://www.w3.org/1999/xlink" width="100%" height="100%" version="1.1" viewBox="0 0 40 40" xml:space="preserve" style="fill-rule:evenodd;clip-rule:evenodd;stroke-linejoin:round;stroke-miterlimit:2"><g><g><path d="M10,18C14.389,18 18,14.389 18,10C18,5.611 14.389,2 10,2C5.611,2 2,5.611 2,10C2,14.389 5.611,18 10,18" style="fill:url(#_Linear1);fill-rule:nonzero" transform="matrix(2.25,0,0,2.2493,-0.5,-4.49859)"/></g><g><path d="M7.853,2.291C7.52,2.759 7.246,3.266 7.037,3.801C6.669,4.707 6.387,5.796 6.211,7L2.58,7C2.45,7.323 2.34,7.657 2.25,8L6.09,8C5.969,9.331 5.969,10.669 6.091,12L2.251,12C2.341,12.343 2.451,12.677 2.581,13L6.211,13C6.387,14.204 6.669,15.293 7.037,16.199C7.246,16.734 7.52,17.241 7.853,17.709C8.552,17.903 9.274,18.001 10,18C10.726,18.001 11.448,17.903 12.147,17.709C12.48,17.241 12.754,16.734 12.963,16.199C13.331,15.293 13.613,14.204 13.789,13L17.419,13C17.549,12.677 17.659,12.343 17.748,12L13.908,12C14.032,10.67 14.032,9.33 13.908,8L17.748,8C17.66,7.66 17.55,7.326 17.418,7L13.79,7C13.614,5.796 13.332,4.707 12.964,3.801C12.755,3.266 12.481,2.759 12.148,2.291C11.449,2.097 10.726,1.999 10,2C9.274,1.999 8.552,2.097 7.853,2.291M7.223,7C7.389,5.924 7.643,4.965 7.963,4.178C8.261,3.445 8.605,2.886 8.966,2.518C9.324,2.153 9.672,2 10,2C10.328,2 10.676,2.153 11.034,2.518C11.394,2.886 11.739,3.445 12.037,4.178C12.357,4.965 12.611,5.924 12.777,7L7.223,7ZM10,18C10.328,18 10.676,17.847 11.034,17.482C11.394,17.114 11.739,16.555 12.037,15.822C12.357,15.035 12.611,14.076 12.777,13L7.223,13C7.39,14.076 7.644,15.035 7.964,15.822C8.262,16.555 8.606,17.114 8.967,17.482C9.325,17.847 9.673,18 10.001,18M7.001,10C7.001,10.692 7.034,11.362 7.097,12L12.905,12C12.968,11.335 13,10.668 13,10C13,9.308 12.967,8.638 12.904,8L7.096,8C7.032,8.665 7,9.332 7,10" style="fill:url(#_Radial2)" transform="matrix(2.25,0,0,2.2493,-0.49775,-4.48735)"/></g><g><path d="M10,18C14.389,18 18,14.389 18,10C18,5.611 14.389,2 10,2C5.611,2 2,5.611 2,10C2,14.389 5.611,18 10,18" style="fill:url(#_Radial3);fill-rule:nonzero" transform="matrix(-2.25,0,0,2.22013,44.5,-3.97361)"/></g><g><path d="M10,18C14.389,18 18,14.389 18,10C18,5.611 14.389,2 10,2C5.611,2 2,5.611 2,10C2,14.389 5.611,18 10,18" style="fill:url(#_Radial4);fill-rule:nonzero" transform="matrix(-2.25,0,0,2.22013,44.5,-3.97361)"/></g><g><g><path d="M9.978,11.087C8.977,11.846 7.756,12.257 6.5,12.257C3.342,12.257 0.744,9.658 0.744,6.5C0.744,3.342 3.342,0.744 6.5,0.744C9.658,0.744 12.257,3.342 12.257,6.5C12.257,7.756 11.846,8.977 11.087,9.978L14.119,13.01C14.279,13.158 14.369,13.367 14.369,13.584C14.369,14.015 14.015,14.369 13.584,14.369C13.367,14.369 13.158,14.279 13.01,14.119L9.978,11.087Z" style="fill:url(#_Linear5)" transform="matrix(1.07186,0,0,1.07219,-1186.62,-806.111) matrix(1.71182,0,0,1.71128,1106.73,763.62)"/></g><g><path d="M9.978,11.087C8.977,11.846 7.756,12.257 6.5,12.257C3.342,12.257 0.744,9.658 0.744,6.5C0.744,3.342 3.342,0.744 6.5,0.744C9.658,0.744 12.257,3.342 12.257,6.5C12.257,7.756 11.846,8.977 11.087,9.978L14.119,13.01C14.279,13.158 14.369,13.367 14.369,13.584C14.369,14.015 14.015,14.369 13.584,14.369C13.367,14.369 13.158,14.279 13.01,14.119L9.978,11.087Z" style="fill:url(#_Linear6)" transform="matrix(1.07186,0,0,1.07219,-1186.62,-806.111) matrix(1.71182,0,0,1.71128,1106.73,763.62)"/></g></g></g><defs><linearGradient id="_Linear1" x1="0" x2="1" y1="0" y2="0" gradientTransform="matrix(11.555,10.666,-10.666,11.555,5.556,4.667)" gradientUnits="userSpaceOnUse"><stop offset="0" style="stop-color:#29c3ff;stop-opacity:1"/><stop offset="1" style="stop-color:#2052cb;stop-opacity:1"/></linearGradient><radialGradient id="_Radial2" cx="0" cy="0" r="1" gradientTransform="matrix(4.20189,4.66481,-4.8129,4.338,6.091,12)" gradientUnits="userSpaceOnUse"><stop offset="0" style="stop-color:#3bd5ff;stop-opacity:0"/><stop offset=".45" style="stop-color:#3bd5ff;stop-opacity:0"/><stop offset=".82" style="stop-color:#3bd5ff;stop-opacity:1"/><stop offset="1" style="stop-color:#3bd5ff;stop-opacity:1"/></radialGradient><radialGradient id="_Radial3" cx="0" cy="0" r="1" gradientTransform="matrix(-6.72116,-6.88408e-15,6.70252e-15,-6.72116,14,13.9512)" gradientUnits="userSpaceOnUse"><stop offset="0" style="stop-color:#003580;stop-opacity:.7"/><stop offset="1" style="stop-color:#003580;stop-opacity:0"/></radialGradient><radialGradient id="_Radial4" cx="0" cy="0" r="1" gradientTransform="matrix(8.37502,6.37502,-6.91548,9.08503,13.2097,13.1926)" gradientUnits="userSpaceOnUse"><stop offset="0" style="stop-color:#1b44b1;stop-opacity:.2"/><stop offset=".41" style="stop-color:#1b44b1;stop-opacity:.2"/><stop offset="1" style="stop-color:#1b44b1;stop-opacity:0"/></radialGradient><linearGradient id="_Linear5" x1="0" x2="1" y1="0" y2="0" gradientTransform="matrix(-10.1905,10.1905,-10.1905,-10.1905,12.7341,0.475165)" gradientUnits="userSpaceOnUse"><stop offset="0" style="stop-color:#effdfc;stop-opacity:1"/><stop offset="1" style="stop-color:#bce3f7;stop-opacity:1"/></linearGradient><linearGradient id="_Linear6" x1="0" x2="1" y1="0" y2="0" gradientTransform="matrix(-10.1905,10.1905,-10.1905,-10.1905,12.7341,0.475165)" gradientUnits="userSpaceOnUse"><stop offset="0" style="stop-color:#effdfc;stop-opacity:1"/><stop offset="1" style="stop-color:#bce3f7;stop-opacity:1"/></linearGradient></defs></svg>