<svg width="16" height="16" viewBox="0 0 16 16" fill="none" xmlns="http://www.w3.org/2000/svg">
<g clip-path="url(#clip0_1938_19305)">
<path d="M8 0.195312C8.73438 0.195312 9.44271 0.289062 10.125 0.476562C10.8073 0.664062 11.4427 0.934896 12.0312 1.28906C12.6198 1.64323 13.1589 2.0599 13.6484 2.53906C14.138 3.01823 14.5573 3.55729 14.9062 4.15625C15.2552 4.75521 15.5234 5.39323 15.7109 6.07031C15.8984 6.7474 15.9948 7.45573 16 8.19531C16 9.05469 15.8698 9.88281 15.6094 10.6797C15.349 11.4766 14.9766 12.2083 14.4922 12.875C14.0078 13.5417 13.4323 14.125 12.7656 14.625C12.099 15.125 11.3542 15.513 10.5312 15.7891C10.5156 15.7943 10.4922 15.7969 10.4609 15.7969C10.4297 15.7969 10.4062 15.7995 10.3906 15.8047C10.2708 15.8047 10.1745 15.7708 10.1016 15.7031C10.0286 15.6354 9.98958 15.5365 9.98438 15.4062V14.8516L9.99219 13.7656V13.2109C9.99219 12.9453 9.95312 12.6771 9.875 12.4062C9.79688 12.1354 9.65625 11.9089 9.45312 11.7266C10.0625 11.6589 10.5964 11.5339 11.0547 11.3516C11.513 11.1693 11.8932 10.9167 12.1953 10.5938C12.4974 10.2708 12.724 9.88021 12.875 9.42188C13.026 8.96354 13.1016 8.41667 13.1016 7.78125C13.1016 7.375 13.0365 6.98958 12.9062 6.625C12.776 6.26042 12.5677 5.92969 12.2812 5.63281C12.3385 5.48698 12.3802 5.33594 12.4062 5.17969C12.4323 5.02344 12.4453 4.86719 12.4453 4.71094C12.4453 4.50781 12.4245 4.30729 12.3828 4.10938C12.3411 3.91146 12.2812 3.71354 12.2031 3.51562C12.1875 3.50521 12.1719 3.5 12.1562 3.5C12.1406 3.5 12.1224 3.5 12.1016 3.5C11.9193 3.5 11.7344 3.52344 11.5469 3.57031C11.3594 3.61719 11.1771 3.68229 11 3.76562C10.8229 3.84896 10.6484 3.9375 10.4766 4.03125C10.3047 4.125 10.1458 4.22656 10 4.33594C9.34375 4.15365 8.67708 4.0625 8 4.0625C7.32292 4.0625 6.65625 4.15365 6 4.33594C5.84896 4.23698 5.6901 4.13802 5.52344 4.03906C5.35677 3.9401 5.18229 3.85156 5 3.77344C4.81771 3.69531 4.63542 3.63021 4.45312 3.57812C4.27083 3.52604 4.08594 3.5 3.89844 3.5H3.85156C3.83594 3.5 3.81771 3.50521 3.79688 3.51562C3.72396 3.70833 3.66667 3.90365 3.625 4.10156C3.58333 4.29948 3.5599 4.5026 3.55469 4.71094C3.55469 4.86719 3.56771 5.02344 3.59375 5.17969C3.61979 5.33594 3.66146 5.48698 3.71875 5.63281C3.4375 5.92969 3.23177 6.26042 3.10156 6.625C2.97135 6.98958 2.90365 7.375 2.89844 7.78125C2.89844 8.40625 2.97396 8.95052 3.125 9.41406C3.27604 9.8776 3.5026 10.2682 3.80469 10.5859C4.10677 10.9036 4.48438 11.1589 4.9375 11.3516C5.39062 11.5443 5.92448 11.6719 6.53906 11.7344C6.38802 11.8698 6.27344 12.0312 6.19531 12.2188C6.11719 12.4062 6.0625 12.6016 6.03125 12.8047C5.89062 12.8724 5.74219 12.9245 5.58594 12.9609C5.42969 12.9974 5.27344 13.0156 5.11719 13.0156C4.8724 13.0156 4.66667 12.974 4.5 12.8906C4.33333 12.8073 4.1875 12.7031 4.0625 12.5781C3.9375 12.4531 3.82031 12.3151 3.71094 12.1641C3.60156 12.013 3.49219 11.8776 3.38281 11.7578C3.27344 11.638 3.14583 11.5312 3 11.4375C2.85417 11.3438 2.67969 11.3021 2.47656 11.3125H2.38281C2.34115 11.3125 2.30208 11.3203 2.26562 11.3359C2.22917 11.3516 2.19271 11.3672 2.15625 11.3828C2.11979 11.3984 2.10417 11.4245 2.10938 11.4609C2.10938 11.5339 2.14844 11.5964 2.22656 11.6484C2.30469 11.7005 2.36979 11.75 2.42188 11.7969C2.54688 11.8906 2.65104 11.9792 2.73438 12.0625C2.81771 12.1458 2.89062 12.2318 2.95312 12.3203C3.01562 12.4089 3.07292 12.5026 3.125 12.6016C3.17708 12.7005 3.23958 12.8229 3.3125 12.9688C3.51042 13.3802 3.76042 13.6771 4.0625 13.8594C4.36458 14.0417 4.74479 14.1328 5.20312 14.1328C5.33854 14.1328 5.47396 14.125 5.60938 14.1094C5.74479 14.0938 5.88021 14.0703 6.01562 14.0391V15.3984C6.01562 15.5234 5.97917 15.6224 5.90625 15.6953C5.83333 15.7682 5.73177 15.8047 5.60156 15.8047C5.55469 15.8047 5.51042 15.7995 5.46875 15.7891C4.65104 15.5182 3.90625 15.1328 3.23438 14.6328C2.5625 14.1328 1.98698 13.5495 1.50781 12.8828C1.02865 12.2161 0.658854 11.4844 0.398438 10.6875C0.138021 9.89062 0.00520833 9.0599 0 8.19531C0 7.46094 0.09375 6.7526 0.28125 6.07031C0.46875 5.38802 0.739583 4.7526 1.09375 4.16406C1.44792 3.57552 1.86458 3.03646 2.34375 2.54688C2.82292 2.05729 3.36198 1.63802 3.96094 1.28906C4.5599 0.940104 5.19792 0.671875 5.875 0.484375C6.55208 0.296875 7.26042 0.200521 8 0.195312Z" fill="white"/>
</g>
<defs>
<clipPath id="clip0_1938_19305">
<rect width="16" height="16" fill="white"/>
</clipPath>
</defs>
</svg>