<svg width="16" height="16" viewBox="0 0 16 16" fill="none" xmlns="http://www.w3.org/2000/svg">
<path d="M8 15C6.61553 15 5.26215 14.5895 4.11101 13.8203C2.95986 13.0511 2.06266 11.9579 1.53284 10.6788C1.00303 9.3997 0.86441 7.99223 1.1345 6.63437C1.4046 5.2765 2.07128 4.02922 3.05025 3.05025C4.02922 2.07128 5.2765 1.4046 6.63437 1.1345C7.99223 0.86441 9.3997 1.00303 10.6788 1.53284C11.9579 2.06266 13.0511 2.95986 13.8203 4.11101C14.5895 5.26215 15 6.61553 15 8C14.9976 9.85578 14.2594 11.6349 12.9471 12.9471C11.6349 14.2594 9.85578 14.9976 8 15ZM8 2C6.81331 2 5.65327 2.35189 4.66658 3.01118C3.67988 3.67047 2.91085 4.60754 2.45672 5.7039C2.0026 6.80026 1.88378 8.00665 2.11529 9.17054C2.3468 10.3344 2.91824 11.4035 3.75736 12.2426C4.59647 13.0818 5.66557 13.6532 6.82946 13.8847C7.99334 14.1162 9.19974 13.9974 10.2961 13.5433C11.3925 13.0892 12.3295 12.3201 12.9888 11.3334C13.6481 10.3467 14 9.18669 14 8C13.9984 6.40919 13.3658 4.88399 12.2409 3.75911C11.116 2.63424 9.59081 2.00159 8 2Z" fill="#3FB950"/>
<path d="M10 8C10 8.39556 9.8827 8.78224 9.66294 9.11114C9.44318 9.44004 9.13082 9.69638 8.76537 9.84776C8.39991 9.99913 7.99778 10.0387 7.60982 9.96157C7.22186 9.8844 6.86549 9.69392 6.58579 9.41421C6.30608 9.13451 6.1156 8.77814 6.03843 8.39018C5.96126 8.00222 6.00086 7.60009 6.15224 7.23463C6.30362 6.86918 6.55996 6.55682 6.88886 6.33706C7.21776 6.1173 7.60444 6 8 6C8.53043 6 9.03914 6.21071 9.41421 6.58579C9.78929 6.96086 10 7.46957 10 8Z" fill="#3FB950"/>
</svg>