<svg width="16" height="16" viewBox="0 0 16 16" fill="none" xmlns="http://www.w3.org/2000/svg">
<path fill-rule="evenodd" clip-rule="evenodd" d="M5.61561 4.92833C5.34246 5.33998 4.95291 5.66096 4.49661 5.85033C4.34861 5.91033 4.03861 5.98833 4.03861 5.98833V10.9963C4.68393 11.1294 5.25107 11.5108 5.61761 12.0583C5.89061 12.4703 6.03661 12.9533 6.03661 13.4463C6.04461 13.7893 5.97961 14.1303 5.84661 14.4463C5.65589 14.9093 5.32977 15.3039 4.91097 15.5783C4.49216 15.8527 4.00022 15.9943 3.49961 15.9843C3.00555 15.9859 2.52226 15.84 2.11161 15.5653C1.69965 15.2918 1.37857 14.9017 1.1894 14.4448C1.00024 13.9879 0.951567 13.485 1.04961 13.0003C1.14461 12.5143 1.38061 12.0683 1.72961 11.7173C2.07861 11.3743 2.51961 11.1383 2.99861 11.0373V5.94933C2.52004 5.84663 2.08017 5.61093 1.72961 5.26933C1.38115 4.91825 1.14452 4.47179 1.04961 3.98633C0.951366 3.50185 0.999732 2.99908 1.18853 2.54221C1.37734 2.08535 1.69801 1.69511 2.10961 1.42133C2.52081 1.14598 3.00474 0.999415 3.49961 1.00033C3.83424 0.994916 4.16656 1.05664 4.47693 1.18185C4.7873 1.30706 5.06942 1.49322 5.30661 1.72933C5.54359 1.9665 5.73029 2.24904 5.85555 2.56004C5.98081 2.87104 6.04205 3.20411 6.03561 3.53933C6.03761 4.03333 5.89161 4.51733 5.61561 4.92833ZM4.85961 12.7893C4.73142 12.5499 4.54063 12.3498 4.30761 12.2103C4.07564 12.0697 3.80887 11.9969 3.53761 12.0003C3.3159 11.9997 3.09681 12.0483 2.89623 12.1428C2.69565 12.2373 2.51859 12.3752 2.37788 12.5465C2.23716 12.7179 2.13633 12.9184 2.08266 13.1335C2.029 13.3486 2.02386 13.573 2.06761 13.7903C2.12463 14.082 2.26739 14.35 2.4776 14.56C2.68781 14.77 2.95592 14.9126 3.24761 14.9693C3.53561 15.0273 3.83361 14.9993 4.10761 14.8893C4.38361 14.7723 4.61961 14.5773 4.78761 14.3293C4.93761 14.1033 5.02261 13.8393 5.03661 13.5693C5.04879 13.2981 4.98765 13.0287 4.85961 12.7893ZM2.70761 4.74133C2.95461 4.90233 3.24361 4.99133 3.53761 4.99133C3.80861 4.99133 4.07561 4.91633 4.30761 4.78033C4.53974 4.6399 4.72987 4.43968 4.85811 4.2006C4.98636 3.96153 5.04801 3.69239 5.03661 3.42133C5.02298 3.15015 4.93663 2.88764 4.78661 2.66133C4.61883 2.41286 4.38264 2.21835 4.10661 2.10133C3.83413 1.99034 3.53489 1.9625 3.24661 2.02133C2.95503 2.07848 2.68711 2.22127 2.47709 2.43146C2.26708 2.64166 2.12451 2.9097 2.06761 3.20133C2.00961 3.48933 2.03761 3.78733 2.14761 4.06133C2.26461 4.33733 2.45961 4.57333 2.70761 4.74133ZM13.0366 11.0373C13.5166 11.1343 13.9586 11.3723 14.3056 11.7173C14.7716 12.1873 15.0346 12.8243 15.0306 13.4833C15.0326 13.9763 14.8866 14.4603 14.6106 14.8713C14.3365 15.2833 13.9462 15.6047 13.4892 15.7946C13.0323 15.9846 12.5292 16.0346 12.0438 15.9383C11.5584 15.842 11.1125 15.6038 10.7626 15.2538C10.4128 14.9038 10.1747 14.4578 10.0786 13.9723C9.98284 13.4872 10.0331 12.9845 10.223 12.528C10.413 12.0714 10.734 11.6814 11.1456 11.4073C11.4126 11.2243 11.7166 11.0993 12.0346 11.0373V5.48933C12.0343 5.09168 11.8762 4.7104 11.5949 4.42931C11.3136 4.14823 10.9323 3.99033 10.5346 3.99033H8.68661L9.95561 5.26033L9.24561 5.96933L7.11661 3.84033V3.14033L9.24661 1.01033L9.95661 1.72133L8.68761 2.99133H10.5376C11.0327 2.98855 11.5173 3.13376 11.9292 3.40834C12.3412 3.68291 12.6617 4.07432 12.8496 4.53233C12.9746 4.83433 13.0386 5.16033 13.0366 5.48933V11.0373ZM13.5936 14.5463C13.8399 14.3024 13.9936 13.9805 14.0285 13.6356C14.0633 13.2908 13.9771 12.9446 13.7846 12.6563C13.6166 12.4083 13.3805 12.2141 13.1046 12.0973C12.8321 11.9863 12.5329 11.9585 12.2446 12.0173C11.953 12.0744 11.685 12.2171 11.4749 12.4273C11.2649 12.6375 11.1224 12.9056 11.0656 13.1973C11.0068 13.4856 11.0346 13.7848 11.1456 14.0573C11.2388 14.2865 11.3873 14.4889 11.5779 14.6466C11.7685 14.8043 11.9953 14.9122 12.2378 14.9608C12.4804 15.0093 12.7312 14.997 12.9678 14.9248C13.2044 14.8527 13.4194 14.723 13.5936 14.5473V14.5463Z" fill="#3FB950"/>
</svg>