<svg width="16" height="16" viewBox="0 0 16 16" fill="none" xmlns="http://www.w3.org/2000/svg">
<path d="M1.33301 2.83412C1.33301 2.00565 2.00458 1.33412 2.83301 1.33412L6.47431 1.33412C7.04887 1.33412 7.59987 1.56232 8.00621 1.96852L13.6749 7.63585C14.5195 8.48218 14.5201 9.85268 13.6759 10.7001L10.7058 13.6746C9.86054 14.5216 8.48861 14.5227 7.64181 13.6771L1.96857 8.01065C1.56165 7.60425 1.33301 7.05278 1.33301 6.47765L1.33301 2.83412ZM2.33301 2.83412L2.33301 6.47765C2.33301 6.78732 2.45612 7.08432 2.67523 7.30312L8.35687 12.9779C8.81347 13.4247 9.54574 13.4213 9.99814 12.9681L12.9678 9.99394C13.4227 9.53736 13.4223 8.79845 12.9675 8.34265L7.29914 2.67572C7.08041 2.45698 6.78367 2.33412 6.47431 2.33412L2.83301 2.33412C2.55687 2.33412 2.33301 2.55798 2.33301 2.83412ZM3.66779 4.66745C3.66779 4.11518 4.1155 3.66745 4.66778 3.66745C5.22005 3.66745 5.66776 4.11518 5.66776 4.66745C5.66776 5.21972 5.22005 5.66745 4.66778 5.66745C4.1155 5.66745 3.66779 5.21972 3.66779 4.66745Z" fill="#3FB950"/>
</svg>