<svg width="18" height="16" viewBox="0 0 18 16" fill="none" xmlns="http://www.w3.org/2000/svg">
<rect y="3" width="16" height="10" rx="2" fill="url(#paint0_linear_1900_17890)"/>
<g filter="url(#filter0_dd_1900_17890)">
<path d="M14.375 10.0137H10.625C10.2798 10.0137 10 9.78981 10 9.51367V6.51367C10 6.23753 10.2798 6.01367 10.625 6.01367H14.375C14.7202 6.01367 15 6.23753 15 6.51367V9.51367C15 9.78981 14.7202 10.0137 14.375 10.0137Z" fill="url(#paint1_linear_1900_17890)"/>
</g>
<rect x="2" y="7.01367" width="3" height="2" rx="0.5" fill="#CAD2D9"/>
<path d="M6 7.51367C6 7.23753 6.22386 7.01367 6.5 7.01367H8.5C8.77614 7.01367 9 7.23753 9 7.51367V8.51367C9 8.78981 8.77614 9.01367 8.5 9.01367H6.5C6.22386 9.01367 6 8.78981 6 8.51367V7.51367Z" fill="#CAD2D9"/>
<defs>
<filter id="filter0_dd_1900_17890" x="7" y="4.01367" width="11" height="10" filterUnits="userSpaceOnUse" color-interpolation-filters="sRGB">
<feFlood flood-opacity="0" result="BackgroundImageFix"/>
<feColorMatrix in="SourceAlpha" type="matrix" values="0 0 0 0 0 0 0 0 0 0 0 0 0 0 0 0 0 0 127 0" result="hardAlpha"/>
<feOffset dy="0.5"/>
<feGaussianBlur stdDeviation="0.5"/>
<feColorMatrix type="matrix" values="0 0 0 0 0 0 0 0 0 0 0 0 0 0 0 0 0 0 0.1 0"/>
<feBlend mode="normal" in2="BackgroundImageFix" result="effect1_dropShadow_1900_17890"/>
<feColorMatrix in="SourceAlpha" type="matrix" values="0 0 0 0 0 0 0 0 0 0 0 0 0 0 0 0 0 0 127 0" result="hardAlpha"/>
<feOffset dy="1"/>
<feGaussianBlur stdDeviation="1.5"/>
<feColorMatrix type="matrix" values="0 0 0 0 0 0 0 0 0 0 0 0 0 0 0 0 0 0 0.2 0"/>
<feBlend mode="normal" in2="effect1_dropShadow_1900_17890" result="effect2_dropShadow_1900_17890"/>
<feBlend mode="normal" in="SourceGraphic" in2="effect2_dropShadow_1900_17890" result="shape"/>
</filter>
<linearGradient id="paint0_linear_1900_17890" x1="14.4562" y1="13.2418" x2="10.9314" y2="0.217619" gradientUnits="userSpaceOnUse">
<stop stop-color="#626F7A"/>
<stop offset="1" stop-color="#8B9299"/>
</linearGradient>
<linearGradient id="paint1_linear_1900_17890" x1="13.4016" y1="12.3863" x2="8.18482" y2="9.15927" gradientUnits="userSpaceOnUse">
<stop stop-color="#28AFEA"/>
<stop offset="0.37387" stop-color="#3CCAF4"/>
<stop offset="0.74949" stop-color="#4BDFFC"/>
<stop offset="1" stop-color="#50E6FF"/>
</linearGradient>
</defs>
</svg>
