<svg width="17" height="16" viewBox="0 0 17 16" fill="none" xmlns="http://www.w3.org/2000/svg">
<g clip-path="url(#clip0_2092_1818)">
<path fill-rule="evenodd" clip-rule="evenodd" d="M11.3222 0C11.7976 0 12.2189 0.367333 12.3702 0.886C12.5216 1.40467 13.4069 4.61267 13.4069 4.61267V10.9873H10.1982L10.2636 0H11.3222Z" fill="url(#paint0_linear_2092_1818)"/>
<path d="M16.0323 4.97996C16.0323 4.75329 15.849 4.57996 15.6323 4.57996H13.7423C13.1034 4.58049 12.4908 4.83459 12.039 5.28645C11.5873 5.73832 11.3334 6.35101 11.333 6.98996V10.9873H13.6237C14.2624 10.9866 14.8747 10.7325 15.3263 10.2808C15.7779 9.82909 16.0318 9.21667 16.0323 8.57796V4.97996Z" fill="url(#paint1_linear_2092_1818)"/>
<path fill-rule="evenodd" clip-rule="evenodd" d="M11.3216 1.6754e-05C11.2349 -0.00060392 11.1489 0.0160265 11.0686 0.0489413C10.9883 0.0818561 10.9154 0.130399 10.854 0.191747C10.7927 0.253096 10.7442 0.326027 10.7112 0.406302C10.6783 0.486576 10.6617 0.572592 10.6623 0.65935L10.5976 12.7914C10.5975 13.6423 10.2594 14.4583 9.65765 15.06C9.05595 15.6617 8.23992 15.9998 7.38898 16H1.56631C1.50256 16.0004 1.43966 15.9854 1.3829 15.9564C1.32613 15.9274 1.27717 15.8852 1.24012 15.8333C1.20308 15.7814 1.17903 15.7214 1.17002 15.6583C1.161 15.5952 1.16727 15.5309 1.18831 15.4707L5.85498 2.15002C6.07482 1.5228 6.48378 0.979202 7.02549 0.594138C7.56721 0.209074 8.21502 0.00149836 8.87964 1.6754e-05H11.3323H11.3216Z" fill="url(#paint2_linear_2092_1818)"/>
</g>
<defs>
<linearGradient id="paint0_linear_2092_1818" x1="12.6616" y1="11.2247" x2="9.96091" y2="0.410667" gradientUnits="userSpaceOnUse">
<stop stop-color="#712575"/>
<stop offset="0.09" stop-color="#9A2884"/>
<stop offset="0.18" stop-color="#BF2C92"/>
<stop offset="0.27" stop-color="#DA2E9C"/>
<stop offset="0.34" stop-color="#EB30A2"/>
<stop offset="0.4" stop-color="#F131A5"/>
<stop offset="0.5" stop-color="#EC30A3"/>
<stop offset="0.61" stop-color="#DF2F9E"/>
<stop offset="0.72" stop-color="#C92D96"/>
<stop offset="0.83" stop-color="#AA2A8A"/>
<stop offset="0.95" stop-color="#83267C"/>
<stop offset="1" stop-color="#712575"/>
</linearGradient>
<linearGradient id="paint1_linear_2092_1818" x1="13.6883" y1="0.226623" x2="13.6883" y2="15.4813" gradientUnits="userSpaceOnUse">
<stop stop-color="#DA7ED0"/>
<stop offset="0.08" stop-color="#B17BD5"/>
<stop offset="0.19" stop-color="#8778DB"/>
<stop offset="0.3" stop-color="#6276E1"/>
<stop offset="0.41" stop-color="#4574E5"/>
<stop offset="0.54" stop-color="#2E72E8"/>
<stop offset="0.67" stop-color="#1D71EB"/>
<stop offset="0.81" stop-color="#1471EC"/>
<stop offset="1" stop-color="#1171ED"/>
</linearGradient>
<linearGradient id="paint2_linear_2092_1818" x1="12.769" y1="0.572683" x2="2.65698" y2="16.7887" gradientUnits="userSpaceOnUse">
<stop stop-color="#DA7ED0"/>
<stop offset="0.05" stop-color="#B77BD4"/>
<stop offset="0.11" stop-color="#9079DA"/>
<stop offset="0.18" stop-color="#6E77DF"/>
<stop offset="0.25" stop-color="#5175E3"/>
<stop offset="0.33" stop-color="#3973E7"/>
<stop offset="0.42" stop-color="#2772E9"/>
<stop offset="0.54" stop-color="#1A71EB"/>
<stop offset="0.68" stop-color="#1371EC"/>
<stop offset="1" stop-color="#1171ED"/>
</linearGradient>
<clipPath id="clip0_2092_1818">
<rect width="16" height="16" fill="white" transform="translate(0.5)"/>
</clipPath>
</defs>
</svg>
