<svg xmlns="http://www.w3.org/2000/svg" width="40" height="40" fill="none" viewBox="0 0 40 40"><g clip-path="url(#clip0_367_9162)"><mask id="mask0_367_9162" style="mask-type:alpha" width="32" height="40" x="4" y="0" maskUnits="userSpaceOnUse"><path fill="#fff" d="M34.1422 5.85786C32.285 4.00069 30.0802 2.5275 27.6537 1.52241C25.2272 0.517314 22.6265 0 20 0C17.3736 0 14.7729 0.517317 12.3463 1.52241C9.91984 2.52751 7.71505 4.0007 5.85788 5.85787L5.86186 5.86184C3.41152 8.31218 4.90113 14.0036 9.12168 20C4.90114 25.9964 3.41152 31.6878 5.86186 34.1382L5.85789 34.1421C7.71506 35.9993 9.91984 37.4725 12.3464 38.4776C14.7729 39.4827 17.3736 40 20 40C22.6265 40 25.2272 39.4827 27.6537 38.4776C30.0802 37.4725 32.285 35.9993 34.1422 34.1421L34.1382 34.1382C36.5885 31.6878 35.0989 25.9964 30.8784 20C35.0989 14.0036 36.5885 8.31218 34.1382 5.86184L34.1422 5.85786Z"/></mask><g mask="url(#mask0_367_9162)"><path fill="url(#paint0_linear_367_9162)" d="M14.1091 14.1089C6.30083 21.9172 2.60841 30.8845 5.86186 34.1379C9.11531 37.3914 18.0826 33.699 25.8909 25.8907L14.1091 14.1089Z"/><path fill="url(#paint1_linear_367_9162)" d="M34.1384 5.86192C30.885 2.60847 21.9177 6.30089 14.1094 14.1092L25.8912 25.891C33.6995 18.0827 37.3919 9.11538 34.1384 5.86192Z"/><g filter="url(#filter0_f_367_9162)"><path fill="url(#paint2_radial_367_9162)" d="M5.85815 34.1419C7.71533 35.9991 9.92011 37.4723 12.3466 38.4774C14.7731 39.4825 17.3739 39.9998 20.0003 39.9998C22.6267 39.9998 25.2275 39.4825 27.654 38.4774C30.0805 37.4723 32.2853 35.9991 34.1424 34.1419L34.1384 34.1379C37.3919 30.8845 33.6995 21.9172 25.8912 14.1089L20.0003 19.9998L25.8912 25.8907C18.0829 33.699 9.1156 37.3914 5.86214 34.1379L5.85815 34.1419Z"/></g><path fill="url(#paint3_linear_367_9162)" fill-rule="evenodd" d="M5.85795 34.1421C7.71512 35.9993 9.9199 37.4725 12.3464 38.4776C14.7729 39.4827 17.3736 40 20.0001 40C22.6265 40 25.2272 39.4827 27.6538 38.4776C30.0803 37.4725 32.285 35.9993 34.1422 34.1421L34.1381 34.1381C37.3916 30.8846 33.6992 21.9173 25.8909 14.109L19.9999 20L25.8907 25.8908C18.0826 33.6989 9.11545 37.3914 5.86184 34.1382L5.85795 34.1421Z" clip-rule="evenodd"/><g filter="url(#filter1_f_367_9162)"><path fill="url(#paint4_radial_367_9162)" d="M34.1426 5.85786C32.2855 4.00069 30.0807 2.5275 27.6542 1.52241C25.2277 0.517314 22.6269 0 20.0005 0C17.3741 0 14.7733 0.517317 12.3468 1.52241C9.92032 2.52751 7.71554 4.0007 5.85837 5.85787L5.86235 5.86184C2.6089 9.1153 6.30132 18.0826 14.1096 25.8909L20.0005 20L14.1096 14.1091C21.9179 6.30081 30.8852 2.60839 34.1387 5.86184L34.1426 5.85786Z"/></g><path fill="url(#paint5_linear_367_9162)" fill-rule="evenodd" d="M34.1421 5.85786C32.2849 4.00069 30.0801 2.5275 27.6536 1.52241C25.2271 0.517314 22.6264 0 19.9999 0C17.3735 0 14.7728 0.517317 12.3462 1.52241C9.91973 2.52751 7.71495 4.0007 5.85778 5.85787L5.86186 5.86194C2.60841 9.1154 6.30083 18.0827 14.1091 25.891L20.0001 20L14.1093 14.1092C21.9174 6.30106 30.8845 2.60863 34.1382 5.86176L34.1421 5.85786Z" clip-rule="evenodd"/><g style="mix-blend-mode:soft-light"><path fill="url(#paint6_linear_367_9162)" d="M14.1089 25.8907C21.9172 33.699 30.8845 37.3914 34.1379 34.1379C37.3914 30.8845 33.699 21.9172 25.8907 14.1089L14.1089 25.8907Z"/></g><path fill="url(#paint7_linear_367_9162)" d="M25.9006 25.9006C22.6418 29.1594 17.3582 29.1594 14.0994 25.9006C10.8406 22.6418 10.8406 17.3582 14.0994 14.0994C17.3582 10.8406 22.6418 10.8406 25.9006 14.0994C29.1594 17.3582 29.1594 22.6418 25.9006 25.9006Z"/></g></g><defs><filter id="filter0_f_367_9162" width="36.129" height="32.557" x="2.525" y="10.776" color-interpolation-filters="sRGB" filterUnits="userSpaceOnUse"><feFlood flood-opacity="0" result="BackgroundImageFix"/><feBlend in="SourceGraphic" in2="BackgroundImageFix" mode="normal" result="shape"/><feGaussianBlur result="effect1_foregroundBlur_367_9162" stdDeviation="1.667"/></filter><filter id="filter1_f_367_9162" width="36.129" height="32.557" x="1.347" y="-3.333" color-interpolation-filters="sRGB" filterUnits="userSpaceOnUse"><feFlood flood-opacity="0" result="BackgroundImageFix"/><feBlend in="SourceGraphic" in2="BackgroundImageFix" mode="normal" result="shape"/><feGaussianBlur result="effect1_foregroundBlur_367_9162" stdDeviation="1.667"/></filter><linearGradient id="paint0_linear_367_9162" x1="18.842" x2="3.602" y1="30.799" y2="21.79" gradientUnits="userSpaceOnUse"><stop stop-color="#6B1796"/><stop offset=".416" stop-color="#801EAE"/><stop offset="1" stop-color="#8752E0"/></linearGradient><linearGradient id="paint1_linear_367_9162" x1="20.669" x2="32.917" y1="10.979" y2="18.75" gradientUnits="userSpaceOnUse"><stop stop-color="#2253CE"/><stop offset=".658" stop-color="#4A94FC"/><stop offset="1" stop-color="#6BB0FF"/></linearGradient><radialGradient id="paint2_radial_367_9162" cx="0" cy="0" r="1" gradientTransform="translate(21.9518 29.1054) rotate(-42.6722) scale(12.3846 14.093)" gradientUnits="userSpaceOnUse"><stop stop-color="#3D0D59"/><stop offset="1" stop-color="#3D0D59" stop-opacity="0"/></radialGradient><linearGradient id="paint3_linear_367_9162" x1="33.273" x2="14.982" y1="22.038" y2="41.191" gradientUnits="userSpaceOnUse"><stop stop-color="#94CBFF"/><stop offset=".472" stop-color="#C86FEC"/><stop offset="1" stop-color="#A931D8"/></linearGradient><radialGradient id="paint4_radial_367_9162" cx="0" cy="0" r="1" gradientTransform="translate(17.9684 10.8231) rotate(133.859) scale(12.6284 14.3704)" gradientUnits="userSpaceOnUse"><stop stop-color="#122882"/><stop offset="1" stop-color="#1536A2" stop-opacity="0"/></radialGradient><linearGradient id="paint5_linear_367_9162" x1="9.421" x2="31.721" y1="21.473" y2="3.298" gradientUnits="userSpaceOnUse"><stop stop-color="#B74CE1"/><stop offset=".186" stop-color="#7D7DF2"/><stop offset=".337" stop-color="#4A94FC"/><stop offset=".706" stop-color="#3DCBFF"/><stop offset="1" stop-color="#ABEEFF"/></linearGradient><linearGradient id="paint6_linear_367_9162" x1="20.851" x2="33.683" y1="31.866" y2="28.139" gradientUnits="userSpaceOnUse"><stop stop-color="#F7ADFA"/><stop offset="1" stop-color="#F7ADFA" stop-opacity="0"/></linearGradient><linearGradient id="paint7_linear_367_9162" x1="21.079" x2="17.113" y1="11.655" y2="29.483" gradientUnits="userSpaceOnUse"><stop stop-color="#122882"/><stop offset=".518" stop-color="#491D9F"/><stop offset="1" stop-color="#801EAE"/></linearGradient><clipPath id="clip0_367_9162"><rect width="40" height="40" fill="#fff"/></clipPath></defs></svg>