<svg xmlns="http://www.w3.org/2000/svg" viewBox="0 0 2048 2048" width="15" height="15">
  <path fill="currentColor" d="M2048 512v256h-128V512h-704q-56 0-90 9t-58 24-41 31-37 31-50 23-76 10H128v896h128v128H128q-27 0-50-10t-40-27-28-41-10-50V256q0-27 10-50t27-40 41-28 50-10h736q37 0 69 13t58 36 49 51 39 59q13 23 25 41t28 30 35 19 49 7h704q27 0 50 10t40 27 28 41 10 50zm-1184 0q27 0 45-9t35-22 34-28 39-28q-15-17-31-45t-36-56-40-48-46-20H128v256h736zM384 896h1664v1152H384V896zm1536 1024v-896H512v896h1408zm-128-768v128h-384v-128h384zm-128 256v128h-256v-128h256zm0 256v128h-256v-128h256zm-384-512v640H640v-640h640zm-128 512v-384H768v384h384z" />
</svg>