<svg xmlns="http://www.w3.org/2000/svg" width="16" height="16" fill="none" viewBox="0 0 16 16"><g clip-path="url(#clip0_1887_18142)"><rect width="3.75" height="1.25" y="4.5" fill="url(#paint0_linear_1887_18142)"/><rect width="3.75" height="1.25" y="6.75" fill="url(#paint1_linear_1887_18142)"/><rect width="3.75" height="1.25" y="9" fill="url(#paint2_linear_1887_18142)"/><rect width="3.75" height="1.25" y="11.25" fill="url(#paint3_linear_1887_18142)"/><path fill="url(#paint4_linear_1887_18142)" d="M2.62973 4.60404C2.69939 4.25294 3.00745 4 3.36539 4H14.1219C14.5947 4 14.9495 4.43219 14.8575 4.89596L13.3694 12.396C13.2998 12.7471 12.9917 13 12.6338 13H1.8773C1.40448 13 1.04962 12.5678 1.14164 12.104L2.62973 4.60404Z"/><path fill="url(#paint5_linear_1887_18142)" d="M3.31 5.05188C3.34489 4.87639 3.49889 4.75 3.67781 4.75H13.6685C13.905 4.75 14.0824 4.9662 14.0363 5.19812L12.6943 11.9481C12.6594 12.1236 12.5054 12.25 12.3265 12.25H2.3358C2.09933 12.25 1.92189 12.0338 1.968 11.8019L3.31 5.05188Z" opacity=".8"/><path fill="url(#paint6_linear_1887_18142)" fill-rule="evenodd" d="M3.6776 4.75C3.49869 4.75 3.34469 4.87639 3.3098 5.05188L1.9678 11.8019C1.96623 11.8097 1.96492 11.8176 1.96387 11.8254L3.26085 5.30188C3.29574 5.12639 3.44974 5 3.62865 5H13.6194C13.8478 5 14.0212 5.20177 13.9911 5.42457L14.0361 5.19812C14.0822 4.9662 13.9048 4.75 13.6683 4.75H3.6776Z" clip-rule="evenodd" opacity=".8"/><g filter="url(#filter0_dd_1887_18142)"><path fill="url(#paint7_linear_1887_18142)" d="M4.47597 6.85475C4.54535 6.50332 4.85356 6.25 5.21178 6.25L11.3792 6.25C11.8517 6.25 12.2065 6.68168 12.115 7.14525L11.5227 10.1453C11.4534 10.4967 11.1452 10.75 10.7869 10.75H4.61956C4.14704 10.75 3.79225 10.3183 3.88376 9.85475L4.47597 6.85475Z"/></g><path fill="#fff" d="M5.14006 7.30488C5.17373 7.12799 5.32838 7 5.50844 7H10.912C11.1472 7 11.3243 7.21405 11.2804 7.44512L11.0424 8.69512C11.0087 8.87201 10.8541 9 10.674 9H5.2705C5.03528 9 4.85813 8.78595 4.90211 8.55488L5.14006 7.30488Z"/></g><defs><filter id="filter0_dd_1887_18142" width="9.261" height="5.5" x="3.369" y="5.75" color-interpolation-filters="sRGB" filterUnits="userSpaceOnUse"><feFlood flood-opacity="0" result="BackgroundImageFix"/><feColorMatrix in="SourceAlpha" result="hardAlpha" type="matrix" values="0 0 0 0 0 0 0 0 0 0 0 0 0 0 0 0 0 0 127 0"/><feOffset/><feGaussianBlur stdDeviation=".083"/><feColorMatrix type="matrix" values="0 0 0 0 0 0 0 0 0 0 0 0 0 0 0 0 0 0 0.1 0"/><feBlend in2="BackgroundImageFix" mode="normal" result="effect1_dropShadow_1887_18142"/><feColorMatrix in="SourceAlpha" result="hardAlpha" type="matrix" values="0 0 0 0 0 0 0 0 0 0 0 0 0 0 0 0 0 0 127 0"/><feOffset/><feGaussianBlur stdDeviation=".25"/><feColorMatrix type="matrix" values="0 0 0 0 0 0 0 0 0 0 0 0 0 0 0 0 0 0 0.2 0"/><feBlend in2="effect1_dropShadow_1887_18142" mode="normal" result="effect2_dropShadow_1887_18142"/><feBlend in="SourceGraphic" in2="effect2_dropShadow_1887_18142" mode="normal" result="shape"/></filter><linearGradient id="paint0_linear_1887_18142" x1="3.75" x2="0" y1="5.393" y2="5.393" gradientUnits="userSpaceOnUse"><stop stop-color="#28AFEA" stop-opacity=".8"/><stop offset="1" stop-color="#28AFEA" stop-opacity="0"/></linearGradient><linearGradient id="paint1_linear_1887_18142" x1="3.75" x2="0" y1="7.643" y2="7.643" gradientUnits="userSpaceOnUse"><stop stop-color="#28AFEA" stop-opacity=".8"/><stop offset="1" stop-color="#28AFEA" stop-opacity="0"/></linearGradient><linearGradient id="paint2_linear_1887_18142" x1="3.75" x2="0" y1="9.893" y2="9.893" gradientUnits="userSpaceOnUse"><stop stop-color="#28AFEA" stop-opacity=".8"/><stop offset="1" stop-color="#28AFEA" stop-opacity="0"/></linearGradient><linearGradient id="paint3_linear_1887_18142" x1="3.75" x2="0" y1="12.143" y2="12.143" gradientUnits="userSpaceOnUse"><stop stop-color="#28AFEA" stop-opacity=".8"/><stop offset="1" stop-color="#28AFEA" stop-opacity="0"/></linearGradient><linearGradient id="paint4_linear_1887_18142" x1="5.446" x2="7.332" y1="4" y2="13.493" gradientUnits="userSpaceOnUse"><stop stop-color="#3CCBF4"/><stop offset="1" stop-color="#1493DF"/></linearGradient><linearGradient id="paint5_linear_1887_18142" x1="4.414" x2="7.743" y1="4.75" y2="12.255" gradientUnits="userSpaceOnUse"><stop stop-color="#fff"/><stop offset="1" stop-color="#E8F4FF"/></linearGradient><linearGradient id="paint6_linear_1887_18142" x1="4.414" x2="7.742" y1="4.75" y2="12.255" gradientUnits="userSpaceOnUse"><stop stop-color="#fff"/><stop offset="1" stop-color="#E8F4FF"/></linearGradient><linearGradient id="paint7_linear_1887_18142" x1="6.442" x2="7.224" y1="6.25" y2="11.056" gradientUnits="userSpaceOnUse"><stop stop-color="#3CCBF4"/><stop offset="1" stop-color="#1493DF"/></linearGradient><clipPath id="clip0_1887_18142"><rect width="16" height="16" fill="#fff"/></clipPath></defs></svg>