<svg width="16" height="17" viewBox="0 0 16 17" fill="none" xmlns="http://www.w3.org/2000/svg">
<path d="M13.3333 17H2.66667C2.29848 17 2 16.7015 2 16.3333V1.66667C2 1.29848 2.29848 1 2.66667 1H13.3333C13.7015 1 14 1.29848 14 1.66667V16.3333C14 16.7015 13.7015 17 13.3333 17Z" fill="url(#paint0_linear_1825_17892)"/>
<g filter="url(#filter0_dd_1825_17892)">
<path d="M12.333 2.33398H3.66634C3.48224 2.33398 3.33301 2.48322 3.33301 2.66732V4.66732C3.33301 4.85141 3.48224 5.00065 3.66634 5.00065H12.333C12.5171 5.00065 12.6663 4.85141 12.6663 4.66732V2.66732C12.6663 2.48322 12.5171 2.33398 12.333 2.33398Z" fill="url(#paint1_linear_1825_17892)"/>
</g>
<path d="M5.66634 9.00065H3.66634C3.48224 9.00065 3.33301 8.85141 3.33301 8.66732V6.66732C3.33301 6.48322 3.48224 6.33398 3.66634 6.33398H5.66634C5.85044 6.33398 5.99967 6.48322 5.99967 6.66732V8.66732C5.99967 8.85141 5.85044 9.00065 5.66634 9.00065Z" fill="#CAD2D9"/>
<path d="M9.00033 9.00065H7.00033C6.81623 9.00065 6.66699 8.85141 6.66699 8.66732V6.66732C6.66699 6.48322 6.81623 6.33398 7.00033 6.33398H9.00033C9.18442 6.33398 9.33366 6.48322 9.33366 6.66732V8.66732C9.33366 8.85141 9.18443 9.00065 9.00033 9.00065Z" fill="#CAD2D9"/>
<path d="M12.3333 9.00065H10.3333C10.1492 9.00065 10 8.85141 10 8.66732V6.66732C10 6.48322 10.1492 6.33398 10.3333 6.33398H12.3333C12.5174 6.33398 12.6667 6.48322 12.6667 6.66732V8.66732C12.6667 8.85141 12.5174 9.00065 12.3333 9.00065Z" fill="#CAD2D9"/>
<path d="M5.66634 12.3327H3.66634C3.48224 12.3327 3.33301 12.1834 3.33301 11.9993V9.99935C3.33301 9.81526 3.48224 9.66602 3.66634 9.66602H5.66634C5.85044 9.66602 5.99967 9.81526 5.99967 9.99935V11.9993C5.99967 12.1834 5.85044 12.3327 5.66634 12.3327Z" fill="#CAD2D9"/>
<path d="M9.00033 12.3327H7.00033C6.81623 12.3327 6.66699 12.1834 6.66699 11.9993V9.99935C6.66699 9.81526 6.81623 9.66602 7.00033 9.66602H9.00033C9.18442 9.66602 9.33366 9.81526 9.33366 9.99935V11.9993C9.33366 12.1834 9.18443 12.3327 9.00033 12.3327Z" fill="#CAD2D9"/>
<path d="M12.3333 15.666H10.3333C10.1492 15.666 10 15.5168 10 15.3327V9.99935C10 9.81526 10.1492 9.66602 10.3333 9.66602H12.3333C12.5174 9.66602 12.6667 9.81526 12.6667 9.99935V15.3327C12.6667 15.5168 12.5174 15.666 12.3333 15.666Z" fill="url(#paint2_linear_1825_17892)"/>
<path d="M5.66634 15.6667H3.66634C3.48224 15.6667 3.33301 15.5174 3.33301 15.3333V13.3333C3.33301 13.1492 3.48224 13 3.66634 13H5.66634C5.85044 13 5.99967 13.1492 5.99967 13.3333V15.3333C5.99967 15.5174 5.85044 15.6667 5.66634 15.6667Z" fill="#CAD2D9"/>
<path d="M9.00033 15.6667H7.00033C6.81623 15.6667 6.66699 15.5174 6.66699 15.3333V13.3333C6.66699 13.1492 6.81623 13 7.00033 13H9.00033C9.18442 13 9.33366 13.1492 9.33366 13.3333V15.3333C9.33366 15.5174 9.18443 15.6667 9.00033 15.6667Z" fill="#CAD2D9"/>
<defs>
<filter id="filter0_dd_1825_17892" x="0.333008" y="0.333984" width="15.333" height="8.66602" filterUnits="userSpaceOnUse" color-interpolation-filters="sRGB">
<feFlood flood-opacity="0" result="BackgroundImageFix"/>
<feColorMatrix in="SourceAlpha" type="matrix" values="0 0 0 0 0 0 0 0 0 0 0 0 0 0 0 0 0 0 127 0" result="hardAlpha"/>
<feOffset dy="0.5"/>
<feGaussianBlur stdDeviation="0.5"/>
<feColorMatrix type="matrix" values="0 0 0 0 0 0 0 0 0 0 0 0 0 0 0 0 0 0 0.1 0"/>
<feBlend mode="normal" in2="BackgroundImageFix" result="effect1_dropShadow_1825_17892"/>
<feColorMatrix in="SourceAlpha" type="matrix" values="0 0 0 0 0 0 0 0 0 0 0 0 0 0 0 0 0 0 127 0" result="hardAlpha"/>
<feOffset dy="1"/>
<feGaussianBlur stdDeviation="1.5"/>
<feColorMatrix type="matrix" values="0 0 0 0 0 0 0 0 0 0 0 0 0 0 0 0 0 0 0.2 0"/>
<feBlend mode="normal" in2="effect1_dropShadow_1825_17892" result="effect2_dropShadow_1825_17892"/>
<feBlend mode="normal" in="SourceGraphic" in2="effect2_dropShadow_1825_17892" result="shape"/>
</filter>
<linearGradient id="paint0_linear_1825_17892" x1="12.8421" y1="17.3868" x2="3.15785" y2="0.613153" gradientUnits="userSpaceOnUse">
<stop stop-color="#626F7A"/>
<stop offset="1" stop-color="#8B9299"/>
</linearGradient>
<linearGradient id="paint1_linear_1825_17892" x1="9.68271" y1="6.58243" x2="6.31664" y2="0.752205" gradientUnits="userSpaceOnUse">
<stop stop-color="#28AFEA"/>
<stop offset="0.37387" stop-color="#3CCAF4"/>
<stop offset="0.74949" stop-color="#4BDFFC"/>
<stop offset="1" stop-color="#50E6FF"/>
</linearGradient>
<linearGradient id="paint2_linear_1825_17892" x1="12.9047" y1="15.3878" x2="9.76194" y2="9.94428" gradientUnits="userSpaceOnUse">
<stop stop-color="#173A73"/>
<stop offset="0.55519" stop-color="#134584"/>
<stop offset="1" stop-color="#114A8B"/>
</linearGradient>
</defs>
</svg>
