<svg width="16" height="16" viewBox="0 0 16 16" fill="none" xmlns="http://www.w3.org/2000/svg">
<path d="M0 4.665C0 4.29773 0.297731 4 0.665 4H3.32533C3.6926 4 3.99033 4.29773 3.99033 4.665V7.99999H0V4.665Z" fill="url(#paint0_linear_1875_18082)"/>
<path d="M5.11801 3.59869C4.86245 3.33492 4.8686 2.9134 5.13175 2.65721L7.04127 0.798149C7.30442 0.54195 7.72492 0.548088 7.98048 0.811859L9.83511 2.72606C10.0907 2.98983 10.0845 3.41135 9.82137 3.66755L7.91186 5.5266C7.64871 5.7828 7.22821 5.77667 6.97264 5.51289L5.11801 3.59869Z" fill="url(#paint1_linear_1875_18082)"/>
<path d="M11.3248 6.96737C11.4366 6.61756 11.8108 6.42509 12.1604 6.53747L14.694 7.35177C15.0437 7.46415 15.2364 7.83883 15.1245 8.18864L14.3114 10.7309C14.1995 11.0807 13.8254 11.2731 13.4757 11.1608L10.9421 10.3465C10.5925 10.2341 10.3997 9.85939 10.5116 9.50958L11.3248 6.96737Z" fill="url(#paint2_linear_1875_18082)"/>
<path d="M11.1783 1.8671C11.0653 1.51765 11.2568 1.14234 11.6061 1.02882L14.137 0.206196C14.4863 0.0926694 14.861 0.283918 14.9741 0.633361L15.7955 3.17288C15.9085 3.52233 15.717 3.89764 15.3677 4.01116L12.8368 4.83379C12.4875 4.94731 12.1128 4.75606 11.9997 4.40662L11.1783 1.8671Z" fill="url(#paint3_linear_1875_18082)"/>
<path d="M0 8H3.99033V12H0V8Z" fill="url(#paint4_linear_1875_18082)"/>
<path d="M3.99023 8H7.31556C7.68283 8 7.98056 8.29773 7.98056 8.665V12H3.99023V8Z" fill="url(#paint5_linear_1875_18082)"/>
<path d="M0 12H3.99033V16H0.664999C0.29773 16 0 15.7023 0 15.335V12Z" fill="url(#paint6_linear_1875_18082)"/>
<path d="M3.99023 12H7.98056V16H3.99023V12Z" fill="url(#paint7_linear_1875_18082)"/>
<path d="M7.98047 12H11.3058C11.6731 12 11.9708 12.2977 11.9708 12.665V15.335C11.9708 15.7023 11.6731 16 11.3058 16H7.98047V12Z" fill="url(#paint8_linear_1875_18082)"/>
<defs>
<linearGradient id="paint0_linear_1875_18082" x1="-0.0906894" y1="3.72727" x2="4.54629" y2="8.62516" gradientUnits="userSpaceOnUse">
<stop stop-color="#26AEE9"/>
<stop offset="1" stop-color="#1EA1E4"/>
</linearGradient>
<linearGradient id="paint1_linear_1875_18082" x1="4.75107" y1="1.09701" x2="9.25021" y2="5.25282" gradientUnits="userSpaceOnUse">
<stop offset="0.0339518" stop-color="#0B589A"/>
<stop offset="1" stop-color="#14518A"/>
</linearGradient>
<linearGradient id="paint2_linear_1875_18082" x1="11.5241" y1="6.04652" x2="14.4446" y2="12.1313" gradientUnits="userSpaceOnUse">
<stop stop-color="#24ACE8"/>
<stop offset="1" stop-color="#1FA3E4"/>
</linearGradient>
<linearGradient id="paint3_linear_1875_18082" x1="10.8034" y1="1.00298" x2="15.638" y2="4.8226" gradientUnits="userSpaceOnUse">
<stop stop-color="#1694DA"/>
<stop offset="1" stop-color="#0067B2"/>
</linearGradient>
<linearGradient id="paint4_linear_1875_18082" x1="-0.0906894" y1="7.72727" x2="4.54629" y2="12.6252" gradientUnits="userSpaceOnUse">
<stop stop-color="#1997DB"/>
<stop offset="1" stop-color="#027BD5"/>
</linearGradient>
<linearGradient id="paint5_linear_1875_18082" x1="3.89954" y1="7.72727" x2="8.53652" y2="12.6252" gradientUnits="userSpaceOnUse">
<stop stop-color="#1EA2E3"/>
<stop offset="1" stop-color="#1790CB"/>
</linearGradient>
<linearGradient id="paint6_linear_1875_18082" x1="-0.0906894" y1="11.7273" x2="4.54629" y2="16.6252" gradientUnits="userSpaceOnUse">
<stop stop-color="#0B599C"/>
<stop offset="1" stop-color="#175086"/>
</linearGradient>
<linearGradient id="paint7_linear_1875_18082" x1="3.89954" y1="11.7273" x2="8.53652" y2="16.6252" gradientUnits="userSpaceOnUse">
<stop stop-color="#057FD5"/>
<stop offset="1" stop-color="#0063AC"/>
</linearGradient>
<linearGradient id="paint8_linear_1875_18082" x1="7.88978" y1="11.7273" x2="12.5268" y2="16.6252" gradientUnits="userSpaceOnUse">
<stop stop-color="#1892CF"/>
<stop offset="1" stop-color="#0071C5"/>
</linearGradient>
</defs>
</svg>
