<svg width="16" height="16" viewBox="0 0 16 16" fill="none" xmlns="http://www.w3.org/2000/svg">
<g clip-path="url(#clip_power_light)">
<path d="M1 2.5C1 1.67157 1.67157 1 2.5 1H13.5C14.3284 1 15 1.67157 15 2.5V13.5C15 14.3284 14.3284 15 13.5 15H2.5C1.67157 15 1 14.3284 1 13.5V2.5Z" fill="url(#paint_tile_power_light)"/>
<g filter="url(#filter_glyph_power_light)">
<path d="M9.25 3.5L5.75 9.25H8.25L7.25 12.75L10.75 6.75H8.5L9.25 3.5Z" fill="white"/>
<path d="M9.25 3.5L5.75 9.25H8.25L7.25 12.75L10.75 6.75H8.5L9.25 3.5Z" fill="url(#paint_bolt_power_light)"/>
</g>
</g>
<defs>
<filter id="filter_glyph_power_light" x="4.75" y="2.5" width="7.25" height="11.25" filterUnits="userSpaceOnUse" color-interpolation-filters="sRGB">
<feFlood flood-opacity="0" result="BackgroundImageFix"/>
<feColorMatrix in="SourceAlpha" type="matrix" values="0 0 0 0 0 0 0 0 0 0 0 0 0 0 0 0 0 0 127 0" result="hardAlpha"/>
<feOffset dy="0.2"/>
<feGaussianBlur stdDeviation="0.25"/>
<feColorMatrix type="matrix" values="0 0 0 0 0 0 0 0 0 0 0 0 0 0 0 0 0 0 0.25 0"/>
<feBlend mode="normal" in2="BackgroundImageFix" result="effect1_dropShadow"/>
<feBlend mode="normal" in="SourceGraphic" in2="effect1_dropShadow" result="shape"/>
</filter>
<linearGradient id="paint_tile_power_light" x1="3" y1="1" x2="12.5" y2="15.5" gradientUnits="userSpaceOnUse">
<stop stop-color="#0669BC"/>
<stop offset="1" stop-color="#243A5F"/>
</linearGradient>
<linearGradient id="paint_bolt_power_light" x1="7.5" y1="3.5" x2="8.5" y2="12.75" gradientUnits="userSpaceOnUse">
<stop stop-color="#FFF4CE"/>
<stop offset="0.45" stop-color="white"/>
<stop offset="1" stop-color="#CFE8FF"/>
</linearGradient>
<clipPath id="clip_power_light">
<rect width="16" height="16" fill="white"/>
</clipPath>
</defs>
</svg>
