<svg width="17" height="16" viewBox="0 0 17 16" fill="none" xmlns="http://www.w3.org/2000/svg">
<path d="M10.7095 0.541777C10.543 0.47519 10.3765 0.541777 10.2767 0.708245C9.81054 1.50729 8.94491 2.03998 7.94611 2.03998C6.9473 2.03998 6.08167 1.50729 5.61556 0.674952C5.51568 0.541778 5.34922 0.475191 5.18275 0.508484C4.31712 0.808126 3.51808 1.27423 2.81891 1.87352C2.68574 1.9734 2.65244 2.17316 2.75232 2.33963C3.21843 3.13867 3.28502 4.17077 2.78562 5.0031C2.28622 5.86874 1.38729 6.33484 0.455073 6.33484C0.288606 6.33484 0.122139 6.46802 0.122139 6.63449C-0.0443288 7.53341 -0.0110333 8.46563 0.155434 9.36455C0.188728 9.53102 0.321903 9.66419 0.521664 9.66419C1.45388 9.66419 2.35281 10.1303 2.85221 10.9959C3.35161 11.8616 3.31832 12.8604 2.85221 13.6594C2.75233 13.7926 2.78562 13.9923 2.91879 14.1255C3.25172 14.4252 3.65125 14.6915 4.05078 14.9246C4.4503 15.1576 4.88311 15.3574 5.31592 15.5238C5.48239 15.5904 5.64885 15.5238 5.74873 15.3574C6.21484 14.5583 7.08047 14.0256 8.07928 14.0256C9.07808 14.0256 9.94371 14.5583 10.4098 15.3907C10.5097 15.5238 10.6762 15.5904 10.8426 15.5571C11.7083 15.2575 12.5073 14.7914 13.2065 14.1921C13.3397 14.0922 13.373 13.8925 13.2731 13.7593C12.807 12.9602 12.7404 11.9282 13.2398 11.0958C13.7392 10.2302 14.6381 9.76407 15.5703 9.76407C15.7368 9.76407 15.9032 9.6309 15.9032 9.46443C16.0697 8.56551 16.0364 7.63329 15.87 6.73437C15.8367 6.5679 15.7035 6.43473 15.5037 6.43473C14.5715 6.43473 13.6726 5.96862 13.1732 5.10299C12.6738 4.23736 12.7071 3.23855 13.1732 2.43951C13.2731 2.30633 13.2398 2.10657 13.1066 1.9734C12.7737 1.67376 12.3741 1.40741 11.9746 1.17435C11.5418 0.874713 11.1423 0.708245 10.7095 0.541777Z" fill="url(#paint0_linear_1825_17920)"/>
<path d="M8.0127 12.166C10.2218 12.166 12.0127 10.3752 12.0127 8.16602C12.0127 5.95688 10.2218 4.16602 8.0127 4.16602C5.80356 4.16602 4.0127 5.95688 4.0127 8.16602C4.0127 10.3752 5.80356 12.166 8.0127 12.166Z" fill="url(#paint1_linear_1825_17920)"/>
<path d="M8.01237 10.8333C9.48513 10.8333 10.679 9.63943 10.679 8.16667C10.679 6.69391 9.48513 5.5 8.01237 5.5C6.53961 5.5 5.3457 6.69391 5.3457 8.16667C5.3457 9.63943 6.53961 10.8333 8.01237 10.8333Z" fill="url(#paint2_linear_1825_17920)"/>
<defs>
<linearGradient id="paint0_linear_1825_17920" x1="11.9746" y1="14.9328" x2="3.98418" y2="1.09299" gradientUnits="userSpaceOnUse">
<stop stop-color="#626F7A"/>
<stop offset="1" stop-color="#8B9299"/>
</linearGradient>
<linearGradient id="paint1_linear_1825_17920" x1="10.013" y1="11.6441" x2="6.01236" y2="4.71475" gradientUnits="userSpaceOnUse">
<stop stop-color="white"/>
<stop offset="1" stop-color="#CCCCCC"/>
</linearGradient>
<linearGradient id="paint2_linear_1825_17920" x1="9.3459" y1="10.4899" x2="6.67884" y2="5.8703" gradientUnits="userSpaceOnUse">
<stop stop-color="#114A8B"/>
<stop offset="1" stop-color="#0669BC"/>
</linearGradient>
</defs>
</svg>
