<svg width="96" height="96" viewBox="0 0 96 96" fill="none" xmlns="http://www.w3.org/2000/svg">
<g clip-path="url(#clip0_4303_1230)">
<g clip-path="url(#clip1_4303_1230)">
<path d="M68.6048 46.5117C69.1572 47.4784 69.1288 48.6715 68.5311 49.6108L47.5311 82.6108C47.1611 83.1921 46.6024 83.6283 45.9488 83.8462L9.94876 95.8462C8.84743 96.2133 7.63315 95.9121 6.83113 95.0728C6.0291 94.2334 5.7833 93.0067 6.20004 91.9232L18.4781 60.0001L42.7686 49.9034L67.059 43.8066L68.6048 46.5117Z" fill="url(#paint0_linear_4303_1230)"/>
<path d="M56.8013 0.488769C57.5681 0.989947 58.0639 1.81404 58.1475 2.72632L60.9281 33.0774L67.059 43.8065L18.4781 60H3.00002C2.01162 60 1.08665 59.5132 0.527081 58.6984C-0.0324852 57.8837 -0.154834 56.8456 0.199979 55.9231L16.3538 13.9231C16.6756 13.0863 17.3548 12.4374 18.2053 12.1539L54.2115 0.153915C55.0806 -0.135737 56.0344 -0.0124095 56.8013 0.488769Z" fill="url(#paint1_linear_4303_1230)"/>
<path fill-rule="evenodd" clip-rule="evenodd" d="M52.3538 1.92306C52.7994 0.764487 53.9125 0 55.1539 0H75C75.9884 0 76.9134 0.486845 77.4729 1.30159C78.0325 2.11634 78.1549 3.15442 77.8001 4.07694L67.0604 32H93C94.225 32 95.327 32.7448 95.7837 33.8815C96.2404 35.0182 95.9602 36.3184 95.0757 37.166L47.0757 83.166C46.0614 84.138 44.5084 84.276 43.3386 83.4979C42.1688 82.7199 41.6957 81.2343 42.2 79.9231L54.4781 48H39C38.0116 48 37.0866 47.5132 36.5271 46.6984C35.9675 45.8837 35.8452 44.8456 36.2 43.9231L52.3538 1.92306Z" fill="url(#paint2_linear_4303_1230)"/>
</g>
</g>
<defs>
<linearGradient id="paint0_linear_4303_1230" x1="29.3743" y1="43.8066" x2="44.9485" y2="96.2016" gradientUnits="userSpaceOnUse">
<stop stop-color="#003E92"/>
<stop offset="0.75" stop-color="#7A41DC"/>
<stop offset="1" stop-color="#0078D4"/>
</linearGradient>
<linearGradient id="paint1_linear_4303_1230" x1="24.8802" y1="3.90205e-07" x2="43.9581" y2="59.4288" gradientUnits="userSpaceOnUse">
<stop stop-color="#0078D4"/>
<stop offset="0.75" stop-color="#7A41DC"/>
<stop offset="1" stop-color="#003E92"/>
</linearGradient>
<linearGradient id="paint2_linear_4303_1230" x1="36" y1="13.5" x2="92.9251" y2="73.4213" gradientUnits="userSpaceOnUse">
<stop stop-color="#4DD2FF"/>
<stop offset="1" stop-color="#24CDB9"/>
</linearGradient>
<clipPath id="clip0_4303_1230">
<rect width="96" height="96" fill="white"/>
</clipPath>
<clipPath id="clip1_4303_1230">
<rect width="96" height="96" fill="white"/>
</clipPath>
</defs>
</svg>
