<svg xmlns="http://www.w3.org/2000/svg" width="24" height="24" fill="none" viewBox="0 0 24 24"><g clip-path="url(#clip0_125_2875)"><g clip-path="url(#clip1_125_2875)"><path fill="url(#paint0_linear_125_2875)" d="M0 5C0 4.44771 0.447715 4 1 4H22C22.5523 4 23 4.44772 23 5V18.5C23 20.9853 20.9853 23 18.5 23H4.5C2.01472 23 0 20.9853 0 18.5V5Z"/><mask id="mask0_125_2875" style="mask-type:alpha" width="23" height="19" x="0" y="4" maskUnits="userSpaceOnUse"><path fill="url(#paint1_linear_125_2875)" d="M0 5C0 4.44771 0.447715 4 1 4H22C22.5523 4 23 4.44772 23 5V18.5C23 20.9853 20.9853 23 18.5 23H4.5C2.01472 23 0 20.9853 0 18.5V5Z"/></mask><g mask="url(#mask0_125_2875)"><g filter="url(#filter0_dd_125_2875)"><path stroke="url(#paint2_linear_125_2875)" stroke-linecap="round" stroke-width="2" d="M6 5V1H17V5"/></g></g><rect width="11" height="11" x="6" y="8" fill="#243A5F" fill-opacity=".5" rx="1"/><g filter="url(#filter1_d_125_2875)"><path fill="#F25022" d="M11 9H7V13H11V9Z"/><path fill="#7FBA00" d="M16 9H12V13H16V9Z"/><path fill="#FFB900" d="M16 14H12V18H16V14Z"/><path fill="#00A4EF" d="M11 14H7V18H11V14Z"/></g><path stroke="url(#paint3_linear_125_2875)" stroke-linecap="round" stroke-width="2" d="M6 5V2C6 1.44772 6.44772 1 7 1H16C16.5523 1 17 1.44772 17 2V5"/><rect width="9" height="2" x="7" fill="url(#paint4_linear_125_2875)"/><mask id="mask1_125_2875" style="mask-type:alpha" width="9" height="2" x="7" y="0" maskUnits="userSpaceOnUse"><rect width="9" height="2" x="7" fill="url(#paint5_linear_125_2875)"/></mask></g></g><defs><filter id="filter0_dd_125_2875" width="16" height="9" x="3.5" y="-1" color-interpolation-filters="sRGB" filterUnits="userSpaceOnUse"><feFlood flood-opacity="0" result="BackgroundImageFix"/><feColorMatrix in="SourceAlpha" result="hardAlpha" type="matrix" values="0 0 0 0 0 0 0 0 0 0 0 0 0 0 0 0 0 0 127 0"/><feOffset dy=".25"/><feGaussianBlur stdDeviation=".25"/><feColorMatrix type="matrix" values="0 0 0 0 0 0 0 0 0 0 0 0 0 0 0 0 0 0 0.1 0"/><feBlend in2="BackgroundImageFix" mode="normal" result="effect1_dropShadow_125_2875"/><feColorMatrix in="SourceAlpha" result="hardAlpha" type="matrix" values="0 0 0 0 0 0 0 0 0 0 0 0 0 0 0 0 0 0 127 0"/><feOffset dy=".5"/><feGaussianBlur stdDeviation=".75"/><feColorMatrix type="matrix" values="0 0 0 0 0 0 0 0 0 0 0 0 0 0 0 0 0 0 0.2 0"/><feBlend in2="effect1_dropShadow_125_2875" mode="normal" result="effect2_dropShadow_125_2875"/><feBlend in="SourceGraphic" in2="effect2_dropShadow_125_2875" mode="normal" result="shape"/></filter><filter id="filter1_d_125_2875" width="11" height="11" x="6" y="8.25" color-interpolation-filters="sRGB" filterUnits="userSpaceOnUse"><feFlood flood-opacity="0" result="BackgroundImageFix"/><feColorMatrix in="SourceAlpha" result="hardAlpha" type="matrix" values="0 0 0 0 0 0 0 0 0 0 0 0 0 0 0 0 0 0 127 0"/><feOffset dy=".25"/><feGaussianBlur stdDeviation=".5"/><feColorMatrix type="matrix" values="0 0 0 0 0 0 0 0 0 0 0 0 0 0 0 0 0 0 0.15 0"/><feBlend in2="BackgroundImageFix" mode="normal" result="effect1_dropShadow_125_2875"/><feBlend in="SourceGraphic" in2="effect1_dropShadow_125_2875" mode="normal" result="shape"/></filter><filter id="filter2_dd_125_2875" width="16" height="8" x="3.5" y="-2.5" color-interpolation-filters="sRGB" filterUnits="userSpaceOnUse"><feFlood flood-opacity="0" result="BackgroundImageFix"/><feColorMatrix in="SourceAlpha" result="hardAlpha" type="matrix" values="0 0 0 0 0 0 0 0 0 0 0 0 0 0 0 0 0 0 127 0"/><feOffset dy="-1"/><feGaussianBlur stdDeviation=".25"/><feColorMatrix type="matrix" values="0 0 0 0 0 0 0 0 0 0 0 0 0 0 0 0 0 0 0.1 0"/><feBlend in2="BackgroundImageFix" mode="normal" result="effect1_dropShadow_125_2875"/><feColorMatrix in="SourceAlpha" result="hardAlpha" type="matrix" values="0 0 0 0 0 0 0 0 0 0 0 0 0 0 0 0 0 0 127 0"/><feOffset dy="-1"/><feGaussianBlur stdDeviation=".75"/><feColorMatrix type="matrix" values="0 0 0 0 0 0 0 0 0 0 0 0 0 0 0 0 0 0 0.2 0"/><feBlend in2="effect1_dropShadow_125_2875" mode="normal" result="effect2_dropShadow_125_2875"/><feBlend in="SourceGraphic" in2="effect2_dropShadow_125_2875" mode="normal" result="shape"/></filter><linearGradient id="paint0_linear_125_2875" x1="11.5" x2="15.494" y1="4" y2="23.743" gradientUnits="userSpaceOnUse"><stop stop-color="#0669BC"/><stop offset="1" stop-color="#243A5F"/></linearGradient><linearGradient id="paint1_linear_125_2875" x1="11.5" x2="15.494" y1="4" y2="23.743" gradientUnits="userSpaceOnUse"><stop stop-color="#0078D4"/><stop offset="1" stop-color="#114A8B"/></linearGradient><linearGradient id="paint2_linear_125_2875" x1="11.5" x2="11.882" y1="1" y2="5.292" gradientUnits="userSpaceOnUse"><stop stop-color="#28AFEA"/><stop offset="1" stop-color="#0078D4"/></linearGradient><linearGradient id="paint3_linear_125_2875" x1="11.5" x2="11.716" y1="1" y2="4.23" gradientUnits="userSpaceOnUse"><stop stop-color="#30DAFF"/><stop offset="1" stop-color="#0094D4"/></linearGradient><linearGradient id="paint4_linear_125_2875" x1="11" x2="11" y1="0" y2="2" gradientUnits="userSpaceOnUse"><stop stop-color="#22BCFF"/><stop offset="1" stop-color="#0088F0"/></linearGradient><linearGradient id="paint5_linear_125_2875" x1="11" x2="11" y1="0" y2="2" gradientUnits="userSpaceOnUse"><stop stop-color="#28AFEA"/><stop offset="1" stop-color="#3CCBF4"/></linearGradient><clipPath id="clip0_125_2875"><rect width="24" height="24" fill="#fff"/></clipPath><clipPath id="clip1_125_2875"><rect width="24" height="24" fill="#fff"/></clipPath></defs></svg>