<svg width="24" height="24" viewBox="0 0 24 24" fill="none" xmlns="http://www.w3.org/2000/svg">
<g clip-path="url(#clip0_125_2968)">
<path d="M3 1.5C3 0.671573 3.67157 0 4.5 0H19.5C20.3284 0 21 0.671573 21 1.5V16.5C21 17.3284 20.3284 18 19.5 18H4.5C3.67157 18 3 17.3284 3 16.5V1.5Z" fill="#9C640A"/>
<mask id="mask0_125_2968" style="mask-type:alpha" maskUnits="userSpaceOnUse" x="3" y="0" width="18" height="18">
<path d="M3 1.5C3 0.671573 3.67157 0 4.5 0H19.5C20.3284 0 21 0.671573 21 1.5V16.5C21 17.3284 20.3284 18 19.5 18H4.5C3.67157 18 3 17.3284 3 16.5V1.5Z" fill="#9C640A"/>
</mask>
<g mask="url(#mask0_125_2968)">
<g filter="url(#filter0_dd_125_2968)">
<path d="M1.5 4.5C1.5 3.67157 2.17157 3 3 3H21C21.8284 3 22.5 3.67157 22.5 4.5V19.5C22.5 20.3284 21.8284 21 21 21H3C2.17157 21 1.5 20.3284 1.5 19.5V4.5Z" fill="#BC822A"/>
</g>
</g>
<path d="M1.5 4.5C1.5 3.67157 2.17157 3 3 3H21C21.8284 3 22.5 3.67157 22.5 4.5V19.5C22.5 20.3284 21.8284 21 21 21H3C2.17157 21 1.5 20.3284 1.5 19.5V4.5Z" fill="#BC822A"/>
<mask id="mask1_125_2968" style="mask-type:alpha" maskUnits="userSpaceOnUse" x="1" y="3" width="22" height="18">
<path d="M1.5 4.5C1.5 3.67157 2.17157 3 3 3H21C21.8284 3 22.5 3.67157 22.5 4.5V19.5C22.5 20.3284 21.8284 21 21 21H3C2.17157 21 1.5 20.3284 1.5 19.5V4.5Z" fill="#BC822A"/>
</mask>
<g mask="url(#mask1_125_2968)">
<g filter="url(#filter1_dd_125_2968)">
<path d="M0 7.5C0 6.67157 0.671573 6 1.5 6H22.5C23.3284 6 24 6.67157 24 7.5V22.5C24 23.3284 23.3284 24 22.5 24H1.5C0.671573 24 0 23.3284 0 22.5V7.5Z" fill="#D9D9D9"/>
<path d="M0 7.5C0 6.67157 0.671573 6 1.5 6H22.5C23.3284 6 24 6.67157 24 7.5V22.5C24 23.3284 23.3284 24 22.5 24H1.5C0.671573 24 0 23.3284 0 22.5V7.5Z" fill="url(#paint0_linear_125_2968)"/>
<path d="M0 7.5C0 6.67157 0.671573 6 1.5 6H22.5C23.3284 6 24 6.67157 24 7.5V22.5C24 23.3284 23.3284 24 22.5 24H1.5C0.671573 24 0 23.3284 0 22.5V7.5Z" fill="url(#paint1_linear_125_2968)"/>
</g>
</g>
<path d="M0 7.5C0 6.67157 0.671573 6 1.5 6H22.5C23.3284 6 24 6.67157 24 7.5V22.5C24 23.3284 23.3284 24 22.5 24H1.5C0.671573 24 0 23.3284 0 22.5V7.5Z" fill="#D9D9D9"/>
<path d="M0 7.5C0 6.67157 0.671573 6 1.5 6H22.5C23.3284 6 24 6.67157 24 7.5V22.5C24 23.3284 23.3284 24 22.5 24H1.5C0.671573 24 0 23.3284 0 22.5V7.5Z" fill="url(#paint2_linear_125_2968)"/>
<path d="M0 7.5C0 6.67157 0.671573 6 1.5 6H22.5C23.3284 6 24 6.67157 24 7.5V22.5C24 23.3284 23.3284 24 22.5 24H1.5C0.671573 24 0 23.3284 0 22.5V7.5Z" fill="url(#paint3_linear_125_2968)"/>
<g filter="url(#filter2_dd_125_2968)">
<path d="M12 9C12.8284 9 13.5 9.67157 13.5 10.5V15.8789L14.6895 14.6895C15.2752 14.1037 16.2248 14.1037 16.8105 14.6895C17.3963 15.2752 17.3963 16.2248 16.8105 16.8105L13.0605 20.5605C12.4748 21.1463 11.5252 21.1463 10.9395 20.5605L7.18945 16.8105C6.60367 16.2248 6.60367 15.2752 7.18945 14.6895C7.77524 14.1037 8.72476 14.1037 9.31055 14.6895L10.5 15.8789V10.5C10.5 9.67157 11.1716 9 12 9Z" fill="url(#paint4_linear_125_2968)"/>
</g>
</g>
<defs>
<filter id="filter0_dd_125_2968" x="0.5" y="1.505" width="23" height="20" filterUnits="userSpaceOnUse" color-interpolation-filters="sRGB">
<feFlood flood-opacity="0" result="BackgroundImageFix"/>
<feColorMatrix in="SourceAlpha" type="matrix" values="0 0 0 0 0 0 0 0 0 0 0 0 0 0 0 0 0 0 127 0" result="hardAlpha"/>
<feOffset dy="-0.495"/>
<feGaussianBlur stdDeviation="0.5"/>
<feColorMatrix type="matrix" values="0 0 0 0 0 0 0 0 0 0 0 0 0 0 0 0 0 0 0.32 0"/>
<feBlend mode="normal" in2="BackgroundImageFix" result="effect1_dropShadow_125_2968"/>
<feColorMatrix in="SourceAlpha" type="matrix" values="0 0 0 0 0 0 0 0 0 0 0 0 0 0 0 0 0 0 127 0" result="hardAlpha"/>
<feOffset dy="-0.105"/>
<feGaussianBlur stdDeviation="0.05"/>
<feColorMatrix type="matrix" values="0 0 0 0 0 0 0 0 0 0 0 0 0 0 0 0 0 0 0.15 0"/>
<feBlend mode="normal" in2="effect1_dropShadow_125_2968" result="effect2_dropShadow_125_2968"/>
<feBlend mode="normal" in="SourceGraphic" in2="effect2_dropShadow_125_2968" result="shape"/>
</filter>
<filter id="filter1_dd_125_2968" x="-1" y="4.505" width="26" height="20" filterUnits="userSpaceOnUse" color-interpolation-filters="sRGB">
<feFlood flood-opacity="0" result="BackgroundImageFix"/>
<feColorMatrix in="SourceAlpha" type="matrix" values="0 0 0 0 0 0 0 0 0 0 0 0 0 0 0 0 0 0 127 0" result="hardAlpha"/>
<feOffset dy="-0.495"/>
<feGaussianBlur stdDeviation="0.5"/>
<feColorMatrix type="matrix" values="0 0 0 0 0 0 0 0 0 0 0 0 0 0 0 0 0 0 0.32 0"/>
<feBlend mode="normal" in2="BackgroundImageFix" result="effect1_dropShadow_125_2968"/>
<feColorMatrix in="SourceAlpha" type="matrix" values="0 0 0 0 0 0 0 0 0 0 0 0 0 0 0 0 0 0 127 0" result="hardAlpha"/>
<feOffset dy="-0.105"/>
<feGaussianBlur stdDeviation="0.05"/>
<feColorMatrix type="matrix" values="0 0 0 0 0 0 0 0 0 0 0 0 0 0 0 0 0 0 0.15 0"/>
<feBlend mode="normal" in2="effect1_dropShadow_125_2968" result="effect2_dropShadow_125_2968"/>
<feBlend mode="normal" in="SourceGraphic" in2="effect2_dropShadow_125_2968" result="shape"/>
</filter>
<filter id="filter2_dd_125_2968" x="5.75" y="8.5" width="12.5" height="14" filterUnits="userSpaceOnUse" color-interpolation-filters="sRGB">
<feFlood flood-opacity="0" result="BackgroundImageFix"/>
<feColorMatrix in="SourceAlpha" type="matrix" values="0 0 0 0 0 0 0 0 0 0 0 0 0 0 0 0 0 0 127 0" result="hardAlpha"/>
<feOffset dy="0.5"/>
<feGaussianBlur stdDeviation="0.5"/>
<feColorMatrix type="matrix" values="0 0 0 0 0 0 0 0 0 0 0 0 0 0 0 0 0 0 0.32 0"/>
<feBlend mode="normal" in2="BackgroundImageFix" result="effect1_dropShadow_125_2968"/>
<feColorMatrix in="SourceAlpha" type="matrix" values="0 0 0 0 0 0 0 0 0 0 0 0 0 0 0 0 0 0 127 0" result="hardAlpha"/>
<feOffset dy="0.1"/>
<feGaussianBlur stdDeviation="0.05"/>
<feColorMatrix type="matrix" values="0 0 0 0 0 0 0 0 0 0 0 0 0 0 0 0 0 0 0.24 0"/>
<feBlend mode="normal" in2="effect1_dropShadow_125_2968" result="effect2_dropShadow_125_2968"/>
<feBlend mode="normal" in="SourceGraphic" in2="effect2_dropShadow_125_2968" result="shape"/>
</filter>
<linearGradient id="paint0_linear_125_2968" x1="0" y1="6" x2="17.28" y2="29.04" gradientUnits="userSpaceOnUse">
<stop stop-color="#DEB678"/>
<stop offset="1" stop-color="#C59141"/>
</linearGradient>
<linearGradient id="paint1_linear_125_2968" x1="6.75" y1="3.75" x2="14.25" y2="26.25" gradientUnits="userSpaceOnUse">
<stop stop-color="#DEB678"/>
<stop offset="1" stop-color="#B57F2D"/>
</linearGradient>
<linearGradient id="paint2_linear_125_2968" x1="0" y1="6" x2="17.28" y2="29.04" gradientUnits="userSpaceOnUse">
<stop stop-color="#DEB678"/>
<stop offset="1" stop-color="#C59141"/>
</linearGradient>
<linearGradient id="paint3_linear_125_2968" x1="6.75" y1="3.75" x2="14.25" y2="26.25" gradientUnits="userSpaceOnUse">
<stop stop-color="#DEB678"/>
<stop offset="1" stop-color="#B57F2D"/>
</linearGradient>
<linearGradient id="paint4_linear_125_2968" x1="9.13631" y1="7.22729" x2="12.8104" y2="20.0865" gradientUnits="userSpaceOnUse">
<stop offset="0.270833" stop-color="white"/>
<stop offset="1" stop-color="#F0F0F0"/>
</linearGradient>
<clipPath id="clip0_125_2968">
<rect width="24" height="24" fill="white"/>
</clipPath>
</defs>
</svg>
