<?xml version="1.0" encoding="UTF-8"?>
<svg width="53px" height="52px" viewBox="0 0 53 52" version="1.1" xmlns="http://www.w3.org/2000/svg" xmlns:xlink="http://www.w3.org/1999/xlink">
	<g id="Artboard" clip-path="url(#clip-Artboard)">
		<g id="_0" data-name="0">
			<rect id="Rectangle" width="29" height="36" rx="4" transform="translate(13 8)" fill="#2582fb"/>
			<g id="bottom">
				<rect id="carat" width="14" height="14" transform="translate(18 39) rotate(-45)" fill="#2582fb"/>
			</g>
			<g id="left">
				<rect id="carat-2" data-name="carat" width="14" height="14" transform="translate(7.899 26) rotate(-45)" fill="#2582fb"/>
			</g>
			<g id="right">
				<rect id="carat-3" data-name="carat" width="14" height="14" transform="translate(26.899 26) rotate(-45)" fill="#2582fb"/>
			</g>
			<g id="top">
				<rect id="carat-4" data-name="carat" width="14" height="14" transform="translate(18 13) rotate(-45)" fill="#2582fb"/>
			</g>
			<path id="A" d="M13.968,15.171a2.7,2.7,0,0,1-2.427-1.251,6.713,6.713,0,0,1-.813-3.644,7.215,7.215,0,0,1,.868-3.9,2.784,2.784,0,0,1,2.481-1.343,2.684,2.684,0,0,1,2.468,1.251,7.283,7.283,0,0,1,.772,3.76,6.981,6.981,0,0,1-.861,3.8A2.79,2.79,0,0,1,13.968,15.171ZM14.05,6.3a1.365,1.365,0,0,0-1.289.981,7.967,7.967,0,0,0-.414,2.943,7.039,7.039,0,0,0,.414,2.758,1.345,1.345,0,0,0,1.268.919,1.323,1.323,0,0,0,1.268-.94,7.716,7.716,0,0,0,.393-2.827A7.991,7.991,0,0,0,15.3,7.258,1.315,1.315,0,0,0,14.05,6.3Z" transform="translate(13.5 15.689)" fill="#fff"/>
		</g>
	</g>
</svg>