<svg xmlns="http://www.w3.org/2000/svg" xmlns:xlink="http://www.w3.org/1999/xlink" width="53" height="52" version="1.1" viewBox="0 0 53 52"><g id="Artboard" clip-path="url(#clip-Artboard)"><g id="_1" data-name="1"><rect id="Rectangle" width="29" height="36" fill="#2582fb" rx="4" transform="translate(13 8)"/><g id="bottom"><rect id="carat" width="14" height="14" fill="#2582fb" transform="translate(18 39) rotate(-45)"/></g><g id="left"><rect id="carat-2" width="14" height="14" fill="#2582fb" data-name="carat" transform="translate(7.899 26) rotate(-45)"/></g><g id="right"><rect id="carat-3" width="14" height="14" fill="#2582fb" data-name="carat" transform="translate(26.899 26) rotate(-45)"/></g><g id="top"><rect id="carat-4" width="14" height="14" fill="#2582fb" data-name="carat" transform="translate(18 13) rotate(-45)"/></g><path id="A" fill="#fff" d="M15.277,15H13.691V7.022a4.525,4.525,0,0,1-.868.482,8.428,8.428,0,0,1-1.08.4l-.437-1.319a8.886,8.886,0,0,0,1.716-.673,7.345,7.345,0,0,0,1.436-.933h.82Z" transform="translate(13.5 15.689)"/></g></g></svg>