<?xml version="1.0" encoding="UTF-8"?>
<svg width="53px" height="52px" viewBox="0 0 53 52" version="1.1" xmlns="http://www.w3.org/2000/svg" xmlns:xlink="http://www.w3.org/1999/xlink">
	<g id="Artboard" clip-path="url(#clip-Artboard)">
		<g id="_2" data-name="2">
			<rect id="Rectangle" width="29" height="36" rx="4" transform="translate(13 8)" fill="#2582fb"/>
			<g id="bottom">
				<rect id="carat" width="14" height="14" transform="translate(18 39) rotate(-45)" fill="#2582fb"/>
			</g>
			<g id="left">
				<rect id="carat-2" data-name="carat" width="14" height="14" transform="translate(7.899 26) rotate(-45)" fill="#2582fb"/>
			</g>
			<g id="right">
				<rect id="carat-3" data-name="carat" width="14" height="14" transform="translate(26.899 26) rotate(-45)" fill="#2582fb"/>
			</g>
			<g id="top">
				<rect id="carat-4" data-name="carat" width="14" height="14" transform="translate(18 13) rotate(-45)" fill="#2582fb"/>
			</g>
			<path id="A" d="M10.974,15v-.6a3.649,3.649,0,0,1,.188-1.217A3.508,3.508,0,0,1,11.7,12.2a5.092,5.092,0,0,1,.827-.851q.485-.4,1.073-.831a7.588,7.588,0,0,0,.824-.66,5.023,5.023,0,0,0,.571-.625,1.98,1.98,0,0,0,.328-.625,2.443,2.443,0,0,0,.109-.742,1.561,1.561,0,0,0-.4-1.1,1.448,1.448,0,0,0-1.121-.431,3.157,3.157,0,0,0-1.135.229,3.742,3.742,0,0,0-1.135.708L10.8,6.291A4.651,4.651,0,0,1,14.1,5.033a2.9,2.9,0,0,1,2.167.786,2.564,2.564,0,0,1,.772,1.859,3.645,3.645,0,0,1-.178,1.2,3.375,3.375,0,0,1-.479.913,4.918,4.918,0,0,1-.728.807,10.746,10.746,0,0,1-.94.745q-.526.369-.909.66a5.2,5.2,0,0,0-.629.55,1.988,1.988,0,0,0-.373.526,1.324,1.324,0,0,0-.12.561h4.553V15Z" transform="translate(13.5 15.689)" fill="#fff"/>
		</g>
	</g>
</svg>