<?xml version="1.0" encoding="UTF-8"?>
<svg width="53px" height="52px" viewBox="0 0 53 52" version="1.1" xmlns="http://www.w3.org/2000/svg" xmlns:xlink="http://www.w3.org/1999/xlink">
	<g id="Artboard" clip-path="url(#clip-Artboard)">
		<g id="_3" data-name="3">
			<rect id="Rectangle" width="29" height="36" rx="4" transform="translate(13 8)" fill="#2582fb"/>
			<g id="bottom">
				<rect id="carat" width="14" height="14" transform="translate(18 39) rotate(-45)" fill="#2582fb"/>
			</g>
			<g id="left">
				<rect id="carat-2" data-name="carat" width="14" height="14" transform="translate(7.899 26) rotate(-45)" fill="#2582fb"/>
			</g>
			<g id="right">
				<rect id="carat-3" data-name="carat" width="14" height="14" transform="translate(26.899 26) rotate(-45)" fill="#2582fb"/>
			</g>
			<g id="top">
				<rect id="carat-4" data-name="carat" width="14" height="14" transform="translate(18 13) rotate(-45)" fill="#2582fb"/>
			</g>
			<path id="A" d="M10.857,14.344l.663-1.094a4.564,4.564,0,0,0,1.036.5,3.6,3.6,0,0,0,1.083.154,2,2,0,0,0,1.446-.461,1.516,1.516,0,0,0,.475-1.131,1.453,1.453,0,0,0-.636-1.3,3.3,3.3,0,0,0-1.832-.424h-.807V9.319h.752a2.827,2.827,0,0,0,1.644-.393,1.435,1.435,0,0,0,.55-1.254,1.3,1.3,0,0,0-.4-1.022A1.477,1.477,0,0,0,13.817,6.3a3.274,3.274,0,0,0-1.008.164,4.127,4.127,0,0,0-1.029.513l-.67-1.053A4.8,4.8,0,0,1,14,5.033a3.1,3.1,0,0,1,2.071.663,2.192,2.192,0,0,1,.786,1.764,2.46,2.46,0,0,1-.455,1.5,2.608,2.608,0,0,1-1.371.9v.027a2.585,2.585,0,0,1,1.555.762,2.2,2.2,0,0,1,.6,1.583,2.679,2.679,0,0,1-.926,2.129,3.629,3.629,0,0,1-2.464.8,5.294,5.294,0,0,1-2.933-.827Z" transform="translate(13.5 15.689)" fill="#fff"/>
		</g>
	</g>
</svg>