<svg xmlns="http://www.w3.org/2000/svg" xmlns:xlink="http://www.w3.org/1999/xlink" width="53" height="52" version="1.1" viewBox="0 0 53 52"><g id="Artboard" clip-path="url(#clip-Artboard)"><g id="_4" data-name="4"><rect id="Rectangle" width="29" height="36" fill="#2582fb" rx="4" transform="translate(13 8)"/><g id="bottom"><rect id="carat" width="14" height="14" fill="#2582fb" transform="translate(18 39) rotate(-45)"/></g><g id="left"><rect id="carat-2" width="14" height="14" fill="#2582fb" data-name="carat" transform="translate(7.899 26) rotate(-45)"/></g><g id="right"><rect id="carat-3" width="14" height="14" fill="#2582fb" data-name="carat" transform="translate(26.899 26) rotate(-45)"/></g><g id="top"><rect id="carat-4" width="14" height="14" fill="#2582fb" data-name="carat" transform="translate(18 13) rotate(-45)"/></g><path id="A" fill="#fff" d="M16.576,5.149v6.405h1.032V12.86H16.576v2.194H14.983V12.86H10.43V11.555q.629-.69,1.275-1.494t1.241-1.637q.595-.834,1.1-1.671a15.328,15.328,0,0,0,.858-1.6Zm-4.532,6.405h2.939v-4.2q-.41.7-.8,1.3t-.752,1.114q-.376.52-.721.957T12.043,11.555Z" transform="translate(13.5 15.689)"/></g></g></svg>