<?xml version="1.0" encoding="UTF-8"?>
<svg width="53px" height="52px" viewBox="0 0 53 52" version="1.1" xmlns="http://www.w3.org/2000/svg" xmlns:xlink="http://www.w3.org/1999/xlink">
	<g id="Artboard" clip-path="url(#clip-Artboard)">
		<g id="_5" data-name="5">
			<rect id="Rectangle" width="29" height="36" rx="4" transform="translate(13 8)" fill="#2582fb"/>
			<g id="bottom">
				<rect id="carat" width="14" height="14" transform="translate(18 39) rotate(-45)" fill="#2582fb"/>
			</g>
			<g id="left">
				<rect id="carat-2" data-name="carat" width="14" height="14" transform="translate(7.899 26) rotate(-45)" fill="#2582fb"/>
			</g>
			<g id="right">
				<rect id="carat-3" data-name="carat" width="14" height="14" transform="translate(26.899 26) rotate(-45)" fill="#2582fb"/>
			</g>
			<g id="top">
				<rect id="carat-4" data-name="carat" width="14" height="14" transform="translate(18 13) rotate(-45)" fill="#2582fb"/>
			</g>
			<path id="A" d="M10.816,14.18l.772-1.012a3.292,3.292,0,0,0,2.1.731,1.913,1.913,0,0,0,1.395-.513,1.753,1.753,0,0,0,.526-1.312,1.613,1.613,0,0,0-.588-1.35,2.748,2.748,0,0,0-1.723-.461q-.39,0-.841.027t-.861.075L11.944,5.2h4.826V6.551H13.223l-.171,2.461q.239-.014.475-.024t.427-.01a3.435,3.435,0,0,1,2.4.79,2.8,2.8,0,0,1,.868,2.177,3.054,3.054,0,0,1-.954,2.328,3.532,3.532,0,0,1-2.526.9,4.532,4.532,0,0,1-2.926-.991Z" transform="translate(13.5 15.689)" fill="#fff"/>
		</g>
	</g>
</svg>