<?xml version="1.0" encoding="UTF-8"?>
<svg width="53px" height="52px" viewBox="0 0 53 52" version="1.1" xmlns="http://www.w3.org/2000/svg" xmlns:xlink="http://www.w3.org/1999/xlink">
	<g id="Artboard" clip-path="url(#clip-Artboard)">
		<g id="_7" data-name="7">
			<rect id="Rectangle" width="29" height="36" rx="4" transform="translate(13 8)" fill="#2582fb"/>
			<g id="bottom">
				<rect id="carat" width="14" height="14" transform="translate(18 39) rotate(-45)" fill="#2582fb"/>
			</g>
			<g id="left">
				<rect id="carat-2" data-name="carat" width="14" height="14" transform="translate(7.899 26) rotate(-45)" fill="#2582fb"/>
			</g>
			<g id="right">
				<rect id="carat-3" data-name="carat" width="14" height="14" transform="translate(26.899 26) rotate(-45)" fill="#2582fb"/>
			</g>
			<g id="top">
				<rect id="carat-4" data-name="carat" width="14" height="14" transform="translate(18 13) rotate(-45)" fill="#2582fb"/>
			</g>
			<path id="A" d="M17.164,6.113A43.443,43.443,0,0,0,15.1,10.4,19.372,19.372,0,0,0,13.869,15h-1.62a18.538,18.538,0,0,1,1.285-4.539,37.232,37.232,0,0,1,1.935-3.91H10.875V5.2h6.289Z" transform="translate(13.5 15.689)" fill="#fff"/>
		</g>
	</g>
</svg>