<svg width="auto" height="auto" viewBox="0 0 357 357" fill="none" xmlns="http://www.w3.org/2000/svg">
<path d="M72.5156 323.531H284.484C287.561 323.531 290.062 321.029 290.062 317.953V100.406H239.859C230.632 100.406 223.125 92.8995 223.125 83.6719V33.4688H72.5156C69.4393 33.4688 66.9375 35.9705 66.9375 39.0469V317.953C66.9375 321.029 69.4393 323.531 72.5156 323.531Z" fill="white"/>
<path d="M284.964 89.25L234.281 38.5685V83.6719C234.281 86.7482 236.783 89.25 239.859 89.25H284.964Z" fill="white"/>
<path opacity="0.64" fill-rule="evenodd" clip-rule="evenodd" d="M301.219 94.8281C301.215 94.0033 301.026 93.1899 300.667 92.4476C299.925 89.5635 298.423 86.9315 296.317 84.8265L238.705 27.2156C235.574 24.0657 231.312 22.3 226.871 22.3124H72.5156C63.288 22.3124 55.7812 29.8192 55.7812 39.0468V317.953C55.7812 327.181 63.288 334.687 72.5156 334.687H284.484C293.712 334.687 301.219 327.181 301.219 317.953V96.6605C301.219 96.2629 301.191 95.8704 301.163 95.4781L301.159 95.4249C301.165 95.3614 301.174 95.2985 301.182 95.2357C301.201 95.1015 301.219 94.9677 301.219 94.8281ZM284.964 89.25H239.859C236.783 89.25 234.281 86.7482 234.281 83.6718V38.5685L284.964 89.25ZM72.5156 323.531H284.484C287.561 323.531 290.062 321.029 290.062 317.953V100.406H239.859C230.632 100.406 223.125 92.8995 223.125 83.6718V33.4687H72.5156C69.4393 33.4687 66.9375 35.9705 66.9375 39.0468V317.953C66.9375 321.029 69.4393 323.531 72.5156 323.531Z" fill="#605E5C"/>
</svg>
