<svg xmlns="http://www.w3.org/2000/svg" width="16" height="16" fill="none" viewBox="0 0 16 16"><g clip-path="url(#clip0_1825_17772)"><path fill="url(#paint0_linear_1825_17772)" d="M7.2002 8H12.8002C13.242 8 13.6002 8.35817 13.6002 8.8V13.6C13.6002 14.0418 13.242 14.4 12.8002 14.4H7.2002V8Z"/><path fill="url(#paint1_linear_1825_17772)" d="M0.799805 8H7.1998V14.4H1.59981C1.15798 14.4 0.799805 14.0418 0.799805 13.6V8Z"/><path fill="url(#paint2_linear_1825_17772)" d="M0.799805 2.39961C0.799805 1.95778 1.15798 1.59961 1.5998 1.59961H6.3998C6.84163 1.59961 7.1998 1.95778 7.1998 2.39961V7.99961H0.799805V2.39961Z"/><rect width="6.4" height="6.4" fill="url(#paint3_linear_1825_17772)" rx=".8" transform="matrix(0.701061 0.713102 -0.701061 0.713102 10.7998 0)"/></g><defs><linearGradient id="paint0_linear_1825_17772" x1="12.569" x2="7.579" y1="15.098" y2="7.744" gradientUnits="userSpaceOnUse"><stop stop-color="#5C6166"/><stop offset="1" stop-color="#8A9299"/></linearGradient><linearGradient id="paint1_linear_1825_17772" x1="6.366" x2="1.984" y1="14.871" y2="7.321" gradientUnits="userSpaceOnUse"><stop stop-color="#2E3133"/><stop offset="1" stop-color="#5C6166"/></linearGradient><linearGradient id="paint2_linear_1825_17772" x1="6.173" x2="2.166" y1="8.597" y2="1.711" gradientUnits="userSpaceOnUse"><stop stop-color="#8A9299"/><stop offset="1" stop-color="#A1AAB3"/></linearGradient><linearGradient id="paint3_linear_1825_17772" x1="6.755" x2="-.056" y1="3.902" y2="3.626" gradientUnits="userSpaceOnUse"><stop stop-color="#0078D4"/><stop offset="1" stop-color="#3CCBF4"/></linearGradient><clipPath id="clip0_1825_17772"><rect width="16" height="16" fill="#fff"/></clipPath></defs></svg>