<?xml version="1.0" encoding="UTF-8"?>
<svg width="53px" height="52px" viewBox="0 0 53 52" version="1.1" xmlns="http://www.w3.org/2000/svg" xmlns:xlink="http://www.w3.org/1999/xlink">
    <!-- Generator: Sketch 54.1 (76490) - https://sketchapp.com -->
    <title>4</title>
    <desc>Created with Sketch.</desc>
    <g id="Devices" stroke="none" stroke-width="1" fill="none" fill-rule="evenodd">
        <g id="Artboard" transform="translate(-247.000000, -159.000000)">
            <g id="4" transform="translate(247.000000, 159.000000)">
                <rect id="Rectangle" fill="#000000" x="7" y="6" width="40" height="40"></rect>
                <g id="left" transform="translate(0.000000, 14.000000)" fill="#000000">
                    <rect id="carat" transform="translate(12.000000, 12.000000) rotate(-314.000000) translate(-12.000000, -12.000000) " x="4" y="4" width="16" height="16"></rect>
                </g>
                <g id="bottom" transform="translate(15.000000, 28.000000)" fill="#000000">
                    <rect id="carat" transform="translate(12.000000, 12.000000) rotate(-314.000000) translate(-12.000000, -12.000000) " x="4" y="4" width="16" height="16"></rect>
                </g>
                <g id="right" transform="translate(29.000000, 14.000000)" fill="#000000">
                    <rect id="carat" transform="translate(12.000000, 12.000000) rotate(-314.000000) translate(-12.000000, -12.000000) " x="4" y="4" width="16" height="16"></rect>
                </g>
                <g id="top" transform="translate(16.000000, 0.000000)" fill="#000000">
                    <rect id="carat" transform="translate(11.311985, 12.000000) rotate(-314.000000) translate(-11.311985, -12.000000) " x="3.31198537" y="4" width="16" height="16"></rect>
                </g>
                <path d="M30.4169922,28.7177734 L29.2412109,28.7177734 L29.2412109,30.8027344 L27.2724609,30.8027344 L27.2724609,28.7177734 L23,28.7177734 L23,27.34375 L27.1152344,21 L29.2412109,21 L29.2412109,27.1796875 L30.4169922,27.1796875 L30.4169922,28.7177734 Z M27.2998047,23.1601562 L27.2587891,23.1601562 C27.1949867,23.3242196 27.071941,23.5794254 26.8896484,23.9257812 L24.7910156,27.1796875 L27.2724609,27.1796875 L27.2724609,24.0966797 C27.2724609,23.8232408 27.2815754,23.5110695 27.2998047,23.1601562 Z" fill="#FFFFFF" fill-rule="nonzero"></path>
            </g>
        </g>
    </g>
</svg>