<?xml version="1.0" encoding="UTF-8"?>
<svg width="53px" height="52px" viewBox="0 0 53 52" version="1.1" xmlns="http://www.w3.org/2000/svg" xmlns:xlink="http://www.w3.org/1999/xlink">
	<g id="Artboard" clip-path="url(#clip-Artboard)">
		<g id="_6" data-name="6">
			<rect id="Rectangle" width="29" height="36" rx="4" transform="translate(13 8)" fill="#2582fb"/>
			<g id="bottom">
				<rect id="carat" width="14" height="14" transform="translate(18 39) rotate(-45)" fill="#2582fb"/>
			</g>
			<g id="left">
				<rect id="carat-2" data-name="carat" width="14" height="14" transform="translate(7.899 26) rotate(-45)" fill="#2582fb"/>
			</g>
			<g id="right">
				<rect id="carat-3" data-name="carat" width="14" height="14" transform="translate(26.899 26) rotate(-45)" fill="#2582fb"/>
			</g>
			<g id="top">
				<rect id="carat-4" data-name="carat" width="14" height="14" transform="translate(18 13) rotate(-45)" fill="#2582fb"/>
			</g>
			<path id="A" d="M17.249,11.849a3.289,3.289,0,0,1-.9,2.4,3.053,3.053,0,0,1-2.283.926A2.824,2.824,0,0,1,11.654,14a5.564,5.564,0,0,1-.865-3.346,10.182,10.182,0,0,1,.236-2.211,5.023,5.023,0,0,1,.837-1.89,3.714,3.714,0,0,1,1.292-1.142,3.851,3.851,0,0,1,1.777-.376,3.546,3.546,0,0,1,1.039.161,3.365,3.365,0,0,1,1.06.571l-.807,1a2.328,2.328,0,0,0-.636-.352,2.2,2.2,0,0,0-.731-.113,2.074,2.074,0,0,0-.995.232,2.535,2.535,0,0,0-.81.731,3.2,3.2,0,0,0-.513,1.094,5.618,5.618,0,0,0-.185,1.436h.034a2.468,2.468,0,0,1,.947-.749,2.885,2.885,0,0,1,1.193-.25,2.5,2.5,0,0,1,1.979.844A3.228,3.228,0,0,1,17.249,11.849Zm-1.545.082a2.094,2.094,0,0,0-.417-1.422,1.413,1.413,0,0,0-1.114-.472,1.652,1.652,0,0,0-1.289.516,1.818,1.818,0,0,0-.468,1.268,2.34,2.34,0,0,0,.461,1.49,1.461,1.461,0,0,0,1.207.588,1.477,1.477,0,0,0,1.179-.513A2.167,2.167,0,0,0,15.7,11.931Z" transform="translate(13.5 15.689)" fill="#fff"/>
		</g>
	</g>
</svg>