<?xml version="1.0" encoding="UTF-8"?>
<svg width="53px" height="52px" viewBox="0 0 53 52" version="1.1" xmlns="http://www.w3.org/2000/svg" xmlns:xlink="http://www.w3.org/1999/xlink">
	<g id="Artboard" clip-path="url(#clip-Artboard)">
		<g id="_8" data-name="8">
			<rect id="Rectangle" width="29" height="36" rx="4" transform="translate(13 8)" fill="#2582fb"/>
			<g id="bottom">
				<rect id="carat" width="14" height="14" transform="translate(18 39) rotate(-45)" fill="#2582fb"/>
			</g>
			<g id="left">
				<rect id="carat-2" data-name="carat" width="14" height="14" transform="translate(7.899 26) rotate(-45)" fill="#2582fb"/>
			</g>
			<g id="right">
				<rect id="carat-3" data-name="carat" width="14" height="14" transform="translate(26.899 26) rotate(-45)" fill="#2582fb"/>
			</g>
			<g id="top">
				<rect id="carat-4" data-name="carat" width="14" height="14" transform="translate(18 13) rotate(-45)" fill="#2582fb"/>
			</g>
			<path id="A" d="M10.728,12.307A2.72,2.72,0,0,1,12.5,9.764a2.918,2.918,0,0,1-1.019-.93,2.225,2.225,0,0,1-.369-1.251,2.323,2.323,0,0,1,.827-1.825,3.059,3.059,0,0,1,2.092-.725,3.069,3.069,0,0,1,2.1.725,2.309,2.309,0,0,1,.827,1.812,2.157,2.157,0,0,1-.383,1.244,3.029,3.029,0,0,1-1.039.93,2.666,2.666,0,0,1,1.319,1.046,2.742,2.742,0,0,1,.458,1.511,2.613,2.613,0,0,1-.909,2.061,3.479,3.479,0,0,1-2.379.8,3.518,3.518,0,0,1-2.382-.793A2.59,2.59,0,0,1,10.728,12.307Zm1.565-.137a1.693,1.693,0,0,0,.482,1.278,1.905,1.905,0,0,0,2.5-.007,1.672,1.672,0,0,0,.5-1.271,1.74,1.74,0,0,0-.479-1.23,1.64,1.64,0,0,0-1.258-.513,1.689,1.689,0,0,0-1.743,1.743Zm.321-4.457a1.415,1.415,0,0,0,.424,1.053,1.423,1.423,0,0,0,2.013,0,1.409,1.409,0,0,0,.427-1.053A1.414,1.414,0,0,0,14.043,6.25a1.362,1.362,0,0,0-1.029.417A1.451,1.451,0,0,0,12.614,7.713Z" transform="translate(13.5 15.689)" fill="#fff"/>
		</g>
	</g>
</svg>