<?xml version="1.0" encoding="UTF-8"?>
<svg width="53px" height="52px" viewBox="0 0 53 52" version="1.1" xmlns="http://www.w3.org/2000/svg" xmlns:xlink="http://www.w3.org/1999/xlink">
    <!-- Generator: Sketch 54.1 (76490) - https://sketchapp.com -->
    <title>9</title>
    <desc>Created with Sketch.</desc>
    <g id="Devices" stroke="none" stroke-width="1" fill="none" fill-rule="evenodd">
        <g id="Artboard" transform="translate(-547.000000, -159.000000)">
            <g id="9" transform="translate(547.000000, 159.000000)">
                <rect id="Rectangle" fill="#000000" x="7" y="6" width="40" height="40"></rect>
                <g id="left" transform="translate(0.000000, 14.000000)" fill="#000000">
                    <rect id="carat" transform="translate(12.000000, 12.000000) rotate(-314.000000) translate(-12.000000, -12.000000) " x="4" y="4" width="16" height="16"></rect>
                </g>
                <g id="bottom" transform="translate(15.000000, 28.000000)" fill="#000000">
                    <rect id="carat" transform="translate(12.000000, 12.000000) rotate(-314.000000) translate(-12.000000, -12.000000) " x="4" y="4" width="16" height="16"></rect>
                </g>
                <g id="right" transform="translate(29.000000, 14.000000)" fill="#000000">
                    <rect id="carat" transform="translate(12.000000, 12.000000) rotate(-314.000000) translate(-12.000000, -12.000000) " x="4" y="4" width="16" height="16"></rect>
                </g>
                <g id="top" transform="translate(16.000000, 0.000000)" fill="#000000">
                    <rect id="carat" transform="translate(11.311985, 12.000000) rotate(-314.000000) translate(-11.311985, -12.000000) " x="3.31198537" y="4" width="16" height="16"></rect>
                </g>
                <path d="M24.5605469,30.7548828 L24.5605469,28.9775391 C25.0755234,29.3147803 25.6953089,29.4833984 26.4199219,29.4833984 C27.1764361,29.4833984 27.7609029,29.2270533 28.1733398,28.7143555 C28.5857768,28.2016576 28.7942708,27.4736375 28.7988281,26.5302734 L28.7578125,26.5166016 C28.3248676,27.1591829 27.6663456,27.4804688 26.7822266,27.4804688 C25.9801392,27.4804688 25.3159206,27.2001981 24.7895508,26.6396484 C24.263181,26.0790988 24,25.352218 24,24.4589844 C24,23.4153594 24.3212858,22.5779654 24.9638672,21.9467773 C25.6064485,21.3155893 26.4381459,21 27.4589844,21 C28.5071667,21 29.342282,21.3964804 29.9643555,22.1894531 C30.5864289,22.9824258 30.8974609,24.1171801 30.8974609,25.59375 C30.8974609,27.3437587 30.5226274,28.705236 29.7729492,29.6782227 C29.023271,30.6512093 27.9762437,31.1376953 26.6318359,31.1376953 C25.8343059,31.1376953 25.1438831,31.0100924 24.5605469,30.7548828 Z M27.3974609,22.6474609 C27.0237612,22.6474609 26.716147,22.7989894 26.4746094,23.1020508 C26.2330717,23.4051122 26.1123047,23.795896 26.1123047,24.2744141 C26.1123047,24.7711613 26.2319324,25.1619452 26.4711914,25.4467773 C26.7104504,25.7316095 27.0351542,25.8740234 27.4453125,25.8740234 C27.8190123,25.8740234 28.1243478,25.7384454 28.3613281,25.4672852 C28.5983085,25.1961249 28.7167969,24.8554708 28.7167969,24.4453125 C28.7167969,23.930336 28.5926119,23.5019548 28.3442383,23.1601562 C28.0958646,22.8183577 27.7802754,22.6474609 27.3974609,22.6474609 Z" fill="#FFFFFF" fill-rule="nonzero"></path>
            </g>
        </g>
    </g>
</svg>