<?xml version="1.0" encoding="UTF-8"?>
<svg width="53px" height="52px" viewBox="0 0 53 52" version="1.1" xmlns="http://www.w3.org/2000/svg" xmlns:xlink="http://www.w3.org/1999/xlink">
	<g id="Artboard" clip-path="url(#clip-Artboard)">
		<g id="_9" data-name="9">
			<rect id="Rectangle" width="29" height="36" rx="4" transform="translate(13 8)" fill="#2582fb"/>
			<g id="bottom">
				<rect id="carat" width="14" height="14" transform="translate(18 39) rotate(-45)" fill="#2582fb"/>
			</g>
			<g id="left">
				<rect id="carat-2" data-name="carat" width="14" height="14" transform="translate(7.899 26) rotate(-45)" fill="#2582fb"/>
			</g>
			<g id="right">
				<rect id="carat-3" data-name="carat" width="14" height="14" transform="translate(26.899 26) rotate(-45)" fill="#2582fb"/>
			</g>
			<g id="top">
				<rect id="carat-4" data-name="carat" width="14" height="14" transform="translate(18 13) rotate(-45)" fill="#2582fb"/>
			</g>
			<path id="A" d="M17.27,9.565a7.426,7.426,0,0,1-.974,4.163,3.4,3.4,0,0,1-3.032,1.442,3.851,3.851,0,0,1-1.336-.222,3.755,3.755,0,0,1-1.159-.7l.827-.978a2.674,2.674,0,0,0,.779.465,2.74,2.74,0,0,0,.957.15,2.071,2.071,0,0,0,1.791-.865,4.586,4.586,0,0,0,.622-2.663l-.034-.007a2.05,2.05,0,0,1-.834.81,2.651,2.651,0,0,1-1.237.27,2.617,2.617,0,0,1-2.017-.854,3.1,3.1,0,0,1-.786-2.187,3.316,3.316,0,0,1,.913-2.427,3.13,3.13,0,0,1,2.334-.93,2.708,2.708,0,0,1,2.348,1.189A5.744,5.744,0,0,1,17.27,9.565Zm-1.6-1.073a2.551,2.551,0,0,0-.465-1.576,1.487,1.487,0,0,0-2.362-.068,2.071,2.071,0,0,0-.461,1.377,2.044,2.044,0,0,0,.461,1.429,1.572,1.572,0,0,0,1.22.506,1.513,1.513,0,0,0,1.148-.485A1.659,1.659,0,0,0,15.67,8.492Z" transform="translate(13.5 15.689)" fill="#fff"/>
		</g>
	</g>
</svg>