<?xml version="1.0" encoding="UTF-8"?>
<svg width="158px" height="39px" viewBox="0 0 158 39" version="1.1" xmlns="http://www.w3.org/2000/svg" xmlns:xlink="http://www.w3.org/1999/xlink">
    <!-- Generator: Sketch 53.2 (72643) - https://sketchapp.com -->
    <title>Group 7</title>
    <desc>Created with Sketch.</desc>
    <g id="Devices" stroke="none" stroke-width="1" fill="none" fill-rule="evenodd">
        <g id="1.1-No-Active-Window" transform="translate(-213.000000, -236.000000)">
            <g id="Group-5" transform="translate(60.000000, 110.000000)">
                <g id="Group-1">
                    <g id="windows_bg">
                        <g id="Group-7" transform="translate(153.000000, 126.000000)">
                            <rect id="Rectangle" fill="#FFFFFF" opacity="0.8" x="0" y="0" width="158" height="39" rx="3"></rect>
                            <path d="M27.4667969,24.1035156 L25.9580078,24.1035156 L20.5527344,15.7319336 C20.4160149,15.5219716 20.3037114,15.3022472 20.2158203,15.0727539 L20.171875,15.0727539 C20.2109377,15.2973644 20.2304687,15.7783166 20.2304687,16.515625 L20.2304687,24.1035156 L19,24.1035156 L19,13.6005859 L20.5966797,13.6005859 L25.8554687,21.840332 C26.0751964,22.1821306 26.2167966,22.4165033 26.2802734,22.543457 L26.3095703,22.543457 C26.2607419,22.2407211 26.2363281,21.7255896 26.2363281,20.9980469 L26.2363281,13.6005859 L27.4667969,13.6005859 L27.4667969,24.1035156 Z M33.3764788,24.2792969 C32.2680749,24.2792969 31.3830739,23.9289586 30.7214495,23.2282715 C30.0598251,22.5275844 29.7290179,21.5986386 29.7290179,20.4414062 C29.7290179,19.1816343 30.0732527,18.1977574 30.7617327,17.4897461 C31.4502127,16.7817347 32.3803792,16.4277344 33.5522601,16.4277344 C34.6704297,16.4277344 35.5432237,16.7719692 36.1706683,17.4604492 C36.7981128,18.1489292 37.1118304,19.1035095 37.1118304,20.3242188 C37.1118304,21.5205138 36.773699,22.4787562 36.0974261,23.1989746 C35.4211532,23.9191931 34.5141798,24.2792969 33.3764788,24.2792969 Z M33.4643695,17.4384766 C32.6928812,17.4384766 32.0825358,17.7009251 31.6333148,18.2258301 C31.1840938,18.750735 30.9594866,19.4746048 30.9594866,20.3974609 C30.9594866,21.2861373 31.1865352,21.9868138 31.640639,22.4995117 C32.0947428,23.0122096 32.7026469,23.2685547 33.4643695,23.2685547 C34.2407405,23.2685547 34.8376584,23.0170924 35.2551409,22.5141602 C35.6726235,22.011228 35.8813616,21.2959031 35.8813616,20.3681641 C35.8813616,19.4306594 35.6726235,18.7080104 35.2551409,18.2001953 C34.8376584,17.6923803 34.2407405,17.4384766 33.4643695,17.4384766 Z M48.8726006,24.1035156 L47.6714287,24.1035156 L47.6714287,22.9316406 L47.6421318,22.9316406 C47.1196683,23.8300826 46.350633,24.2792969 45.3350029,24.2792969 C44.5879289,24.2792969 44.0032179,24.0815449 43.5808525,23.6860352 C43.1584871,23.2905254 42.9473076,22.7656283 42.9473076,22.1113281 C42.9473076,20.7099539 43.7724947,19.8945324 45.4228935,19.6650391 L47.6714287,19.3500977 C47.6714287,18.0756772 47.1562971,17.4384766 46.1260185,17.4384766 C45.2226937,17.4384766 44.4072722,17.7460907 43.6797295,18.3613281 L43.6797295,17.1308594 C44.4170379,16.662107 45.2666387,16.4277344 46.2285576,16.4277344 C47.9912617,16.4277344 48.8726006,17.3603422 48.8726006,19.2255859 L48.8726006,24.1035156 Z M47.6714287,20.3095703 L45.8623467,20.5585938 C45.3057033,20.6367191 44.8857856,20.7746572 44.602581,20.9724121 C44.3193765,21.170167 44.1777764,21.5205053 44.1777764,22.0234375 C44.1777764,22.3896503 44.3083903,22.6887195 44.5696221,22.9206543 C44.8308538,23.1525891 45.1787507,23.2685547 45.6133232,23.2685547 C46.2090293,23.2685547 46.7009678,23.0598165 47.0891533,22.642334 C47.4773388,22.2248514 47.6714287,21.6962923 47.6714287,21.0566406 L47.6714287,20.3095703 Z M56.4302318,23.7592773 C55.854057,24.1059588 55.1704701,24.2792969 54.3794505,24.2792969 C53.3101092,24.2792969 52.4470807,23.9314 51.7903392,23.2355957 C51.1335976,22.5397914 50.8052318,21.6377009 50.8052318,20.5292969 C50.8052318,19.2939391 51.1592321,18.3015174 51.8672435,17.552002 C52.5752548,16.8024865 53.5200696,16.4277344 54.7017161,16.4277344 C55.3608991,16.4277344 55.941948,16.5498035 56.4448802,16.7939453 L56.4448802,18.0244141 C55.8882368,17.6337871 55.2925396,17.4384766 54.6577708,17.4384766 C53.8911654,17.4384766 53.2625096,17.713132 52.7717845,18.2624512 C52.2810594,18.8117703 52.0357005,19.5331987 52.0357005,20.4267578 C52.0357005,21.3056685 52.2664111,21.9990209 52.7278392,22.5068359 C53.1892673,23.014651 53.8081576,23.2685547 54.5845286,23.2685547 C55.2388288,23.2685547 55.854057,23.0512717 56.4302318,22.6166992 L56.4302318,23.7592773 Z M61.9077848,24.0302734 C61.6245803,24.1865242 61.2510489,24.2646484 60.7871793,24.2646484 C59.4736962,24.2646484 58.8169645,23.5322339 58.8169645,22.0673828 L58.8169645,17.6289062 L57.527902,17.6289062 L57.527902,16.6035156 L58.8169645,16.6035156 L58.8169645,14.7724609 L60.0181364,14.3842773 L60.0181364,16.6035156 L61.9077848,16.6035156 L61.9077848,17.6289062 L60.0181364,17.6289062 L60.0181364,21.8549805 C60.0181364,22.3579127 60.1035847,22.7167958 60.274484,22.9316406 C60.4453833,23.1464854 60.7285836,23.2539062 61.1240934,23.2539062 C61.4268293,23.2539062 61.6880572,23.1708993 61.9077848,23.0048828 L61.9077848,24.0302734 Z M64.309166,14.6992188 C64.0943212,14.6992188 63.9112175,14.6259773 63.7598496,14.4794922 C63.6084816,14.3330071 63.5327988,14.1474621 63.5327988,13.9228516 C63.5327988,13.6982411 63.6084816,13.5114754 63.7598496,13.3625488 C63.9112175,13.2136223 64.0943212,13.1391602 64.309166,13.1391602 C64.5288937,13.1391602 64.7156594,13.2136223 64.8694687,13.3625488 C65.0232781,13.5114754 65.1001816,13.6982411 65.1001816,13.9228516 C65.1001816,14.1376964 65.0232781,14.3208 64.8694687,14.472168 C64.7156594,14.6235359 64.5288937,14.6992188 64.309166,14.6992188 Z M64.8951035,24.1035156 L63.6939316,24.1035156 L63.6939316,16.6035156 L64.8951035,16.6035156 L64.8951035,24.1035156 Z M73.4048831,16.6035156 L70.4166019,24.1035156 L69.2374026,24.1035156 L66.3956058,16.6035156 L67.7139651,16.6035156 L69.618262,22.0527344 C69.7598643,22.453127 69.847754,22.8022446 69.8819339,23.1000977 L69.9112308,23.1000977 C69.9600591,22.7241192 70.0381834,22.3847671 70.1456058,22.0820312 L72.1377933,16.6035156 L73.4048831,16.6035156 Z M80.8160299,20.6538086 L75.5206198,20.6538086 C75.5401511,21.4887737 75.7647582,22.1332985 76.1944479,22.5874023 C76.6241375,23.0415062 77.2149519,23.2685547 77.9669088,23.2685547 C78.8116396,23.2685547 79.587999,22.9902372 80.2960104,22.4335938 L80.2960104,23.5615234 C79.6368274,24.0400415 78.7652541,24.2792969 77.6812643,24.2792969 C76.6216887,24.2792969 75.7891775,23.9387241 75.1837057,23.2575684 C74.5782339,22.5764126 74.2755026,21.6181702 74.2755026,20.3828125 C74.2755026,19.2158145 74.6063098,18.2648963 75.2679342,17.5300293 C75.9295586,16.7951623 76.7510836,16.4277344 77.7325338,16.4277344 C78.713984,16.4277344 79.4732538,16.745114 80.0103659,17.3798828 C80.5474779,18.0146516 80.8160299,18.8959905 80.8160299,20.0239258 L80.8160299,20.6538086 Z M79.5855612,19.6357422 C79.5806783,18.9423793 79.4134437,18.402834 79.0838522,18.0170898 C78.7542607,17.6313457 78.2965016,17.4384766 77.7105612,17.4384766 C77.1441521,17.4384766 76.6631999,17.6411113 76.2676901,18.0463867 C75.8721803,18.4516622 75.6280421,18.981442 75.5352682,19.6357422 L79.5855612,19.6357422 Z M96.5538509,16.6035156 L94.3053157,24.1035156 L93.0601985,24.1035156 L91.5147884,18.7348633 C91.4561943,18.5297841 91.4171322,18.2978529 91.3976009,18.0390625 L91.368304,18.0390625 C91.3536555,18.2148446 91.3023865,18.4418931 91.2144954,18.7202148 L89.5372493,24.1035156 L88.3360774,24.1035156 L86.0655696,16.6035156 L87.3253352,16.6035156 L88.8780696,22.2431641 C88.926898,22.4140634 88.9610773,22.6386705 88.9806087,22.9169922 L89.0392024,22.9169922 C89.0538509,22.7021474 89.0977958,22.4726575 89.1710384,22.2285156 L90.899554,16.6035156 L91.9981868,16.6035156 L93.5509212,22.2578125 C93.5997496,22.4384775 93.6363703,22.6630846 93.6607845,22.9316406 L93.7193782,22.9316406 C93.7291439,22.74121 93.7706474,22.5166029 93.8438899,22.2578125 L95.3673274,16.6035156 L96.5538509,16.6035156 Z M98.7428297,14.6992188 C98.5279849,14.6992188 98.3448813,14.6259773 98.1935133,14.4794922 C98.0421454,14.3330071 97.9664625,14.1474621 97.9664625,13.9228516 C97.9664625,13.6982411 98.0421454,13.5114754 98.1935133,13.3625488 C98.3448813,13.2136223 98.5279849,13.1391602 98.7428297,13.1391602 C98.9625574,13.1391602 99.1493231,13.2136223 99.3031324,13.3625488 C99.4569418,13.5114754 99.5338453,13.6982411 99.5338453,13.9228516 C99.5338453,14.1376964 99.4569418,14.3208 99.3031324,14.472168 C99.1493231,14.6235359 98.9625574,14.6992188 98.7428297,14.6992188 Z M99.3287672,24.1035156 L98.1275953,24.1035156 L98.1275953,16.6035156 L99.3287672,16.6035156 L99.3287672,24.1035156 Z M108.168137,24.1035156 L106.966965,24.1035156 L106.966965,19.8261719 C106.966965,18.234367 106.385916,17.4384766 105.223801,17.4384766 C104.623212,17.4384766 104.126391,17.6643044 103.733322,18.1159668 C103.340254,18.5676292 103.143723,19.1376919 103.143723,19.8261719 L103.143723,24.1035156 L101.942551,24.1035156 L101.942551,16.6035156 L103.143723,16.6035156 L103.143723,17.8486328 L103.173019,17.8486328 C103.739429,16.9013625 104.559733,16.4277344 105.633957,16.4277344 C106.454274,16.4277344 107.081709,16.6926243 107.516281,17.2224121 C107.950854,17.7521999 108.168137,18.5175731 108.168137,19.5185547 L108.168137,24.1035156 Z M117.01483,24.1035156 L115.813658,24.1035156 L115.813658,22.8291016 L115.784362,22.8291016 C115.227718,23.7959033 114.368352,24.2792969 113.206237,24.2792969 C112.263849,24.2792969 111.510683,23.9436069 110.946715,23.2722168 C110.382747,22.6008267 110.100768,21.6865292 110.100768,20.5292969 C110.100768,19.2890563 110.413265,18.2954139 111.038268,17.5483398 C111.663271,16.8012658 112.495782,16.4277344 113.535826,16.4277344 C114.566105,16.4277344 115.315609,16.8330038 115.784362,17.6435547 L115.813658,17.6435547 L115.813658,13 L117.01483,13 L117.01483,24.1035156 Z M115.813658,20.7124023 L115.813658,19.6064453 C115.813658,19.0009735 115.613465,18.4882833 115.213073,18.0683594 C114.81268,17.6484354 114.304872,17.4384766 113.689635,17.4384766 C112.95721,17.4384766 112.381043,17.7070286 111.961119,18.2441406 C111.541195,18.7812527 111.331237,19.5234328 111.331237,20.4707031 C111.331237,21.3349653 111.532651,22.0173315 111.935485,22.5178223 C112.338319,23.018313 112.879085,23.2685547 113.557799,23.2685547 C114.226748,23.2685547 114.769955,23.0268579 115.187438,22.543457 C115.60492,22.0600562 115.813658,21.4497107 115.813658,20.7124023 Z M122.76338,24.2792969 C121.654976,24.2792969 120.769975,23.9289586 120.10835,23.2282715 C119.446726,22.5275844 119.115919,21.5986386 119.115919,20.4414062 C119.115919,19.1816343 119.460153,18.1977574 120.148633,17.4897461 C120.837113,16.7817347 121.76728,16.4277344 122.939161,16.4277344 C124.05733,16.4277344 124.930124,16.7719692 125.557569,17.4604492 C126.185014,18.1489292 126.498731,19.1035095 126.498731,20.3242188 C126.498731,21.5205138 126.1606,22.4787562 125.484327,23.1989746 C124.808054,23.9191931 123.901081,24.2792969 122.76338,24.2792969 Z M122.85127,17.4384766 C122.079782,17.4384766 121.469436,17.7009251 121.020215,18.2258301 C120.570994,18.750735 120.346387,19.4746048 120.346387,20.3974609 C120.346387,21.2861373 120.573436,21.9868138 121.02754,22.4995117 C121.481643,23.0122096 122.089548,23.2685547 122.85127,23.2685547 C123.627641,23.2685547 124.224559,23.0170924 124.642042,22.5141602 C125.059524,22.011228 125.268262,21.2959031 125.268262,20.3681641 C125.268262,19.4306594 125.059524,18.7080104 124.642042,18.2001953 C124.224559,17.6923803 123.627641,17.4384766 122.85127,17.4384766 Z M138.048061,16.6035156 L135.799526,24.1035156 L134.554409,24.1035156 L133.008999,18.7348633 C132.950405,18.5297841 132.911343,18.2978529 132.891811,18.0390625 L132.862515,18.0390625 C132.847866,18.2148446 132.796597,18.4418931 132.708706,18.7202148 L131.03146,24.1035156 L129.830288,24.1035156 L127.55978,16.6035156 L128.819546,16.6035156 L130.37228,22.2431641 C130.421109,22.4140634 130.455288,22.6386705 130.474819,22.9169922 L130.533413,22.9169922 C130.548062,22.7021474 130.592006,22.4726575 130.665249,22.2285156 L132.393765,16.6035156 L133.492397,16.6035156 L135.045132,22.2578125 C135.09396,22.4384775 135.130581,22.6630846 135.154995,22.9316406 L135.213589,22.9316406 C135.223354,22.74121 135.264858,22.5166029 135.338101,22.2578125 L136.861538,16.6035156 L138.048061,16.6035156 Z" id="Noactivewindow" fill="#222222" fill-rule="nonzero"></path>
                        </g>
                    </g>
                </g>
            </g>
        </g>
    </g>
</svg>