<?xml version="1.0" encoding="UTF-8"?>
<svg width="158px" height="39px" viewBox="0 0 158 39" version="1.1" xmlns="http://www.w3.org/2000/svg" xmlns:xlink="http://www.w3.org/1999/xlink">
	<g id="no_active_window" clip-path="url(#clip-no_active_window)">
		<path id="Windowcontrols" d="M38.468,13H36.938L33.007,6.941q-.117-.176-.2-.325t-.141-.278h-.029q.023.176.035.486t.012.762V13H31.337V4.6H32.96l3.814,5.924q.123.188.217.343t.158.278h.023a3.785,3.785,0,0,1-.041-.469q-.012-.3-.012-.732V4.6h1.348Zm4.588.141a2.977,2.977,0,0,1-2.229-.841A3.081,3.081,0,0,1,40,10.047a3.176,3.176,0,0,1,.855-2.341,3.134,3.134,0,0,1,2.314-.847,2.881,2.881,0,0,1,2.206.829,3.143,3.143,0,0,1,.794,2.259,3.2,3.2,0,0,1-.841,2.329A3.029,3.029,0,0,1,43.056,13.141Zm.064-1.084a1.49,1.49,0,0,0,1.239-.533,2.426,2.426,0,0,0,.425-1.541,2.342,2.342,0,0,0-.428-1.518,1.514,1.514,0,0,0-1.242-.521,1.557,1.557,0,0,0-1.263.551,2.307,2.307,0,0,0-.46,1.523,2.243,2.243,0,0,0,.457,1.509A1.589,1.589,0,0,0,43.12,12.057ZM55.437,13H54.118v-.9h-.023a2.1,2.1,0,0,1-.756.782,2.035,2.035,0,0,1-1.037.261,1.952,1.952,0,0,1-1.354-.483,1.685,1.685,0,0,1-.539-1.321,1.728,1.728,0,0,1,.539-1.31,2.856,2.856,0,0,1,1.6-.665l1.576-.211V9.027a1.115,1.115,0,0,0-.316-.885,1.258,1.258,0,0,0-.855-.275,2.662,2.662,0,0,0-.87.152,3,3,0,0,0-.858.475l-.592-.814a3.768,3.768,0,0,1,2.426-.82,2.418,2.418,0,0,1,1.793.595,2.446,2.446,0,0,1,.586,1.784Zm-1.312-2.437v-.51l-1.283.17a1.778,1.778,0,0,0-.853.308.791.791,0,0,0-.284.659.882.882,0,0,0,.27.686.986.986,0,0,0,.691.246,1.358,1.358,0,0,0,1.061-.442A1.605,1.605,0,0,0,54.124,10.563Zm7.488,2.068a3.49,3.49,0,0,1-.885.39,3.613,3.613,0,0,1-.955.12,3.032,3.032,0,0,1-2.212-.809,2.928,2.928,0,0,1-.829-2.2A3.291,3.291,0,0,1,57.59,7.75a3.068,3.068,0,0,1,2.317-.891,3.707,3.707,0,0,1,.929.108,3.518,3.518,0,0,1,.853.354l-.533.949a2.649,2.649,0,0,0-.6-.249,2.445,2.445,0,0,0-.639-.079,1.627,1.627,0,0,0-1.33.568,2.292,2.292,0,0,0-.469,1.506,2.1,2.1,0,0,0,.507,1.512,1.693,1.693,0,0,0,1.274.527,2.038,2.038,0,0,0,.539-.085,2.486,2.486,0,0,0,.615-.272Zm4.418.287a2.635,2.635,0,0,1-.551.164,3.406,3.406,0,0,1-.615.053,1.746,1.746,0,0,1-1.28-.442,1.779,1.779,0,0,1-.448-1.321v-3.3H62.128V7h1.008V5.541l1.359-.41V7h1.436V8.066H64.5V11.26a.989.989,0,0,0,.161.633.615.615,0,0,0,.5.193,1.265,1.265,0,0,0,.313-.038,1.33,1.33,0,0,0,.267-.1ZM67.788,5.84a.853.853,0,0,1-.621-.24.842.842,0,0,1,0-1.189.948.948,0,0,1,1.248,0,.845.845,0,0,1,0,1.192A.866.866,0,0,1,67.788,5.84ZM68.462,13H67.1V7h1.365ZM75.4,7l-2.32,6H71.608L69.4,7h1.477l1.307,4.061q.082.275.135.51a3.315,3.315,0,0,1,.07.434h.023a3.644,3.644,0,0,1,.076-.448q.053-.226.129-.466L73.97,7Zm5.906,3.357h-4.1a1.829,1.829,0,0,0,.492,1.292,1.76,1.76,0,0,0,1.277.442,2.571,2.571,0,0,0,.762-.135,2.99,2.99,0,0,0,.844-.434l.615.85a3.963,3.963,0,0,1-1.131.586,4.18,4.18,0,0,1-1.266.182,2.891,2.891,0,0,1-2.18-.806,3.125,3.125,0,0,1-.785-2.253,3.343,3.343,0,0,1,.806-2.332,2.66,2.66,0,0,1,2.065-.891,2.449,2.449,0,0,1,1.9.759,3.067,3.067,0,0,1,.694,2.147Zm-1.318-.943a1.737,1.737,0,0,0-.337-1.163,1.191,1.191,0,0,0-.952-.39,1.326,1.326,0,0,0-.987.419,1.935,1.935,0,0,0-.5,1.134ZM93.968,7,92.2,13H90.78L89.7,9.051a2.152,2.152,0,0,1-.064-.319q-.018-.149-.029-.325h-.029a2.429,2.429,0,0,1-.041.331q-.029.144-.076.3L88.29,13H86.9L85.132,7h1.406l1.055,4.242q.029.117.053.267t.035.331h.041a3.186,3.186,0,0,1,.038-.316,3.014,3.014,0,0,1,.067-.3L89.052,7h1.277l1.1,4.248a2.361,2.361,0,0,1,.044.243q.021.149.044.36h.041q.012-.141.035-.293a3.141,3.141,0,0,1,.064-.311L92.673,7Zm1.7-1.16a.853.853,0,0,1-.621-.24.842.842,0,0,1,0-1.189.948.948,0,0,1,1.248,0,.845.845,0,0,1,0,1.192A.866.866,0,0,1,95.667,5.84ZM96.341,13H94.976V7h1.365Zm7.119,0H102.1V9.619a2.133,2.133,0,0,0-.3-1.257,1.057,1.057,0,0,0-.914-.419,1.273,1.273,0,0,0-1.008.463,1.732,1.732,0,0,0-.4,1.172V13H98.11V7h1.365v.973h.018a2.334,2.334,0,0,1,.826-.835,2.237,2.237,0,0,1,1.131-.278,1.822,1.822,0,0,1,1.5.627,2.86,2.86,0,0,1,.513,1.846Zm5.725-.932a2.132,2.132,0,0,1-.814.806,2.388,2.388,0,0,1-1.154.267,2.259,2.259,0,0,1-1.808-.8,3.281,3.281,0,0,1-.683-2.2,3.586,3.586,0,0,1,.753-2.385,2.469,2.469,0,0,1,1.989-.9,2.185,2.185,0,0,1,1.031.226,1.683,1.683,0,0,1,.686.683h.023V4.117h1.365V13h-1.365v-.932Zm-3.07-1.98a2.263,2.263,0,0,0,.416,1.447,1.369,1.369,0,0,0,1.131.521,1.4,1.4,0,0,0,1.131-.521,2.029,2.029,0,0,0,.434-1.342V9.508a1.578,1.578,0,0,0-.416-1.116,1.39,1.39,0,0,0-1.066-.448,1.418,1.418,0,0,0-1.2.571A2.547,2.547,0,0,0,106.114,10.088Zm8.895,3.053a2.977,2.977,0,0,1-2.229-.841,3.081,3.081,0,0,1-.823-2.253,3.176,3.176,0,0,1,.855-2.341,3.134,3.134,0,0,1,2.314-.847,2.881,2.881,0,0,1,2.206.829,3.143,3.143,0,0,1,.794,2.259,3.2,3.2,0,0,1-.841,2.329A3.029,3.029,0,0,1,115.009,13.141Zm.064-1.084a1.49,1.49,0,0,0,1.239-.533,2.426,2.426,0,0,0,.425-1.541,2.342,2.342,0,0,0-.428-1.518,1.514,1.514,0,0,0-1.242-.521,1.557,1.557,0,0,0-1.263.551,2.307,2.307,0,0,0-.46,1.523,2.243,2.243,0,0,0,.457,1.509A1.589,1.589,0,0,0,115.073,12.057ZM127.577,7l-1.764,6H124.39l-1.084-3.949a2.152,2.152,0,0,1-.064-.319q-.018-.149-.029-.325h-.029a2.429,2.429,0,0,1-.041.331q-.029.144-.076.3L121.9,13H120.5l-1.764-6h1.406l1.055,4.242q.029.117.053.267t.035.331h.041a3.186,3.186,0,0,1,.038-.316,3.014,3.014,0,0,1,.067-.3L122.661,7h1.277l1.1,4.248a2.361,2.361,0,0,1,.044.243q.021.149.044.36h.041q.012-.141.035-.293a3.141,3.141,0,0,1,.064-.311L126.282,7Z" transform="translate(0 10)" fill="#fff"/>
	</g>
</svg>