<svg width="17" height="16" viewBox="0 0 17 16" fill="none" xmlns="http://www.w3.org/2000/svg">
<path d="M6.05607 1.09062H10.3957L5.89074 14.4385C5.84444 14.5756 5.75629 14.6948 5.6387 14.7792C5.52111 14.8637 5.38 14.9091 5.23524 14.9091H1.85791C1.74822 14.9091 1.64011 14.883 1.54252 14.833C1.44493 14.7829 1.36066 14.7103 1.29669 14.6212C1.23271 14.5322 1.19087 14.4291 1.17462 14.3206C1.15837 14.2122 1.16818 14.1014 1.20324 13.9975L5.40041 1.56129C5.44669 1.42407 5.53485 1.30483 5.65248 1.22037C5.7701 1.1359 5.91126 1.09063 6.05607 1.09062Z" fill="url(#paint0_linear_2092_1811)"/>
<path d="M12.3626 10.0435H5.48096C5.41698 10.0434 5.35447 10.0626 5.30156 10.0986C5.24864 10.1345 5.20779 10.1856 5.18432 10.2451C5.16085 10.3046 5.15584 10.3698 5.16996 10.4322C5.18408 10.4946 5.21666 10.5513 5.26346 10.595L9.68546 14.7223C9.81421 14.8424 9.98373 14.9092 10.1598 14.9091H14.0565L12.3626 10.0435Z" fill="#0078D4"/>
<path d="M6.05617 1.0907C5.90978 1.09014 5.76704 1.1364 5.64881 1.22273C5.53058 1.30906 5.44305 1.43093 5.399 1.57054L1.2085 13.9862C1.17108 14.0905 1.15933 14.2023 1.17425 14.3121C1.18917 14.4219 1.23031 14.5265 1.2942 14.617C1.3581 14.7076 1.44285 14.7814 1.54131 14.8323C1.63976 14.8831 1.74902 14.9095 1.85983 14.9092H5.32433C5.45337 14.8861 5.57397 14.8293 5.67382 14.7443C5.77367 14.6594 5.84919 14.5495 5.89267 14.4259L6.72833 11.963L9.71333 14.7472C9.83842 14.8507 9.99534 14.9079 10.1577 14.9092H14.0398L12.3372 10.0435L7.37367 10.0447L10.4115 1.0907H6.05617Z" fill="url(#paint1_linear_2092_1811)"/>
<path d="M11.5996 1.5607C11.5533 1.4237 11.4653 1.30466 11.3479 1.22034C11.2304 1.13603 11.0895 1.09068 10.9449 1.0907H6.1084C6.25297 1.09071 6.3939 1.13606 6.51135 1.22038C6.62879 1.30469 6.71683 1.42372 6.76307 1.5607L10.9604 13.9974C10.9955 14.1013 11.0053 14.2121 10.9891 14.3206C10.9729 14.4291 10.931 14.5322 10.867 14.6213C10.8031 14.7104 10.7188 14.7831 10.6212 14.8331C10.5236 14.8832 10.4154 14.9094 10.3057 14.9094H15.1424C15.2521 14.9093 15.3602 14.8832 15.4578 14.8331C15.5554 14.783 15.6396 14.7104 15.7036 14.6213C15.7675 14.5321 15.8094 14.4291 15.8256 14.3206C15.8418 14.2121 15.832 14.1013 15.7969 13.9974L11.5996 1.5607Z" fill="url(#paint2_linear_2092_1811)"/>
<defs>
<linearGradient id="paint0_linear_2092_1811" x1="7.63774" y1="2.11462" x2="3.1309" y2="15.429" gradientUnits="userSpaceOnUse">
<stop stop-color="#114A8B"/>
<stop offset="1" stop-color="#0669BC"/>
</linearGradient>
<linearGradient id="paint1_linear_2092_1811" x1="9.04567" y1="8.31954" x2="8.00317" y2="8.67204" gradientUnits="userSpaceOnUse">
<stop stop-opacity="0.3"/>
<stop offset="0.071" stop-opacity="0.2"/>
<stop offset="0.321" stop-opacity="0.1"/>
<stop offset="0.623" stop-opacity="0.05"/>
<stop offset="1" stop-opacity="0"/>
</linearGradient>
<linearGradient id="paint2_linear_2092_1811" x1="8.4729" y1="1.72636" x2="13.4201" y2="14.9065" gradientUnits="userSpaceOnUse">
<stop stop-color="#3CCBF4"/>
<stop offset="1" stop-color="#2892DF"/>
</linearGradient>
</defs>
</svg>
