<svg width="17" height="16" viewBox="0 0 17 16" fill="none" xmlns="http://www.w3.org/2000/svg">
<path d="M9.19967 10.342H11.253C11.3957 10.342 11.5123 10.46 11.5123 10.6046V11.818C11.7596 11.8789 11.9793 12.0213 12.136 12.2221C12.2927 12.4229 12.3773 12.6706 12.3763 12.9253C12.3763 13.554 11.873 14.064 11.253 14.064C10.6323 14.064 10.129 13.554 10.129 12.9253C10.129 12.3873 10.4983 11.936 10.9937 11.8173V10.8673H9.20034V13.976C9.20052 14.0211 9.18909 14.0655 9.16714 14.105C9.14519 14.1445 9.11347 14.1776 9.07501 14.2013L7.28167 15.2953C7.24099 15.3202 7.19418 15.3332 7.14649 15.333C7.09879 15.3328 7.05211 15.3192 7.01167 15.294L3.72767 13.2366C3.68978 13.2128 3.65857 13.1798 3.63699 13.1406C3.61541 13.1014 3.60418 13.0574 3.60434 13.0126V10.8666L1.96367 9.91329C1.92636 9.89166 1.89494 9.8612 1.87215 9.82458C1.84937 9.78797 1.83593 9.74632 1.83301 9.70329V9.68529V6.27062C1.83301 6.17729 1.88167 6.09062 1.96101 6.04396L3.60434 5.06929V2.96529C3.60434 2.87929 3.64567 2.79929 3.71434 2.75062L3.72834 2.74129L7.01301 0.705289C7.05372 0.67994 7.10072 0.666504 7.14867 0.666504C7.19663 0.666504 7.24363 0.67994 7.28434 0.705289L9.07767 1.82196C9.11557 1.84574 9.14678 1.87879 9.16836 1.91798C9.18993 1.95717 9.20117 2.00122 9.20101 2.04596V5.06662H11.7717V3.78862C11.5243 3.72761 11.3045 3.58518 11.1478 3.38422C10.9911 3.18326 10.9065 2.93545 10.9077 2.68062C10.9077 2.05196 11.411 1.54196 12.031 1.54196C12.6517 1.54196 13.1543 2.05196 13.1543 2.68062C13.1543 3.21862 12.7857 3.66996 12.2903 3.78862V5.32929C12.2906 5.36358 12.2841 5.39758 12.2712 5.42935C12.2583 5.46112 12.2393 5.49003 12.2152 5.51443C12.1911 5.53883 12.1624 5.55824 12.1308 5.57154C12.0992 5.58484 12.0653 5.59178 12.031 5.59196H9.20101V6.79596H13.617C13.6737 6.54808 13.8126 6.32668 14.0111 6.16776C14.2096 6.00884 14.4561 5.92174 14.7103 5.92062C15.3303 5.92062 15.8337 6.42996 15.8337 7.05862C15.8337 7.68729 15.331 8.19729 14.7103 8.19729C14.456 8.19614 14.2095 8.10894 14.011 7.94989C13.8124 7.79084 13.6736 7.56929 13.617 7.32129H9.19967V8.61262H12.5017L13.1117 9.39929C13.2816 9.29995 13.4749 9.24771 13.6717 9.24795C14.2923 9.24795 14.795 9.75729 14.795 10.386C14.795 11.0146 14.2923 11.5246 13.6717 11.5246C13.0517 11.5246 12.5483 11.0146 12.5483 10.386C12.5483 10.1553 12.6163 9.94062 12.7323 9.76129L12.2497 9.13795H9.19967V10.342ZM7.14834 1.23729L5.78634 2.08129V4.05996H5.26767V2.40262L4.12301 3.11262V5.07596L5.52967 5.98262L6.97434 5.07329V3.55596H7.49301V5.21996C7.49301 5.31062 7.44634 5.39529 7.37034 5.44329L5.80834 6.42529V7.81262L6.75634 8.48529L6.45901 8.91595L5.52167 8.25062L4.50167 8.92062L4.21967 8.48062L5.28967 7.77729V6.45062L3.85834 5.52662L2.35167 6.41996V7.53729L3.66634 6.74462L3.93167 7.19595L2.35167 8.14862V9.53329L3.79567 10.372L5.30901 9.45995L5.57367 9.91129L4.12301 10.7853V12.8666L5.37367 13.65L6.95034 12.6993L7.21567 13.1513L5.87101 13.962L7.14967 14.7626L8.68167 13.8273V9.97396L5.50967 11.9026L5.24301 11.4526L8.68167 9.36196V2.19262L7.14834 1.23729ZM11.253 12.3133C11.173 12.3137 11.0938 12.3299 11.02 12.361C10.9463 12.3921 10.8793 12.4374 10.8231 12.4944C10.7669 12.5514 10.7224 12.6189 10.6923 12.693C10.6622 12.7672 10.6471 12.8466 10.6477 12.9266C10.6477 13.2646 10.9183 13.5386 11.253 13.5386C11.3329 13.5381 11.412 13.5218 11.4856 13.4908C11.5593 13.4597 11.6261 13.4144 11.6822 13.3575C11.7384 13.3006 11.7828 13.2332 11.8129 13.1592C11.843 13.0851 11.8582 13.0059 11.8577 12.926C11.8583 12.846 11.8431 12.7666 11.8131 12.6925C11.783 12.6184 11.7386 12.5509 11.6825 12.494C11.6263 12.437 11.5595 12.3917 11.4858 12.3605C11.4121 12.3294 11.333 12.3138 11.253 12.3133ZM13.673 9.77329C13.593 9.77372 13.5138 9.78994 13.44 9.82102C13.3663 9.8521 13.2993 9.89742 13.2431 9.95439C13.1869 10.0114 13.1424 10.0789 13.1123 10.153C13.0822 10.2272 13.0671 10.3066 13.0677 10.3866C13.0677 10.7253 13.3383 11 13.6723 11C13.7524 10.9995 13.8316 10.9833 13.9053 10.9522C13.9791 10.9211 14.046 10.8758 14.1022 10.8189C14.1585 10.7619 14.2029 10.6944 14.233 10.6202C14.2631 10.546 14.2783 10.4667 14.2777 10.3866C14.2783 10.3066 14.2631 10.2272 14.233 10.153C14.2029 10.0789 14.1585 10.0114 14.1022 9.95439C14.046 9.89742 13.9791 9.8521 13.9053 9.82102C13.8316 9.78994 13.7531 9.77372 13.673 9.77329ZM14.7097 6.44662C14.6296 6.44706 14.5505 6.46328 14.4767 6.49435C14.4029 6.52543 14.336 6.57075 14.2798 6.62772C14.2236 6.68469 14.1791 6.7522 14.149 6.82636C14.1189 6.90053 14.1037 6.97991 14.1043 7.05996C14.1043 7.39796 14.3757 7.67196 14.7097 7.67196C14.7896 7.67143 14.8687 7.65517 14.9423 7.6241C15.0159 7.59302 15.0828 7.54775 15.1389 7.49086C15.195 7.43396 15.2394 7.36657 15.2695 7.29252C15.2996 7.21847 15.3149 7.13922 15.3143 7.05929C15.315 6.9793 15.2998 6.89998 15.2697 6.82585C15.2397 6.75173 15.1953 6.68425 15.1391 6.62729C15.083 6.57033 15.0161 6.52499 14.9425 6.49388C14.8688 6.46276 14.7897 6.44648 14.7097 6.44595V6.44662ZM12.0303 2.06662C11.9504 2.06715 11.8713 2.08343 11.7976 2.11455C11.7239 2.14566 11.657 2.19099 11.6009 2.24796C11.5447 2.30492 11.5003 2.37239 11.4703 2.44652C11.4402 2.52064 11.4251 2.59997 11.4257 2.67996C11.4257 3.01862 11.6963 3.29329 12.0303 3.29329C12.1104 3.29285 12.1896 3.27663 12.2633 3.24556C12.3371 3.21448 12.404 3.16916 12.4602 3.11219C12.5165 3.05522 12.5609 2.98772 12.591 2.91355C12.6211 2.83938 12.6363 2.76 12.6357 2.67996C12.6363 2.59991 12.6211 2.52053 12.591 2.44636C12.5609 2.3722 12.5165 2.30469 12.4602 2.24772C12.404 2.19075 12.3371 2.14543 12.2633 2.11435C12.1896 2.08328 12.1104 2.06706 12.0303 2.06662Z" fill="url(#paint0_linear_2092_1816)"/>
<defs>
<linearGradient id="paint0_linear_2092_1816" x1="1121.89" y1="293.996" x2="242.846" y2="1133.13" gradientUnits="userSpaceOnUse">
<stop stop-color="#6350FB"/>
<stop offset="0.5" stop-color="#3D8FFF"/>
<stop offset="1" stop-color="#9AD8F8"/>
</linearGradient>
</defs>
</svg>
