<svg width="17" height="16" viewBox="0 0 17 16" fill="none" xmlns="http://www.w3.org/2000/svg">
<path d="M14.92 10.7937C14.8864 10.667 14.832 10.5468 14.7591 10.438C14.7747 10.3807 14.7866 10.3224 14.7946 10.2635C14.8464 9.89003 14.7169 9.5481 14.4729 9.28353C14.3407 9.13903 14.199 9.0436 14.0489 8.98503C14.1474 8.5636 14.1972 8.13228 14.1975 7.69953C14.1975 7.50185 14.1863 7.30822 14.1676 7.11747C14.1578 7.02222 14.146 6.92722 14.1321 6.83247C14.0892 6.55291 14.0254 6.27691 13.9414 6.00685C13.8864 5.82939 13.8227 5.65472 13.7506 5.48347C13.6425 5.22986 13.5163 4.98435 13.373 4.74885C13.279 4.59216 13.1766 4.44065 13.0663 4.29497C13.0122 4.22141 12.9559 4.14958 12.8973 4.0796C12.7237 3.8686 12.535 3.67045 12.3327 3.48672C12.2656 3.42495 12.1965 3.3653 12.1256 3.30785C12.0557 3.24961 11.9844 3.19326 11.9116 3.13885C11.765 3.02976 11.6136 2.92742 11.4577 2.83216C10.5964 2.30903 9.58631 2.00903 8.50674 2.00903C5.36349 2.00903 2.81599 4.55666 2.81599 7.69972C2.81587 8.13797 2.86662 8.57472 2.96724 9.00122C2.83224 9.05985 2.70287 9.15122 2.58287 9.28341C2.33893 9.54785 2.20937 9.88853 2.26118 10.262C2.26906 10.3213 2.28087 10.3801 2.29662 10.4378C2.22375 10.5468 2.16941 10.667 2.13581 10.7937C2.06081 11.0788 2.08549 11.3358 2.18081 11.5611C2.07718 11.8555 2.10306 12.169 2.23799 12.4415C2.33612 12.6406 2.47656 12.7946 2.64968 12.9322C2.85549 13.0958 3.11312 13.2348 3.42387 13.3682C3.79462 13.5263 4.24718 13.6749 4.45299 13.7294C4.98462 13.867 5.49437 13.9543 6.01099 13.9585C6.74706 13.9653 7.38093 13.7923 7.83474 13.3493C8.05768 13.3767 8.28212 13.3903 8.50674 13.3902C8.74406 13.3897 8.98112 13.3748 9.21662 13.3455C9.66937 13.7913 10.3057 13.9659 11.0444 13.9589C11.561 13.9548 12.0707 13.8675 12.601 13.7297C12.8082 13.6752 13.2606 13.5267 13.6315 13.3685C13.9422 13.235 14.1999 13.096 14.4071 12.9326C14.5789 12.7949 14.7192 12.641 14.8174 12.4419C14.9537 12.1693 14.9782 11.8558 14.876 11.5614C14.9704 11.3362 14.9949 11.0785 14.92 10.7937ZM14.3925 11.542C14.4969 11.7402 14.5036 11.9642 14.4115 12.1727C14.2717 12.4888 13.9246 12.7378 13.2504 13.0051C12.8312 13.1713 12.4473 13.2777 12.4439 13.2786C11.8894 13.4224 11.3879 13.4955 10.9538 13.4955C10.2349 13.4955 9.69999 13.2971 9.36074 12.9053C8.78706 13.0031 8.20131 13.0064 7.62656 12.9152C7.28687 13.3005 6.75499 13.4955 6.04218 13.4955C5.60799 13.4955 5.10656 13.4224 4.55199 13.2786C4.54862 13.2777 4.16487 13.1713 3.74549 13.0051C3.07137 12.7378 2.72412 12.489 2.58443 12.1727C2.49231 11.9642 2.49899 11.7402 2.60343 11.542C2.61306 11.5236 2.62343 11.5057 2.63449 11.4883C2.57191 11.3943 2.52993 11.2881 2.51131 11.1767C2.49269 11.0653 2.49787 10.9512 2.52649 10.842C2.56799 10.6843 2.65368 10.5532 2.77006 10.459C2.71399 10.3668 2.67721 10.2643 2.66193 10.1576C2.62843 9.92547 2.70549 9.69372 2.87881 9.50472C3.01381 9.35766 3.20462 9.27672 3.41587 9.27672H3.42149C3.26221 8.76616 3.18146 8.23435 3.18199 7.69953C3.18199 4.7826 5.54674 2.41766 8.46412 2.41766C11.3814 2.41766 13.7462 4.78235 13.7462 7.69953C13.7466 8.23578 13.6653 8.76897 13.505 9.28072C13.5305 9.27822 13.5555 9.27697 13.5801 9.27691C13.7913 9.27691 13.9822 9.35785 14.1171 9.50491C14.2904 9.69372 14.3675 9.92566 14.3339 10.1578C14.3187 10.2645 14.2819 10.367 14.2259 10.4592C14.3422 10.5533 14.428 10.6845 14.4694 10.8422C14.4981 10.9514 14.5032 11.0655 14.4846 11.1769C14.4661 11.2883 14.4241 11.3945 14.3614 11.4885C14.3725 11.5057 14.383 11.5236 14.3925 11.542Z" fill="white"/>
<path d="M14.3612 11.4885C14.4239 11.3945 14.4659 11.2883 14.4845 11.177C14.503 11.0655 14.4978 10.9515 14.4692 10.8422C14.4277 10.6845 14.342 10.5534 14.2257 10.4592C14.2817 10.3671 14.3185 10.2646 14.3337 10.1578C14.3673 9.92571 14.2902 9.69396 14.1168 9.50496C13.982 9.3579 13.7911 9.27697 13.5799 9.27697C13.5553 9.27697 13.5303 9.27828 13.5048 9.28078C13.6649 8.76903 13.7461 8.2359 13.7455 7.69972C13.7455 4.78272 11.3808 2.41785 8.46373 2.41785C5.5466 2.41785 3.18159 4.78247 3.18159 7.69972C3.18107 8.23453 3.26183 8.76634 3.4211 9.2769H3.41547C3.20422 9.2769 3.01341 9.35778 2.87848 9.50484C2.70516 9.69365 2.62803 9.92565 2.66159 10.1577C2.67689 10.2645 2.71367 10.367 2.76972 10.4592C2.65334 10.5533 2.5676 10.6844 2.5261 10.8421C2.49749 10.9514 2.49233 11.0655 2.51097 11.1769C2.52961 11.2883 2.57161 11.3945 2.63422 11.4885C2.62309 11.5059 2.61284 11.5238 2.60316 11.5423C2.49878 11.7405 2.49204 11.9644 2.58423 12.173C2.72398 12.489 3.07109 12.738 3.74528 13.0053C4.16447 13.1716 4.54841 13.2779 4.55179 13.2788C5.10629 13.4227 5.60779 13.4957 6.04191 13.4957C6.75479 13.4957 7.28666 13.3007 7.62635 12.9155C8.2011 13.0067 8.78685 13.0033 9.36054 12.9056C9.69979 13.2973 10.2347 13.4957 10.9536 13.4957C11.3877 13.4957 11.8892 13.4227 12.4437 13.2788C12.4471 13.2779 12.8309 13.1716 13.2502 13.0053C13.9244 12.738 14.2716 12.489 14.4113 12.173C14.5034 11.9644 14.4967 11.7405 14.3923 11.5423C14.3828 11.5237 14.3723 11.5057 14.3612 11.4885ZM7.38329 12.3123C7.35404 12.3635 7.32273 12.4134 7.28941 12.462C7.2016 12.5905 7.0861 12.6888 6.95204 12.7618C6.69578 12.9015 6.37141 12.9503 6.04191 12.9503C5.52135 12.9503 4.98773 12.8285 4.68866 12.751C4.67391 12.7472 2.85529 12.2335 3.08554 11.7962C3.12429 11.7227 3.18803 11.6933 3.26834 11.6933C3.59253 11.6933 4.18284 12.176 4.43653 12.176C4.49322 12.176 4.53322 12.1519 4.54953 12.093C4.65766 11.7053 2.90622 11.5423 3.05372 10.9808C3.07972 10.8814 3.15035 10.841 3.2496 10.841C3.67823 10.841 4.64023 11.5948 4.84141 11.5948C4.85685 11.5948 4.86791 11.5902 4.87391 11.5807C4.87478 11.5793 4.87566 11.5779 4.87648 11.5764C4.97091 11.4205 4.91672 11.3071 4.26978 10.9108L4.20766 10.873C3.49572 10.4422 2.99603 10.1828 3.28022 9.87347C3.31291 9.83778 3.35928 9.82197 3.41559 9.82197C3.48234 9.82197 3.56316 9.84428 3.65216 9.88178C4.02816 10.0403 4.54929 10.4728 4.76698 10.6613C4.80122 10.6911 4.83524 10.7212 4.86903 10.7514C4.86903 10.7514 5.14466 11.038 5.31129 11.038C5.34966 11.038 5.38222 11.0229 5.40428 10.9855C5.52248 10.7863 4.30659 9.8649 4.23803 9.48472C4.19153 9.22715 4.27066 9.09665 4.41691 9.09665C4.48647 9.09665 4.57134 9.12628 4.66503 9.18571C4.95566 9.37015 5.51678 10.3344 5.72222 10.7095C5.79109 10.8352 5.90866 10.8883 6.01459 10.8883C6.22478 10.8883 6.38909 10.6794 6.03384 10.4139C5.49991 10.0144 5.68729 9.3614 5.9421 9.32122C5.95298 9.31947 5.96397 9.31859 5.97491 9.31859C6.20666 9.31859 6.30884 9.7179 6.30884 9.7179C6.30884 9.7179 6.60847 10.4703 7.12316 10.9846C7.59016 11.4514 7.65541 11.8345 7.38329 12.3123ZM9.0476 12.4005L9.02091 12.4037L8.97541 12.4088C8.95147 12.4113 8.92748 12.4137 8.90341 12.4159L8.87998 12.418L8.85854 12.4198L8.82816 12.4223L8.7946 12.4247L8.7611 12.4269L8.75366 12.4274C8.74491 12.4279 8.73616 12.4285 8.72729 12.4289L8.7161 12.4295C8.70573 12.4301 8.69535 12.4306 8.68485 12.431L8.64854 12.4326L8.6156 12.4337L8.5936 12.4343H8.58241C8.57554 12.4343 8.56873 12.4347 8.56185 12.4348H8.55098C8.5441 12.4348 8.53729 12.4348 8.53041 12.4351L8.50241 12.4355H8.46335C8.43266 12.4355 8.40204 12.4352 8.37154 12.4345L8.34679 12.434C8.33973 12.434 8.33266 12.4337 8.32573 12.4334L8.29948 12.4327L8.26691 12.4314L8.23754 12.4301L8.22998 12.4298L8.20204 12.4283C8.19423 12.4279 8.18654 12.4275 8.17879 12.427L8.16073 12.4259C8.13804 12.4245 8.11535 12.4229 8.09266 12.4212L8.06891 12.4192C8.05891 12.4185 8.04891 12.4175 8.03898 12.4167C8.02729 12.4157 8.0156 12.4145 8.00391 12.4134C7.98435 12.4116 7.96479 12.4096 7.94523 12.4075H7.94429C8.22991 11.7703 8.08548 11.1752 7.50829 10.5985C7.12973 10.2204 6.87791 9.66215 6.82566 9.53959C6.71991 9.17678 6.44004 8.77347 5.97523 8.77347C5.93591 8.77347 5.89666 8.77659 5.85785 8.78271C5.65423 8.81478 5.47623 8.93197 5.34923 9.10834C5.21198 8.93765 5.0786 8.80196 4.95798 8.72534C4.7761 8.61003 4.59459 8.55153 4.41778 8.55153C4.19709 8.55153 3.99984 8.64215 3.86234 8.80653L3.85884 8.81071C3.85622 8.7999 3.85372 8.78909 3.85116 8.77822L3.85084 8.77678C3.82468 8.6649 3.80271 8.55209 3.78497 8.43853C3.78497 8.43778 3.78497 8.43703 3.78459 8.43628C3.78322 8.42771 3.78197 8.41909 3.78066 8.41053C3.77681 8.38515 3.77321 8.35972 3.76984 8.33428C3.76834 8.32272 3.76672 8.31115 3.76528 8.29959L3.76103 8.2649C3.75966 8.25334 3.75853 8.24284 3.75728 8.23184L3.75691 8.22909C3.75192 8.18409 3.74754 8.13909 3.74378 8.09397L3.74241 8.07665L3.74022 8.04715C3.73959 8.03909 3.73897 8.03097 3.73853 8.02284C3.73853 8.0209 3.73822 8.01903 3.73816 8.01721C3.73657 7.99459 3.73521 7.9719 3.73409 7.94921C3.73347 7.9374 3.73284 7.92565 3.73234 7.91378L3.73109 7.88278L3.73078 7.8734L3.72978 7.84484L3.72916 7.82053C3.72916 7.81084 3.72866 7.80115 3.72853 7.79147C3.72834 7.78178 3.72809 7.77115 3.72803 7.7609C3.72791 7.75065 3.72803 7.74053 3.72772 7.73034C3.72747 7.72009 3.72772 7.7099 3.72772 7.69972C3.72772 5.08391 5.84841 2.96322 8.46448 2.96322C11.0805 2.96322 13.2011 5.08385 13.2011 7.69972V7.7609C13.2011 7.77109 13.2008 7.78134 13.2006 7.79147C13.2006 7.7999 13.2002 7.80822 13.2 7.81678C13.2 7.82428 13.1997 7.83184 13.1994 7.83909C13.1994 7.84865 13.1989 7.85822 13.1985 7.86778V7.86853L13.1972 7.90172C13.1968 7.9114 13.1964 7.92115 13.1959 7.93084L13.1956 7.93772L13.1939 7.96872C13.1902 8.03515 13.1852 8.10147 13.1789 8.16772V8.16853C13.1778 8.1794 13.1767 8.19028 13.1755 8.20115L13.1727 8.22684L13.1672 8.27709L13.164 8.30253L13.16 8.33247C13.1586 8.34334 13.1572 8.35428 13.1555 8.36509C13.1539 8.37728 13.1521 8.3894 13.1503 8.40153L13.146 8.43021L13.1409 8.46272C13.1391 8.47353 13.1372 8.48428 13.1352 8.49503C13.1332 8.50584 13.1315 8.51659 13.1297 8.52734C13.1259 8.54884 13.122 8.57034 13.1179 8.59178C13.1115 8.62384 13.1051 8.65584 13.0985 8.68784L13.0916 8.71953C13.0894 8.73009 13.0869 8.74072 13.0845 8.75128C12.9512 8.62172 12.7747 8.55115 12.58 8.55115C12.4033 8.55115 12.2216 8.60959 12.0398 8.7249C11.9192 8.80153 11.7859 8.93728 11.6485 9.1079C11.5214 8.93153 11.3434 8.81434 11.1399 8.78228C11.101 8.77615 11.0618 8.77303 11.0225 8.77303C10.5575 8.77303 10.2779 9.17634 10.172 9.53915C10.1195 9.66172 9.86766 10.22 9.48879 10.5986C8.91198 11.1735 8.76648 11.7659 9.0476 12.4005ZM13.9377 11.1249L13.9358 11.1305C13.931 11.143 13.9255 11.1553 13.9194 11.1672C13.9147 11.1759 13.9096 11.1844 13.9041 11.1927C13.8937 11.2082 13.8822 11.2231 13.8698 11.2371C13.8669 11.2403 13.8642 11.2436 13.8609 11.2468C13.8564 11.2516 13.8519 11.2563 13.8472 11.261C13.763 11.3443 13.6348 11.4175 13.4898 11.4845C13.4734 11.492 13.4567 11.4994 13.4399 11.5069L13.4231 11.5143C13.4119 11.5193 13.4007 11.5242 13.389 11.529C13.3778 11.5338 13.3662 11.5387 13.3545 11.5435L13.3197 11.5578C13.2381 11.5914 13.1545 11.6234 13.073 11.655L13.0382 11.6685L13.0037 11.682C12.9808 11.691 12.9582 11.6999 12.9359 11.7088L12.9027 11.7222L12.8701 11.7355L12.8541 11.7423C12.8434 11.7467 12.833 11.7512 12.8225 11.7556C12.5827 11.8585 12.4102 11.9632 12.4464 12.0931C12.4474 12.0968 12.4485 12.1003 12.4498 12.1037C12.453 12.1133 12.4575 12.1224 12.463 12.131C12.4663 12.136 12.47 12.1408 12.4742 12.1452C12.5169 12.1895 12.5944 12.1825 12.6922 12.1473C12.706 12.1423 12.7197 12.137 12.7332 12.1315L12.7417 12.128C12.7641 12.1185 12.7878 12.1079 12.812 12.0964C12.818 12.0935 12.8242 12.0908 12.8303 12.0876C12.9499 12.0291 13.0855 11.9503 13.22 11.8787C13.2738 11.8496 13.3284 11.822 13.3836 11.7958C13.511 11.7359 13.6307 11.6934 13.727 11.6934C13.7722 11.6934 13.812 11.7027 13.8453 11.7239L13.8509 11.7276C13.8717 11.7423 13.8892 11.7612 13.9023 11.783C13.9048 11.7872 13.9074 11.7917 13.9098 11.7962C13.9574 11.8865 13.9175 11.98 13.8244 12.0717C13.7349 12.1598 13.5958 12.2461 13.4377 12.326C13.4259 12.3319 13.4142 12.3378 13.4022 12.3437C12.9316 12.5748 12.3153 12.7488 12.3067 12.751C12.1425 12.7936 11.9076 12.8495 11.643 12.8913L11.6039 12.8974L11.5974 12.8983C11.5678 12.9028 11.5381 12.907 11.5084 12.9109C11.4782 12.915 11.4477 12.9187 11.417 12.9221L11.4114 12.9227C11.3001 12.9355 11.1884 12.944 11.0765 12.9481H11.0749C11.0344 12.9495 10.9939 12.9503 10.9534 12.9503H10.9067C10.845 12.9495 10.7833 12.9467 10.7218 12.9419C10.7203 12.9419 10.7188 12.9419 10.7174 12.9415C10.6953 12.9398 10.6733 12.9378 10.6513 12.9353C10.6285 12.9329 10.6057 12.9302 10.583 12.9271C10.5681 12.9251 10.5532 12.9228 10.5384 12.9204C10.5232 12.918 10.5081 12.9155 10.493 12.9128L10.4725 12.909L10.4709 12.9087C10.4492 12.9045 10.4277 12.9 10.4062 12.895C10.3937 12.8922 10.3812 12.8894 10.3689 12.886L10.3615 12.8842C10.3553 12.8827 10.3494 12.881 10.3434 12.8794L10.34 12.8785L10.3208 12.8729C10.3138 12.871 10.3068 12.8688 10.2998 12.8668L10.2973 12.8661L10.2792 12.8605C10.2723 12.8584 10.2654 12.8562 10.2586 12.8539L10.2418 12.8483L10.2295 12.844C10.2177 12.8398 10.2058 12.8355 10.1942 12.831L10.183 12.8267L10.1739 12.823C10.1561 12.8159 10.1385 12.8085 10.121 12.8007L10.1095 12.795L10.1075 12.7942C10.1034 12.7922 10.0994 12.7903 10.0952 12.7886C10.0872 12.7847 10.0792 12.7807 10.0712 12.7767L10.0688 12.7755L10.0573 12.7694C10.0369 12.7587 10.0169 12.7473 9.99723 12.7353L9.98647 12.7287C9.9811 12.7253 9.97573 12.7219 9.97048 12.7184L9.95648 12.7092L9.94141 12.6988L9.93241 12.6923C9.92291 12.6856 9.9136 12.6786 9.90448 12.6714L9.88991 12.6602C9.8841 12.6555 9.87835 12.6508 9.87266 12.646C9.86785 12.642 9.86316 12.6379 9.85848 12.6338L9.8581 12.6335C9.85304 12.629 9.8481 12.6246 9.84316 12.62C9.83829 12.6156 9.83341 12.6111 9.82866 12.6065L9.8281 12.606C9.8231 12.6012 9.81823 12.5964 9.81341 12.5915C9.8086 12.5866 9.80366 12.5817 9.79897 12.5767C9.79429 12.5718 9.78948 12.5667 9.78485 12.5615C9.78023 12.5564 9.77598 12.5517 9.7716 12.5467L9.77016 12.545C9.76591 12.5401 9.76173 12.5352 9.7576 12.5301C9.74866 12.5194 9.73998 12.5085 9.7316 12.4973C9.72316 12.486 9.71491 12.4745 9.70685 12.4628L9.69916 12.4513C9.68891 12.4363 9.67891 12.4212 9.66923 12.4058C9.66198 12.3948 9.65491 12.3837 9.64804 12.3723C9.6436 12.3653 9.63935 12.3582 9.6351 12.3512L9.63335 12.3483C9.62929 12.3414 9.62529 12.3347 9.62141 12.3278C9.61916 12.3242 9.61704 12.3205 9.61504 12.3167C9.61298 12.3128 9.6106 12.3088 9.60841 12.3049L9.60485 12.2987L9.60266 12.2947C9.59848 12.2872 9.59435 12.2797 9.59035 12.272C9.58848 12.2687 9.58666 12.2653 9.58473 12.262L9.57916 12.2512L9.57354 12.2405C9.55948 12.2124 9.54616 12.1839 9.53366 12.155L9.52923 12.1445C9.52635 12.1374 9.52366 12.1304 9.52079 12.1235C9.51941 12.1201 9.51804 12.1168 9.51685 12.1134C9.51016 12.0961 9.50391 12.0786 9.49816 12.061C9.4961 12.0547 9.4941 12.0485 9.49223 12.0422C9.48773 12.028 9.48366 12.0137 9.48004 11.9993C9.4756 11.9825 9.47166 11.9655 9.46835 11.9485C9.46766 11.945 9.46698 11.9416 9.46641 11.9383C9.46316 11.9216 9.46054 11.9048 9.45848 11.8879C9.45798 11.8846 9.4576 11.8813 9.45723 11.878L9.45616 11.8678C9.45479 11.8546 9.45373 11.8413 9.4531 11.828C9.4531 11.8246 9.45279 11.8212 9.45266 11.818C9.45235 11.8113 9.45223 11.8047 9.45216 11.7981C9.44866 11.531 9.58379 11.2743 9.87273 10.9855C10.3874 10.4713 10.687 9.71884 10.687 9.71884C10.687 9.71884 10.6951 9.68728 10.7119 9.64184C10.7142 9.63553 10.7166 9.62903 10.7194 9.62222C10.7291 9.59678 10.7401 9.57178 10.7523 9.5474L10.7547 9.54272C10.7651 9.52197 10.7765 9.50172 10.7887 9.48203C10.7916 9.47747 10.7944 9.47297 10.7975 9.4684C10.8067 9.45484 10.8164 9.44159 10.8266 9.42878C10.8322 9.42184 10.8382 9.41497 10.8443 9.40828C10.8467 9.40565 10.8491 9.40303 10.8517 9.40053C10.8815 9.36972 10.9155 9.34459 10.9541 9.33121L10.959 9.32959C10.9622 9.32853 10.9655 9.32753 10.9688 9.32659C10.9726 9.32559 10.9764 9.32472 10.9804 9.3239L10.9822 9.32353C10.9903 9.3219 10.9985 9.32084 11.0069 9.32028H11.0075C11.0119 9.32028 11.0162 9.31984 11.0207 9.31984C11.0262 9.31984 11.0314 9.31984 11.0368 9.3204C11.0425 9.3209 11.048 9.32153 11.0537 9.3224C11.1 9.32978 11.1442 9.3574 11.1822 9.40003C11.1966 9.41628 11.2096 9.43378 11.221 9.45228C11.2285 9.46428 11.2355 9.47697 11.2422 9.49034C11.2449 9.4959 11.2475 9.50103 11.25 9.50653C11.2565 9.52065 11.2624 9.53503 11.2675 9.54972C11.2797 9.58409 11.2889 9.61947 11.2949 9.65547C11.3002 9.68703 11.3033 9.7189 11.3043 9.75084C11.3048 9.7679 11.3048 9.78521 11.3043 9.80265C11.3009 9.88378 11.2843 9.96384 11.2551 10.0397C11.2525 10.0466 11.2495 10.0536 11.2467 10.0606C11.241 10.0747 11.2347 10.0886 11.2278 10.1022C11.2228 10.1125 11.2175 10.1228 11.2117 10.1332C11.208 10.14 11.204 10.1469 11.2001 10.1538C11.19 10.1709 11.1792 10.1879 11.1675 10.2048L11.1604 10.215C11.1328 10.2535 11.102 10.2896 11.0684 10.323C11.0353 10.3562 10.9998 10.3868 10.9622 10.4148C10.9246 10.4427 10.8893 10.4736 10.8567 10.5072C10.7627 10.6057 10.7409 10.6927 10.762 10.7587C10.7654 10.769 10.7698 10.7791 10.7752 10.7886C10.7815 10.7995 10.789 10.8095 10.7975 10.8186L10.8008 10.822L10.8042 10.8254C10.8075 10.8287 10.8111 10.8318 10.8149 10.835L10.8187 10.838C10.8277 10.845 10.8374 10.8512 10.8474 10.8567C10.8504 10.8583 10.853 10.8598 10.8563 10.8613C10.8672 10.8667 10.8784 10.8712 10.8899 10.8749C10.893 10.876 10.8962 10.8769 10.8995 10.8779L10.9035 10.879L10.9092 10.8805L10.914 10.8817L10.9192 10.8828L10.9244 10.8838L10.9293 10.8847C10.933 10.8853 10.9367 10.8859 10.9405 10.8863L10.944 10.8869L10.9505 10.8875L10.9545 10.888L10.9611 10.8884H10.965L10.9719 10.8888H10.9935L10.9997 10.8884L11.0068 10.888L11.0155 10.8872L11.0236 10.8862C11.0255 10.8862 11.0274 10.8857 11.0292 10.8853C11.0542 10.8817 11.0787 10.8751 11.1022 10.8656L11.1121 10.8614C11.1177 10.859 11.1233 10.8564 11.1284 10.8537C11.1394 10.8482 11.1501 10.8419 11.1604 10.8351C11.1747 10.8257 11.1882 10.8152 11.2008 10.8037C11.2038 10.801 11.2067 10.7981 11.2096 10.7953C11.211 10.794 11.2124 10.7927 11.2138 10.7912C11.2165 10.7883 11.2194 10.7856 11.2221 10.7825C11.2421 10.7605 11.2594 10.7363 11.2737 10.7102C11.396 10.4878 11.5242 10.2687 11.6581 10.0531L11.6765 10.0237L11.695 9.99422C11.7043 9.97928 11.7137 9.96459 11.723 9.94997L11.7324 9.93534C11.7635 9.88659 11.7951 9.83815 11.8273 9.79009L11.8464 9.76159C11.8846 9.7049 11.9227 9.64978 11.9605 9.5974L11.9794 9.57147C12.0205 9.51478 12.0633 9.45928 12.1077 9.40515L12.1253 9.38403C12.1283 9.38053 12.131 9.37703 12.1342 9.37365C12.14 9.36678 12.1458 9.36009 12.1515 9.35359C12.1543 9.35028 12.157 9.34703 12.1601 9.34378L12.1769 9.3249L12.1852 9.31571C12.1937 9.30665 12.2019 9.29797 12.21 9.28965C12.2157 9.28403 12.2208 9.27847 12.2262 9.27322C12.2579 9.24084 12.2929 9.21178 12.3305 9.18659L12.3393 9.18097C12.3477 9.17534 12.3564 9.17009 12.3652 9.16534C12.513 9.08147 12.6353 9.07528 12.7057 9.14571C12.7484 9.18834 12.772 9.25903 12.7707 9.3574C12.7707 9.36172 12.7707 9.36609 12.7704 9.37059V9.3754C12.7704 9.3799 12.77 9.3844 12.7696 9.38897C12.7696 9.39459 12.769 9.40015 12.7684 9.40578C12.7679 9.41134 12.7675 9.41559 12.767 9.42059C12.767 9.42197 12.7667 9.4234 12.7665 9.4249C12.7661 9.42922 12.7655 9.43365 12.7649 9.43809C12.7649 9.4394 12.7649 9.44078 12.7644 9.44215C12.7637 9.44809 12.7629 9.45396 12.7619 9.45984C12.7612 9.46546 12.7602 9.47072 12.7592 9.47622L12.7576 9.48553C12.756 9.4944 12.7539 9.50315 12.7514 9.51178C12.7465 9.52797 12.7406 9.54378 12.7337 9.55915C12.724 9.58028 12.7133 9.60084 12.7015 9.62084C12.695 9.63197 12.6884 9.6429 12.6814 9.65372C12.6743 9.6649 12.6668 9.67622 12.659 9.68765C12.6393 9.7159 12.6188 9.74359 12.5975 9.77065L12.5877 9.78296C12.553 9.82628 12.5171 9.86871 12.4801 9.91015L12.4684 9.92328C12.4527 9.94084 12.4367 9.95853 12.4203 9.97628L12.408 9.98965C12.3998 9.99859 12.3912 10.0075 12.383 10.0165C12.3748 10.0255 12.3662 10.0345 12.3576 10.0436L12.3319 10.0707L12.3059 10.0979L12.2796 10.1252C12.262 10.1434 12.2443 10.1617 12.2265 10.1799C11.973 10.4398 11.706 10.6989 11.6157 10.8604C11.6096 10.8709 11.6042 10.8818 11.5993 10.8928C11.5864 10.9222 11.581 10.9473 11.5847 10.9677C11.5859 10.9743 11.5882 10.9807 11.5917 10.9866C11.5967 10.9954 11.6029 11.0035 11.6101 11.0108C11.6134 11.014 11.6169 11.017 11.6206 11.0198C11.6392 11.033 11.6617 11.0398 11.6845 11.0392H11.6917L11.699 11.0387L11.7063 11.0378L11.7123 11.037C11.7132 11.0368 11.714 11.0367 11.7149 11.0365L11.7204 11.0354L11.7219 11.0351L11.728 11.0338L11.7302 11.0332C11.7324 11.0327 11.7345 11.0321 11.7367 11.0315C11.7389 11.0308 11.7419 11.03 11.7445 11.0292C11.7555 11.0258 11.7663 11.0219 11.7769 11.0174C11.7824 11.0152 11.7879 11.0127 11.7932 11.0101C11.796 11.0088 11.7989 11.0075 11.8015 11.0062L11.8099 11.002C11.8299 10.9917 11.8494 10.9803 11.8684 10.9682L11.8767 10.9626C11.8795 10.9608 11.8823 10.959 11.885 10.957L11.8933 10.9515L11.8977 10.9484L11.9097 10.94C11.9209 10.9323 11.9314 10.9243 11.9419 10.9163L11.9429 10.9155L11.9597 10.9025C11.9826 10.8844 12.0044 10.8662 12.0241 10.849L12.0372 10.8375L12.0384 10.8363L12.0453 10.8303C12.0614 10.8158 12.0758 10.8023 12.0877 10.7912L12.0927 10.7863C12.097 10.7823 12.1009 10.7785 12.1045 10.7752L12.1115 10.7683L12.114 10.7658L12.1147 10.7652L12.122 10.7578L12.1266 10.753L12.1272 10.7526L12.1294 10.7506L12.1321 10.7481L12.133 10.7473L12.1353 10.7452L12.148 10.734L12.1552 10.7276C12.159 10.7243 12.1627 10.7209 12.1664 10.7175L12.1749 10.7099C12.1764 10.7087 12.1779 10.7073 12.1795 10.7059L12.1884 10.6981L12.2015 10.6865L12.2085 10.6805C12.2357 10.6568 12.2688 10.6283 12.3068 10.5961L12.3224 10.5829L12.348 10.5613L12.3744 10.5394C12.4087 10.5108 12.4457 10.4805 12.4848 10.4491L12.5105 10.4285C12.5324 10.411 12.5549 10.3933 12.5776 10.3754C12.5868 10.3682 12.5961 10.361 12.6056 10.3539C12.6289 10.3358 12.6522 10.3179 12.6758 10.3002C12.7294 10.2597 12.7847 10.2192 12.8407 10.1797L12.8647 10.1629C12.8815 10.1513 12.8983 10.1397 12.915 10.1284L12.9302 10.1182C12.9602 10.0978 12.9905 10.078 13.0212 10.0587L13.0364 10.0492L13.0514 10.0398C13.0665 10.0304 13.0815 10.0212 13.0965 10.0123L13.1114 10.0033L13.1413 9.98596L13.1706 9.96915L13.1765 9.9659L13.1997 9.95315C13.2094 9.9479 13.219 9.94284 13.2287 9.9379L13.243 9.93053L13.2569 9.92353C13.2618 9.92122 13.2666 9.91878 13.2713 9.91646C13.3027 9.90096 13.3347 9.88672 13.3672 9.87372C13.376 9.86997 13.3848 9.86659 13.3935 9.86365L13.4191 9.85465C13.4268 9.85209 13.4343 9.84965 13.4415 9.84747L13.444 9.84671C13.4479 9.84546 13.4517 9.84434 13.4555 9.84334L13.4567 9.84303C13.4647 9.84072 13.4726 9.83872 13.4804 9.83684H13.481C13.5031 9.83153 13.5256 9.82771 13.5483 9.8254C13.5587 9.82434 13.5692 9.82378 13.5797 9.82384H13.5849C13.5919 9.82384 13.5987 9.82428 13.6054 9.82497C13.6084 9.82497 13.6115 9.82559 13.6145 9.82596H13.6157C13.6187 9.82634 13.6217 9.82678 13.6247 9.82747C13.6277 9.82803 13.6307 9.82853 13.6335 9.82922H13.6345C13.6374 9.82984 13.64 9.83059 13.6431 9.83146C13.659 9.8359 13.6741 9.84278 13.688 9.85178C13.6948 9.85622 13.7012 9.86121 13.707 9.86678L13.7087 9.8684C13.7098 9.8694 13.7109 9.87047 13.7119 9.87153L13.715 9.87484C13.7401 9.90115 13.7608 9.93134 13.7765 9.96422L13.7789 9.96984C13.7842 9.98234 13.7884 9.99528 13.7914 10.0085C13.8002 10.0488 13.7968 10.091 13.7815 10.1294C13.7757 10.1449 13.7686 10.1598 13.7603 10.1741C13.7409 10.2068 13.7178 10.2373 13.6916 10.2648L13.686 10.2708C13.6777 10.2795 13.6691 10.2883 13.66 10.297C13.656 10.301 13.6519 10.3048 13.6477 10.3088L13.6349 10.3206L13.6282 10.3265C13.612 10.3409 13.5955 10.3548 13.5787 10.3683C13.5685 10.3766 13.5582 10.3847 13.5479 10.3926C13.5112 10.4206 13.4739 10.4476 13.4359 10.4737C13.413 10.4894 13.3899 10.5048 13.3665 10.5201C13.3091 10.5578 13.251 10.5945 13.1924 10.6303C13.0694 10.7059 12.9331 10.7868 12.7878 10.8747L12.7502 10.8975C12.709 10.9227 12.6701 10.9467 12.6335 10.9695L12.615 10.9811L12.5802 11.0035C12.557 11.0183 12.534 11.0332 12.5109 11.0482L12.4924 11.0604C12.4833 11.0663 12.4743 11.0723 12.4653 11.0783L12.4565 11.0839L12.4295 11.1021L12.4152 11.1119L12.3984 11.1235L12.3829 11.1343C12.3568 11.1528 12.3325 11.1703 12.3102 11.187L12.3019 11.1934C12.2887 11.2033 12.2757 11.2135 12.2629 11.2238C12.2436 11.2393 12.226 11.2542 12.2102 11.2685L12.2024 11.2756C12.198 11.2797 12.1936 11.2837 12.1894 11.2877C12.1865 11.2905 12.1839 11.2933 12.1809 11.296L12.1769 11.3C12.1679 11.309 12.1592 11.3182 12.1507 11.3277L12.1466 11.3324C12.1374 11.343 12.1294 11.3532 12.1224 11.3632L12.1193 11.3676C12.1138 11.3756 12.1087 11.3838 12.1042 11.3923C12.103 11.3945 12.1019 11.3966 12.1009 11.3987L12.0978 11.4051L12.0957 11.4097L12.0944 11.4128L12.0934 11.4157L12.0919 11.4195C12.088 11.43 12.0854 11.441 12.0838 11.4522L12.0833 11.456L12.0829 11.4597V11.4793C12.0829 11.481 12.0829 11.4826 12.0834 11.4843L12.0837 11.4873C12.0837 11.489 12.084 11.4905 12.0843 11.4923C12.0845 11.4939 12.085 11.4968 12.0855 11.4992V11.4995C12.0859 11.5017 12.0864 11.5038 12.0869 11.506C12.0875 11.5082 12.088 11.5107 12.0887 11.5129C12.0899 11.5173 12.0914 11.5217 12.093 11.5261C12.094 11.5287 12.0949 11.5313 12.096 11.5338C12.096 11.5343 12.0964 11.5349 12.0966 11.5354L12.0989 11.5405L12.102 11.5474C12.1054 11.5546 12.109 11.5616 12.113 11.5684L12.1172 11.5755L12.1214 11.5827C12.1222 11.5838 12.123 11.585 12.124 11.586L12.1253 11.5875L12.1269 11.5889L12.1285 11.5902C12.1309 11.5918 12.1335 11.5932 12.1362 11.5941C12.1376 11.5946 12.1391 11.595 12.1406 11.5953C12.1767 11.6035 12.2508 11.5737 12.3493 11.5217C12.3549 11.5187 12.361 11.5155 12.3669 11.5123L12.3969 11.4959L12.4115 11.4878C12.422 11.4822 12.4326 11.4759 12.4435 11.4697L12.4633 11.4585C12.5935 11.3836 12.749 11.2873 12.9097 11.1933C12.9248 11.1845 12.9399 11.1757 12.955 11.167L12.9854 11.1476C13.0207 11.1274 13.0561 11.1075 13.0917 11.0878C13.1365 11.0632 13.1816 11.0392 13.2272 11.0159L13.2569 11.0008C13.2767 10.9911 13.2962 10.9816 13.3155 10.9723C13.3529 10.9546 13.3907 10.9377 13.429 10.9218L13.4499 10.9133L13.4524 10.9123C13.5634 10.8683 13.6639 10.8412 13.7453 10.8412C13.7629 10.841 13.7805 10.8425 13.7978 10.8455H13.7984C13.8039 10.8465 13.809 10.8477 13.8142 10.8489H13.8151C13.8284 10.8523 13.8414 10.8571 13.8536 10.8633C13.8708 10.8722 13.8862 10.884 13.8993 10.8982C13.9053 10.9048 13.9106 10.912 13.9153 10.9197C13.924 10.9331 13.9309 10.9477 13.9359 10.9629C13.9379 10.9688 13.9396 10.9747 13.9414 10.9808C13.9546 11.0282 13.9533 11.0783 13.9377 11.1249Z" fill="#FF9D00"/>
<path fill-rule="evenodd" clip-rule="evenodd" d="M13.2002 7.73026V7.69957C13.2002 5.0837 11.0804 2.96313 8.46431 2.96313C5.84832 2.96313 3.72762 5.08382 3.72762 7.69957V7.70982C3.7275 7.71664 3.72744 7.72345 3.72762 7.73026C3.72793 7.74045 3.72804 7.75063 3.72794 7.76082L3.72825 7.78332L3.72844 7.79138C3.72844 7.79513 3.72857 7.79882 3.72869 7.80257C3.72888 7.80851 3.729 7.81451 3.729 7.82045L3.72969 7.84476L3.73069 7.87332L3.731 7.8827L3.73225 7.91226V7.9137C3.73275 7.92526 3.73338 7.93676 3.73394 7.94826L3.734 7.94913C3.73462 7.96088 3.73525 7.9727 3.736 7.98451C3.73663 7.99538 3.73725 8.00626 3.73806 8.01713L3.73819 8.01907C3.73874 8.02839 3.73936 8.03776 3.74006 8.04707L3.74025 8.04957L3.74231 8.07657L3.7425 8.07832C3.74288 8.08357 3.74325 8.08882 3.74375 8.09389C3.74749 8.13895 3.75184 8.18401 3.75682 8.22895L3.75712 8.23176L3.76094 8.26482L3.76519 8.29951L3.76831 8.32307L3.76975 8.33414C3.77308 8.35964 3.77669 8.38507 3.78056 8.41045L3.78082 8.41214L3.7845 8.43614C3.80234 8.55045 3.82444 8.66407 3.85075 8.77676L3.85107 8.77814L3.85306 8.78657L3.85875 8.81063L3.86225 8.80645C3.99975 8.64207 4.197 8.55145 4.41769 8.55145C4.59456 8.55145 4.776 8.60995 4.95788 8.72526C5.0785 8.80188 5.21188 8.93757 5.34913 9.10826C5.47613 8.93189 5.65413 8.81463 5.85775 8.78263C5.89658 8.77651 5.93582 8.77345 5.97513 8.77339C6.43988 8.77339 6.71981 9.1767 6.82556 9.53951C6.87781 9.66207 7.12962 10.2203 7.50937 10.5979C8.08662 11.1746 8.23106 11.7697 7.94537 12.4069H7.94637C7.96581 12.4091 7.98537 12.4111 8.00506 12.4129C8.01675 12.414 8.02837 12.4151 8.04012 12.4161L8.04425 12.4165L8.07006 12.4187L8.09381 12.4206C8.11644 12.4223 8.13912 12.4239 8.16187 12.4254L8.17994 12.4264L8.19425 12.4273L8.20312 12.4278L8.23106 12.4293L8.23869 12.4296L8.268 12.4309L8.30062 12.4321L8.32681 12.4329L8.33119 12.433C8.33675 12.4333 8.34231 12.4334 8.34787 12.4334L8.35387 12.4336C8.39075 12.4345 8.42756 12.4349 8.46444 12.4349H8.50356L8.5315 12.4346C8.53837 12.4343 8.54519 12.4343 8.55212 12.4343H8.563L8.57244 12.434C8.57612 12.4339 8.57981 12.4338 8.58356 12.4338H8.59475L8.61669 12.4332L8.64969 12.4321L8.686 12.4304C8.6965 12.4301 8.70687 12.4295 8.71725 12.429L8.72844 12.4283L8.74506 12.4274L8.75481 12.4269L8.76219 12.4264L8.79575 12.4242L8.82925 12.4218L8.85969 12.4193L8.88106 12.4175L8.90456 12.4154C8.94381 12.4119 8.98294 12.4078 9.02206 12.4031L9.04875 12.3999C8.76756 11.7654 8.91312 11.1729 9.48794 10.5985C9.86687 10.2199 10.1187 9.66164 10.1712 9.53901C10.277 9.17626 10.5567 8.77295 11.0216 8.77295C11.0609 8.77295 11.1002 8.77607 11.1391 8.7822C11.3425 8.8142 11.5205 8.93145 11.6477 9.10782C11.785 8.9372 11.9183 8.80139 12.039 8.72476C12.2208 8.60951 12.4024 8.55101 12.5791 8.55101C12.7739 8.55101 12.9504 8.62164 13.0837 8.7512C13.0861 8.74064 13.0885 8.73007 13.0908 8.71945L13.0976 8.68782C13.1001 8.67626 13.1025 8.6647 13.1048 8.65314C13.1089 8.6327 13.1131 8.61226 13.117 8.59163C13.1211 8.57026 13.1251 8.54876 13.1288 8.52726L13.1307 8.51564C13.1319 8.50876 13.1331 8.50188 13.1344 8.49495C13.1365 8.4842 13.1382 8.47345 13.14 8.46257L13.1407 8.45845L13.1451 8.43013L13.1495 8.40145V8.4012C13.1527 8.38001 13.1557 8.35882 13.1585 8.33764L13.1592 8.33239L13.1631 8.30251L13.1663 8.27701L13.1719 8.22676L13.1741 8.20657L13.1747 8.20107C13.1759 8.1902 13.177 8.17932 13.178 8.16845V8.16757C13.1788 8.15895 13.1797 8.15026 13.1804 8.14157C13.1849 8.09232 13.1886 8.04282 13.1916 7.99313C13.1922 7.98501 13.1926 7.97682 13.1931 7.96863V7.96826L13.1947 7.93757L13.1951 7.9307C13.1961 7.90995 13.197 7.8892 13.1977 7.86845V7.8677L13.198 7.85957C13.1983 7.85276 13.1986 7.84589 13.1986 7.83901L13.1987 7.83626C13.1989 7.82982 13.1992 7.8232 13.1992 7.81664L13.1994 7.81101C13.1996 7.80445 13.1997 7.79795 13.1997 7.79138L13.1999 7.78582C13.2001 7.77751 13.2002 7.76913 13.2002 7.76082V7.73026ZM7.2895 12.4619C7.66462 11.9118 7.638 11.4989 7.12337 10.9846C6.60863 10.4701 6.30906 9.71789 6.30906 9.71789C6.30906 9.71789 6.19725 9.28095 5.94225 9.32107C5.68725 9.3612 5.50019 10.0141 6.03413 10.4138C6.568 10.8135 5.92788 11.0845 5.72238 10.7094C5.51688 10.3343 4.95581 9.37014 4.66494 9.1857C4.37406 9.00126 4.1695 9.10464 4.23806 9.48476C4.27212 9.67345 4.58888 9.99551 4.88482 10.2964C5.18507 10.6016 5.46387 10.8851 5.40425 10.9854C5.28594 11.1846 4.86925 10.7514 4.86925 10.7514C4.86925 10.7514 3.5645 9.56401 3.2805 9.87345C3.01862 10.1586 3.42244 10.4011 4.04469 10.7748C4.09757 10.8065 4.15207 10.8393 4.20788 10.873C4.91982 11.304 4.97519 11.4177 4.87412 11.5808C4.83681 11.641 4.5985 11.4979 4.30537 11.322C3.80569 11.0219 3.14682 10.6264 3.05375 10.9804C2.97325 11.2869 3.458 11.4746 3.89762 11.6449C4.26387 11.7868 4.59888 11.9166 4.54957 12.0927C4.4985 12.2753 4.22169 12.123 3.91913 11.9565C3.57944 11.7696 3.20725 11.5648 3.08544 11.7959C2.85525 12.2328 4.67357 12.7471 4.68857 12.7509C5.27607 12.9033 6.76806 13.2261 7.2895 12.4619ZM9.70606 12.4619C9.33094 11.9118 9.35756 11.4989 9.87225 10.9846C10.3869 10.4701 10.6865 9.71789 10.6865 9.71789C10.6865 9.71789 10.7983 9.28095 11.0533 9.32107C11.3083 9.3612 11.4954 10.0141 10.9615 10.4138C10.4276 10.8135 11.0677 11.0845 11.2732 10.7094C11.4787 10.3343 12.0394 9.37014 12.3303 9.1857C12.6212 9.00126 12.8259 9.10464 12.7572 9.48476C12.7232 9.67345 12.4064 9.99551 12.1105 10.2964C11.8102 10.6017 11.5314 10.8851 11.591 10.9854C11.7093 11.1846 12.1263 10.7511 12.1263 10.7511C12.1263 10.7511 13.431 9.56382 13.7151 9.87326C13.9769 10.1584 13.5731 10.4009 12.9508 10.7746C12.8964 10.8073 12.842 10.84 12.7877 10.8728C12.0757 11.3038 12.0204 11.4175 12.1214 11.5805C12.1587 11.6408 12.3971 11.4977 12.6901 11.3218C13.1899 11.0218 13.8487 10.6261 13.9418 10.9803C14.0224 11.2867 13.5376 11.4744 13.0979 11.6448C12.7317 11.7866 12.3967 11.9164 12.4459 12.0925C12.4969 12.2751 12.7737 12.1228 13.0762 11.9563C13.4159 11.7693 13.7881 11.5644 13.9099 11.7957C14.1401 12.2328 12.3215 12.7466 12.3068 12.7504C11.7193 12.9033 10.2273 13.2261 9.70606 12.4619Z" fill="#FFD21E"/>
<path fill-rule="evenodd" clip-rule="evenodd" d="M10.0034 6.41041C10.0773 6.43653 10.1322 6.51603 10.1845 6.59172C10.2551 6.69397 10.3209 6.78916 10.4217 6.73553C10.5407 6.67222 10.6383 6.5751 10.7021 6.45635C10.7659 6.3376 10.7931 6.20264 10.7802 6.06847C10.7706 5.96815 10.7388 5.87121 10.6872 5.78465C10.6356 5.69808 10.5654 5.62403 10.4817 5.56786C10.3981 5.51168 10.3029 5.47477 10.2033 5.45978C10.1036 5.44478 10.0019 5.45209 9.90536 5.48116C9.80886 5.51021 9.72005 5.5603 9.64524 5.62781C9.57043 5.69533 9.51149 5.77858 9.47274 5.8716C9.43399 5.96461 9.4163 6.06506 9.42099 6.16572C9.42574 6.26641 9.45268 6.36472 9.49999 6.45372C9.54674 6.54166 9.65049 6.50016 9.75999 6.45635C9.8458 6.42203 9.93524 6.38628 10.0034 6.41041ZM6.79249 6.41041C6.71861 6.43653 6.66368 6.5161 6.61143 6.59172C6.5408 6.69403 6.47499 6.78916 6.37418 6.73553C6.22452 6.65628 6.10975 6.52409 6.05223 6.36484C5.99471 6.20556 5.99856 6.03057 6.06304 5.87398C6.12751 5.71738 6.24799 5.59041 6.40099 5.51781C6.55399 5.44521 6.72854 5.43219 6.89061 5.48128C7.01968 5.52014 7.1343 5.59639 7.22005 5.70038C7.3058 5.80437 7.35874 5.93144 7.3723 6.06553C7.3858 6.19963 7.35924 6.33472 7.29599 6.45372C7.24918 6.54166 7.14543 6.50016 7.03593 6.45641C6.95005 6.42203 6.86074 6.38628 6.79249 6.41041ZM9.50668 9.33234C10.0156 8.93141 10.2026 8.27678 10.2026 7.87353C10.2026 7.55478 9.98811 7.6551 9.6448 7.8251L9.62543 7.83466C9.3103 7.99072 8.8908 8.19853 8.4303 8.19853C7.96974 8.19853 7.55024 7.99072 7.23518 7.83459C6.88074 7.65903 6.65843 7.54891 6.65843 7.87359C6.65843 8.2896 6.8573 8.97266 7.40318 9.36947C7.47524 9.22328 7.57668 9.09353 7.70118 8.98828C7.82561 8.88303 7.97049 8.8046 8.12661 8.75785C8.18111 8.7416 8.23724 8.83541 8.29468 8.93147C8.35011 9.0241 8.4068 9.11884 8.46443 9.11884C8.52586 9.11884 8.58618 9.02547 8.64511 8.93435C8.70668 8.83903 8.76674 8.74622 8.8248 8.76478C9.11699 8.8586 9.36143 9.06203 9.50668 9.33234Z" fill="#32343D"/>
<path d="M9.50572 9.33233C9.24066 9.5412 8.88834 9.68127 8.42953 9.68127C7.99847 9.68127 7.66134 9.55764 7.40234 9.36945C7.47441 9.22327 7.57584 9.09345 7.70034 8.98827C7.82478 8.88302 7.96966 8.80458 8.12578 8.75783C8.23278 8.72589 8.34622 9.11883 8.46359 9.11883C8.58922 9.11883 8.71028 8.72845 8.82397 8.76476C9.11609 8.85864 9.36047 9.06208 9.50572 9.33233Z" fill="#FF323D"/>
<path fill-rule="evenodd" clip-rule="evenodd" d="M5.57488 6.97745C5.51433 7.01795 5.44471 7.04288 5.3722 7.05001C5.2997 7.0572 5.22655 7.04632 5.15925 7.01838C5.10546 6.9962 5.05658 6.96357 5.01543 6.92238C4.97427 6.88126 4.94165 6.83238 4.91944 6.77857C4.89156 6.71126 4.88072 6.63813 4.88789 6.56563C4.89505 6.49313 4.92 6.42351 4.9605 6.36295C5.00918 6.29007 5.07836 6.23328 5.15933 6.19974C5.24029 6.1662 5.32938 6.15743 5.41532 6.17454C5.50127 6.19165 5.58021 6.23387 5.64215 6.29582C5.7041 6.35782 5.74626 6.43682 5.76331 6.52276C5.7804 6.6087 5.77161 6.69776 5.73808 6.7787C5.70455 6.85963 5.64771 6.92876 5.57488 6.97745ZM11.9132 6.97745C11.8526 7.01795 11.783 7.04288 11.7105 7.05001C11.6379 7.0572 11.5648 7.04632 11.4975 7.01838C11.4437 6.99613 11.3948 6.96357 11.3537 6.92238C11.3126 6.88126 11.2799 6.83238 11.2577 6.77857C11.2299 6.71126 11.2191 6.63813 11.2262 6.56563C11.2334 6.49313 11.2583 6.42351 11.2988 6.36295C11.3351 6.30845 11.3832 6.26276 11.4394 6.22906C11.4956 6.19538 11.5585 6.17458 11.6237 6.16818C11.6889 6.16177 11.7548 6.1699 11.8164 6.192C11.8781 6.2141 11.9341 6.2496 11.9804 6.29595C12.0424 6.35788 12.0846 6.43682 12.1016 6.52276C12.1188 6.6087 12.1099 6.69776 12.0764 6.7787C12.0428 6.85963 11.9861 6.92876 11.9132 6.97745Z" fill="#FFAD03"/>
</svg>
