<svg width="17" height="16" viewBox="0 0 17 16" fill="none" xmlns="http://www.w3.org/2000/svg">
<path fill-rule="evenodd" clip-rule="evenodd" d="M5.76978 0.726646C5.91378 0.783313 6.04378 0.876646 6.16178 0.99998C6.35845 1.20398 6.52445 1.49598 6.65111 1.84198C6.77845 2.18998 6.86111 2.57531 6.89245 2.96198C7.31219 2.72452 7.77801 2.57993 8.25844 2.53798L8.29245 2.53531C8.87245 2.48865 9.44578 2.59331 9.94578 2.85131C10.0131 2.88665 10.0791 2.92465 10.1438 2.96465C10.1771 2.58531 10.2584 2.20865 10.3838 1.86865C10.5104 1.52198 10.6764 1.23065 10.8724 1.02598C10.982 0.907489 11.116 0.814225 11.2651 0.752646C11.4364 0.68598 11.6184 0.67398 11.7958 0.724646C12.0631 0.800646 12.2924 0.96998 12.4731 1.21598C12.6384 1.44065 12.7624 1.72865 12.8471 2.07398C13.0004 2.69665 13.0271 3.51598 12.9238 4.50398L12.9591 4.53065L12.9764 4.54331C13.4811 4.92731 13.8324 5.47465 14.0184 6.10998C14.3084 7.10131 14.1624 8.21331 13.6624 8.83531L13.6504 8.84931L13.6518 8.85131C13.9298 9.35931 14.0984 9.89598 14.1344 10.4513L14.1358 10.4713C14.1784 11.1813 14.0024 11.896 13.5931 12.598L13.5884 12.6046L13.5951 12.6206C13.9098 13.392 14.0084 14.1686 13.8871 14.9446L13.8831 14.9706C13.8643 15.084 13.8013 15.1853 13.708 15.2523C13.6146 15.3192 13.4985 15.3465 13.3851 15.328C13.329 15.3192 13.2751 15.2995 13.2266 15.2698C13.1781 15.2402 13.1359 15.2013 13.1025 15.1554C13.069 15.1094 13.045 15.0573 13.0317 15.002C13.0184 14.9468 13.0162 14.8894 13.0251 14.8333C13.1364 14.1446 13.0318 13.454 12.7051 12.7513C12.6746 12.686 12.6611 12.6141 12.6658 12.5422C12.6704 12.4703 12.6931 12.4008 12.7318 12.34L12.7344 12.336C13.1371 11.72 13.3038 11.116 13.2678 10.5226C13.2371 10.0033 13.0511 9.49331 12.7344 9.00731C12.6729 8.91283 12.6509 8.79791 12.6734 8.68738C12.6958 8.57686 12.7609 8.47961 12.8544 8.41665L12.8604 8.41265C13.0224 8.30665 13.1718 8.03598 13.2471 7.66598C13.3302 7.22847 13.3085 6.77749 13.1838 6.34998C13.0471 5.88331 12.7971 5.49398 12.4471 5.22798C12.0504 4.92531 11.5251 4.77931 10.8604 4.82131C10.7735 4.82696 10.6869 4.80642 10.6118 4.76232C10.5367 4.71823 10.4765 4.65262 10.4391 4.57398C10.2298 4.13065 9.92444 3.81331 9.54378 3.61665C9.17831 3.43425 8.76915 3.35759 8.36244 3.39531C7.53244 3.46131 6.80044 3.92931 6.58244 4.51931C6.55161 4.60235 6.49613 4.67398 6.42345 4.72462C6.35077 4.77526 6.26436 4.80248 6.17578 4.80265C5.46445 4.80398 4.91378 4.97065 4.51111 5.27131C4.16311 5.53131 3.92578 5.89465 3.80045 6.32998C3.68703 6.73975 3.6715 7.17044 3.75511 7.58731C3.82978 7.95931 3.97578 8.26731 4.14311 8.43331L4.14845 8.43798C4.28978 8.57598 4.31978 8.79131 4.22111 8.96131C3.98111 9.37598 3.80178 9.99398 3.77245 10.588C3.73911 11.2666 3.89645 11.856 4.25178 12.2786L4.26245 12.2913C4.31607 12.3538 4.35056 12.4304 4.36179 12.512C4.37302 12.5936 4.36052 12.6767 4.32578 12.7513C3.94178 13.5753 3.82378 14.2526 3.95111 14.786C3.974 14.8969 3.95271 15.0123 3.89176 15.1078C3.83081 15.2032 3.73503 15.2711 3.62479 15.297C3.51455 15.3229 3.39856 15.3047 3.3015 15.2464C3.20444 15.1881 3.13398 15.0941 3.10511 14.9846C2.94311 14.306 3.05311 13.5286 3.42045 12.6526L3.42978 12.6293L3.42445 12.6213C3.24391 12.3546 3.10916 12.0597 3.02578 11.7486L3.02245 11.736C2.92125 11.3479 2.88144 10.9464 2.90445 10.546C2.93378 9.93931 3.08978 9.31798 3.31911 8.81931L3.32711 8.80198L3.32578 8.80065C3.13045 8.52198 2.98578 8.16531 2.90578 7.77065L2.90245 7.75465C2.79222 7.20414 2.81346 6.6354 2.96445 6.09465C3.13911 5.48465 3.48245 4.96065 3.98845 4.58198C4.02845 4.55198 4.07045 4.52198 4.11245 4.49398C4.00645 3.49865 4.03311 2.67398 4.18711 2.04731C4.27178 1.70198 4.39645 1.41398 4.56178 1.18931C4.74178 0.94398 4.97111 0.774646 5.23845 0.69798C5.41578 0.647313 5.59845 0.658646 5.76978 0.72598V0.726646ZM8.51378 6.78665C9.13778 6.78665 9.71378 6.99531 10.1444 7.35665C10.5644 7.70798 10.8144 8.17998 10.8144 8.64998C10.8144 9.24198 10.5438 9.70331 10.0591 9.99798C9.64578 10.248 9.09178 10.3693 8.45711 10.3693C7.78445 10.3693 7.20978 10.1966 6.79511 9.87998C6.38378 9.56665 6.15311 9.12665 6.15311 8.64998C6.15311 8.17865 6.41845 7.70531 6.85711 7.35265C7.30245 6.99465 7.89045 6.78665 8.51378 6.78665ZM8.51378 7.38398C8.05127 7.37994 7.60103 7.53269 7.23644 7.81731C6.92911 8.06398 6.75511 8.37398 6.75511 8.65065C6.75511 8.93598 6.89511 9.20331 7.16178 9.40665C7.46511 9.63798 7.91111 9.77198 8.45711 9.77198C8.98978 9.77198 9.43911 9.67398 9.74511 9.48798C10.0538 9.30131 10.2118 9.03065 10.2118 8.64998C10.2118 8.36798 10.0478 8.05665 9.75645 7.81265C9.43378 7.54265 8.99644 7.38398 8.51378 7.38398ZM8.95511 8.19065L8.95778 8.19331C9.03778 8.29398 9.02111 8.43998 8.92044 8.51998L8.72578 8.67331V8.97065C8.72543 9.03684 8.69884 9.10018 8.65185 9.1468C8.60486 9.19341 8.5413 9.21949 8.47511 9.21931C8.40892 9.21949 8.34536 9.19341 8.29837 9.1468C8.25138 9.10018 8.2248 9.03684 8.22445 8.97065V8.66398L8.04378 8.51865C8.01995 8.49955 8.00013 8.47592 7.98548 8.44913C7.97082 8.42233 7.96162 8.3929 7.9584 8.36254C7.95517 8.33217 7.95799 8.30146 7.9667 8.27219C7.9754 8.24291 7.98982 8.21565 8.00911 8.19198C8.04846 8.14408 8.10512 8.11364 8.16679 8.10727C8.22845 8.10091 8.29014 8.11913 8.33845 8.15798L8.48178 8.27265L8.62844 8.15665C8.67658 8.11862 8.73767 8.10089 8.79869 8.10724C8.85971 8.11359 8.91584 8.14352 8.95511 8.19065ZM5.59511 6.91131C5.91378 6.91131 6.17311 7.17131 6.17311 7.49198C6.17329 7.64569 6.11244 7.79318 6.00394 7.90206C5.89544 8.01094 5.74816 8.07229 5.59445 8.07265C5.44097 8.07212 5.29395 8.01078 5.18562 7.90206C5.07728 7.79335 5.01644 7.64613 5.01645 7.49265C5.01609 7.33894 5.07677 7.19137 5.18514 7.08237C5.29352 6.97337 5.4414 6.91184 5.59511 6.91131ZM11.3991 6.91131C11.7191 6.91131 11.9778 7.17131 11.9778 7.49198C11.978 7.64569 11.9171 7.79318 11.8086 7.90206C11.7001 8.01094 11.5528 8.07229 11.3991 8.07265C11.2456 8.07212 11.0986 8.01078 10.9903 7.90206C10.8819 7.79335 10.8211 7.64613 10.8211 7.49265C10.8208 7.33894 10.8814 7.19137 10.9898 7.08237C11.0982 6.97337 11.2454 6.91184 11.3991 6.91131ZM5.45978 1.53331L5.45778 1.53465C5.38055 1.56823 5.31459 1.62331 5.26778 1.69331L5.26445 1.69731C5.17245 1.82331 5.09245 2.00865 5.03245 2.25198C4.91911 2.71331 4.88845 3.33931 4.94978 4.10665C5.23645 4.02131 5.54911 3.96798 5.88578 3.94865L5.89245 3.94798L5.90511 3.92531C5.93578 3.87065 5.96844 3.81798 6.00378 3.76598C6.08578 3.25198 6.01845 2.63798 5.83511 2.13665C5.74578 1.89398 5.63711 1.70331 5.53311 1.59465C5.51164 1.57205 5.48772 1.55193 5.46178 1.53465L5.45978 1.53331ZM11.5758 1.55998L11.5744 1.56065C11.5485 1.57793 11.5246 1.59805 11.5031 1.62065C11.3991 1.72931 11.2898 1.92065 11.2011 2.16331C11.0078 2.69265 10.9431 3.34731 11.0478 3.87798L11.0864 3.94265L11.0918 3.95198H11.1118C11.4426 3.95206 11.7718 3.99966 12.0891 4.09331C12.1464 3.34398 12.1144 2.73131 12.0038 2.27865C11.9438 2.03531 11.8638 1.84998 11.7711 1.72398L11.7684 1.71998C11.7217 1.64973 11.6558 1.59441 11.5784 1.56065H11.5758V1.55998Z" fill="black"/>
</svg>
