<?xml version="1.0" encoding="utf-8"?>
<svg xmlns="http://www.w3.org/2000/svg" xmlns:xlink="http://www.w3.org/1999/xlink" aria-hidden="true" focusable="false" role="img" width="1em" height="1em" preserveAspectRatio="xMidYMid meet" viewBox="0 0 32 32">
  <path d="M30.7,15h-.2L25.16,5.09a1.26,1.26,0,0,0,.15-.59A1.3,1.3,0,0,0,24,3.2a1.27,1.27,0,0,0-.93.4L12.43,1.48A1.29,1.29,0,1,0,10,2.24L1.7,14.13a1.21,1.21,0,0,0-.34-.05,1.3,1.3,0,0,0,0,2.59h0l4.5,11.07a1.38,1.38,0,0,0-.12.54,1.3,1.3,0,0,0,1.3,1.29,1.27,1.27,0,0,0,.94-.4l13.44,1.31A1.29,1.29,0,0,0,24,30.16a1.34,1.34,0,0,0-.31-.84l6.77-11.8h.22A1.3,1.3,0,0,0,32,16.24,1.28,1.28,0,0,0,30.7,15ZM23,5.29a1.26,1.26,0,0,0,.61.44l-2,15.37a1.29,1.29,0,0,0-.36.14L10,11.52a.93.93,0,0,0,.05-.34c0-.08,0-.17,0-.25Zm6.47,11.32-6.89,4.71a1.28,1.28,0,0,0-.17-.1L24.45,5.69h0l5.26,9.7a1.27,1.27,0,0,0-.32.86ZM8.57,9.9a1.28,1.28,0,0,0-1.09,1.28v.09L2.86,14,10,3.74ZM9,12.45a1.54,1.54,0,0,0,.47-.21l11.11,9.67a1.45,1.45,0,0,0-.08.47v.07l-12.4,5.1A1.3,1.3,0,0,0,7.34,27ZM20.87,23.24a1.22,1.22,0,0,0,.65.39L22.13,29a1.34,1.34,0,0,0-.59.61l-13-1.28Zm1.53.29a1.33,1.33,0,0,0,.72-1.16.83.83,0,0,0-.05-.32l6.3-4.33L23,28.8Zm.32-19.08L9.58,10.17l-.15-.1L11.1,2.91h.05a1.26,1.26,0,0,0,1.08-.59L22.72,4.41ZM2.66,15.38c0-.09,0-.17,0-.24l5.19-3.06a1.41,1.41,0,0,0,.36.27L6.5,26.86,2.22,16.34A1.28,1.28,0,0,0,2.66,15.38Z" fill="#333"></path>
  <path d="M24.49,5.69l5.25,9.7a1.32,1.32,0,0,0-.32.86,1.49,1.49,0,0,0,0,.36l-6.88,4.71-.17-.1,2-15.53Z" fill="#dededd"></path>
  <path d="M22.4,23.53a1.33,1.33,0,0,0,.72-1.16.83.83,0,0,0-.05-.32l6.3-4.33L23,28.8Z" fill="#b2b2b2"></path>
  <path d="M20.87,23.24a1.22,1.22,0,0,0,.65.39L22.13,29a1.34,1.34,0,0,0-.59.61l-13-1.28Z" fill="#d1d1d1"></path>
  <path d="M9,12.45a1.54,1.54,0,0,0,.47-.21l11.11,9.67a1.45,1.45,0,0,0-.08.47v.07l-12.4,5.1A1.3,1.3,0,0,0,7.34,27Z" fill="#f2f2f2"></path>
  <path d="M2.66,15.38c0-.09,0-.17,0-.24l5.19-3.06a1.41,1.41,0,0,0,.36.27L6.5,26.86,2.22,16.34A1.28,1.28,0,0,0,2.66,15.38Z" fill="#d8d8d7"></path>
  <path d="M8.57,9.9a1.28,1.28,0,0,0-1.09,1.28v.09L2.86,14,10,3.74Z" fill="#b2b2b2"></path>
  <path d="M22.72,4.45,9.58,10.17l-.15-.1L11.1,2.91h.05a1.26,1.26,0,0,0,1.08-.59L22.72,4.41Z" fill="#d1d1d1"></path>
  <path d="M23,5.29a1.26,1.26,0,0,0,.61.44l-2,15.37a1.29,1.29,0,0,0-.36.14L10,11.52a.93.93,0,0,0,.05-.34c0-.08,0-.17,0-.25Z" fill="#fff"></path>
</svg>