<svg width="17" height="16" viewBox="0 0 17 16" fill="none" xmlns="http://www.w3.org/2000/svg">
<g clip-path="url(#clip0_2092_1790)">
<path d="M15.85 7.50005H15.75L13.08 2.54505C13.1287 2.45432 13.1544 2.35303 13.155 2.25005C13.155 2.16427 13.138 2.07933 13.105 2.00014C13.072 1.92095 13.0237 1.84907 12.9628 1.78865C12.9019 1.72823 12.8297 1.68045 12.7502 1.64808C12.6708 1.61571 12.5857 1.59939 12.5 1.60005C12.4129 1.59972 12.3267 1.6173 12.2467 1.65171C12.1667 1.68612 12.0946 1.73661 12.035 1.80005L6.71496 0.740047C6.70184 0.64745 6.66874 0.558814 6.61795 0.480283C6.56716 0.401752 6.4999 0.335204 6.42084 0.285253C6.34177 0.235302 6.25279 0.203143 6.16006 0.191003C6.06733 0.178864 5.97307 0.187036 5.88381 0.214952C5.79455 0.242869 5.71243 0.289862 5.64314 0.352674C5.57385 0.415486 5.51905 0.492615 5.48253 0.578715C5.44602 0.664814 5.42867 0.757825 5.43167 0.851299C5.43468 0.944773 5.45798 1.03647 5.49996 1.12005L1.34996 7.06505C1.29477 7.04867 1.23753 7.04025 1.17996 7.04005C1.01805 7.05429 0.867358 7.12867 0.757581 7.24853C0.647805 7.36838 0.586914 7.52502 0.586914 7.68755C0.586914 7.85008 0.647805 8.00671 0.757581 8.12657C0.867358 8.24643 1.01805 8.32081 1.17996 8.33505L3.42996 13.87C3.39194 13.9551 3.37153 14.0469 3.36996 14.14C3.37128 14.3116 3.44034 14.4756 3.5621 14.5964C3.68386 14.7173 3.84843 14.7851 4.01996 14.785C4.10788 14.7861 4.19505 14.7688 4.27596 14.7344C4.35686 14.7 4.42973 14.6491 4.48996 14.585L11.21 15.24C11.2312 15.4111 11.3195 15.5667 11.4554 15.6727C11.5914 15.7787 11.7639 15.8263 11.935 15.805C12.106 15.7838 12.2617 15.6955 12.3676 15.5596C12.4736 15.4236 12.5212 15.2511 12.5 15.08C12.498 14.9264 12.4433 14.7781 12.345 14.66L15.73 8.76005H15.84C15.9253 8.76137 16.0101 8.74587 16.0895 8.71442C16.1688 8.68297 16.2412 8.63619 16.3025 8.57676C16.3638 8.51733 16.4128 8.44641 16.4467 8.36804C16.4805 8.28968 16.4987 8.20541 16.5 8.12005C16.4947 7.95205 16.4236 7.79286 16.302 7.67686C16.1804 7.56085 16.018 7.49734 15.85 7.50005ZM12 2.64505C12.0769 2.74772 12.1833 2.82448 12.305 2.86505L11.305 10.55C11.2418 10.5642 11.1811 10.5878 11.125 10.62L5.49996 5.76005C5.51878 5.70543 5.52726 5.64778 5.52496 5.59005C5.52496 5.55005 5.52496 5.50505 5.52496 5.46505L12 2.64505ZM15.235 8.30505L11.79 10.66C11.763 10.6412 11.7345 10.6245 11.705 10.61L12.725 2.84505L15.355 7.69505C15.2499 7.81343 15.1928 7.96678 15.195 8.12505L15.235 8.30505ZM4.78496 4.95005C4.63217 4.97297 4.49283 5.0504 4.39266 5.16803C4.29249 5.28566 4.23825 5.43555 4.23996 5.59005V5.63505L1.92996 7.00005L5.49996 1.87005L4.78496 4.95005ZM4.99996 6.22505C5.08363 6.20348 5.16307 6.16798 5.23496 6.12005L10.79 10.955C10.7638 11.0306 10.7502 11.11 10.75 11.19V11.225L4.54996 13.775C4.46194 13.6393 4.32644 13.5412 4.16996 13.5L4.99996 6.22505ZM10.935 11.62C11.0198 11.7179 11.1337 11.7862 11.26 11.815L11.565 14.5C11.4362 14.5671 11.3327 14.6741 11.27 14.805L4.76996 14.165L10.935 11.62ZM11.7 11.765C11.8068 11.7099 11.8967 11.6269 11.9601 11.5248C12.0235 11.4226 12.058 11.3052 12.06 11.185C12.0622 11.1306 12.0537 11.0762 12.035 11.025L15.185 8.86005L12 14.4L11.7 11.765ZM11.86 2.22505L5.28996 5.08505L5.21496 5.03505L6.04996 1.45505H6.07496C6.18268 1.45615 6.28889 1.42961 6.38342 1.37796C6.47796 1.32631 6.55768 1.25129 6.61496 1.16005L11.86 2.20505V2.22505ZM1.82996 7.69005C1.82996 7.64505 1.82996 7.60505 1.82996 7.57005L4.42496 6.04005C4.47735 6.09439 4.53812 6.13997 4.60496 6.17505L3.74996 13.43L1.60996 8.17005C1.67867 8.11029 1.73383 8.03657 1.77177 7.95379C1.80971 7.87102 1.82955 7.7811 1.82996 7.69005Z" fill="#333333"/>
<path d="M12.7446 2.84497L15.3696 7.69497C15.2665 7.81456 15.2098 7.96712 15.2096 8.12497C15.2023 8.18475 15.2023 8.24519 15.2096 8.30497L11.7696 10.66L11.6846 10.61L12.6846 2.84497H12.7446Z" fill="#DEDEDD"/>
<path d="M11.7002 11.765C11.807 11.7099 11.8969 11.6268 11.9603 11.5247C12.0237 11.4226 12.0582 11.3052 12.0602 11.185C12.0625 11.1305 12.054 11.0762 12.0352 11.025L15.1852 8.85999L12.0002 14.4L11.7002 11.765Z" fill="#B2B2B2"/>
<path d="M10.9345 11.62C11.0194 11.7179 11.1332 11.7862 11.2595 11.815L11.5645 14.5C11.4358 14.567 11.3322 14.6741 11.2695 14.805L4.76953 14.165L10.9345 11.62Z" fill="#D1D1D1"/>
<path d="M4.99992 6.225C5.08359 6.20343 5.16303 6.16793 5.23492 6.12L10.7899 10.955C10.7637 11.0306 10.7502 11.11 10.7499 11.19V11.225L4.54992 13.775C4.4619 13.6392 4.3264 13.5412 4.16992 13.5L4.99992 6.225Z" fill="#F2F2F2"/>
<path d="M1.83035 7.69004C1.83035 7.64504 1.83035 7.60504 1.83035 7.57004L4.42535 6.04004C4.47774 6.09439 4.53851 6.13997 4.60535 6.17504L3.75035 13.43L1.61035 8.17004C1.67906 8.11029 1.73422 8.03656 1.77216 7.95378C1.8101 7.87101 1.82994 7.78109 1.83035 7.69004Z" fill="#D8D8D7"/>
<path d="M4.78469 4.95C4.6319 4.97292 4.49255 5.05034 4.39238 5.16797C4.29221 5.28561 4.23798 5.4355 4.23969 5.59V5.635L1.92969 7L5.49969 1.87L4.78469 4.95Z" fill="#B2B2B2"/>
<path d="M11.8598 2.22503L5.28984 5.08503L5.21484 5.03503L6.04984 1.45503H6.07484C6.18256 1.45613 6.28877 1.42959 6.38331 1.37795C6.47785 1.3263 6.55757 1.25127 6.61484 1.16003L11.8598 2.20503V2.22503Z" fill="#D1D1D1"/>
<path d="M12 2.64502C12.0769 2.74769 12.1833 2.82445 12.305 2.86502L11.305 10.55C11.2418 10.5642 11.1811 10.5878 11.125 10.62L5.5 5.76002C5.51882 5.7054 5.5273 5.64775 5.525 5.59002C5.525 5.55002 5.525 5.50502 5.525 5.46502L12 2.64502Z" fill="white"/>
</g>
<defs>
<clipPath id="clip0_2092_1790">
<rect width="16" height="16" fill="white" transform="translate(0.5)"/>
</clipPath>
</defs>
</svg>
