<svg width="48" height="48" viewBox="0 0 48 48" fill="none" xmlns="http://www.w3.org/2000/svg">
<path d="M18.4102 17.316V12.7967C18.4102 12.416 18.553 12.1305 18.8858 11.9404L27.9723 6.70756C29.2091 5.99401 30.6839 5.66118 32.206 5.66118C37.9145 5.66118 41.5302 10.0854 41.5302 14.7948C41.5302 15.1278 41.5302 15.5084 41.4825 15.889L32.0632 10.3706C31.4924 10.0377 30.9214 10.0377 30.3506 10.3706L18.4102 17.316ZM39.6271 34.9176V24.1186C39.6271 23.4525 39.3415 22.9768 38.7708 22.6438L26.8303 15.6984L30.7312 13.4624C31.0641 13.2724 31.3497 13.2724 31.6826 13.4624L40.769 18.6953C43.3856 20.2178 45.1455 23.4525 45.1455 26.592C45.1455 30.2073 43.005 33.5375 39.6271 34.9172V34.9176ZM15.6035 25.4033L11.7026 23.12C11.3698 22.93 11.2269 22.6443 11.2269 22.2637V11.7981C11.2269 6.70806 15.1278 2.85449 20.4083 2.85449C22.4066 2.85449 24.2615 3.52064 25.8318 4.70989L16.4602 10.1332C15.8895 10.4661 15.6039 10.9417 15.6039 11.608V25.4037L15.6035 25.4033ZM24 30.2555L18.4102 27.1159V20.4561L24 17.3165L29.5894 20.4561V27.1159L24 30.2555ZM27.5916 44.7175C25.5934 44.7175 23.7385 44.0513 22.1682 42.8622L31.5397 37.4388C32.1105 37.1059 32.396 36.6302 32.396 35.964V22.1682L36.3447 24.4516C36.6775 24.6416 36.8204 24.9272 36.8204 25.3079V35.7735C36.8204 40.8635 32.8717 44.7171 27.5916 44.7171V44.7175ZM16.317 34.1091L7.23055 28.8763C4.61391 27.3537 2.85399 24.1191 2.85399 20.9795C2.85399 17.3165 5.04232 14.0341 8.4197 12.6544V23.5007C8.4197 24.1668 8.70533 24.6425 9.27601 24.9754L21.1692 31.8731L17.2683 34.1091C16.9355 34.2991 16.6498 34.2991 16.317 34.1091ZM15.794 41.9108C10.4184 41.9108 6.46981 37.8672 6.46981 32.8721C6.46981 32.4915 6.5175 32.1109 6.56479 31.7303L15.9364 37.1536C16.5071 37.4866 17.0782 37.4866 17.6489 37.1536L29.5894 30.256V34.7753C29.5894 35.1559 29.4466 35.4415 29.1137 35.6315L20.0273 40.8644C18.7904 41.578 17.3156 41.9108 15.7935 41.9108H15.794ZM27.5916 47.5716C33.3478 47.5716 38.1523 43.4806 39.2469 38.0572C44.5748 36.6775 48 31.6825 48 26.5925C48 23.2623 46.573 20.0277 44.0041 17.6966C44.2419 16.6975 44.3847 15.6984 44.3847 14.6998C44.3847 7.8972 38.8663 2.8067 32.4915 2.8067C31.2074 2.8067 29.9705 2.99676 28.7335 3.42517C26.5925 1.33192 23.643 0 20.4083 0C14.6522 0 9.84768 4.09092 8.75312 9.51426C3.42517 10.894 0 15.889 0 20.979C0 24.3092 1.42699 27.5438 3.99594 29.8749C3.75809 30.874 3.61533 31.8731 3.61533 32.8717C3.61533 39.6744 9.13374 44.7648 15.5084 44.7648C16.7926 44.7648 18.0295 44.5747 19.2665 44.1463C21.407 46.2396 24.3565 47.5716 27.5916 47.5716Z" fill="black"/>
</svg>
