<svg width="17" height="16" viewBox="0 0 17 16" fill="none" xmlns="http://www.w3.org/2000/svg">
<g clip-path="url(#clip0_2092_1800)">
<mask id="mask0_2092_1800" style="mask-type:luminance" maskUnits="userSpaceOnUse" x="0" y="0" width="17" height="16">
<path d="M16.5 0H0.5V16H16.5V0Z" fill="white"/>
</mask>
<g mask="url(#mask0_2092_1800)">
<path d="M6.63673 5.772V4.26557C6.63673 4.13867 6.68433 4.0435 6.79527 3.98013L9.8241 2.23585C10.2364 1.998 10.728 1.88706 11.2353 1.88706C13.1382 1.88706 14.3434 3.3618 14.3434 4.9316C14.3434 5.0426 14.3434 5.16947 14.3275 5.29633L11.1877 3.45687C10.9975 3.3459 10.8071 3.3459 10.6169 3.45687L6.63673 5.772ZM13.709 11.6392V8.03953C13.709 7.8175 13.6138 7.65893 13.4236 7.54793L9.44343 5.2328L10.7437 4.48747C10.8547 4.42413 10.9499 4.42413 11.0609 4.48747L14.0897 6.23177C14.9619 6.73927 15.5485 7.8175 15.5485 8.864C15.5485 10.0691 14.835 11.1793 13.709 11.6392ZM5.70117 8.46777L4.40087 7.70667C4.28993 7.64333 4.2423 7.5481 4.2423 7.42123V3.9327C4.2423 2.23602 5.5426 0.951497 7.30277 0.951497C7.96887 0.951497 8.58717 1.17355 9.1106 1.56996L5.98673 3.37773C5.7965 3.4887 5.7013 3.64723 5.7013 3.86933L5.70117 8.46777ZM8.5 10.0852L6.63673 9.03863V6.8187L8.5 5.77217L10.3631 6.8187V9.03863L8.5 10.0852ZM9.6972 14.9058C9.03113 14.9058 8.41283 14.6838 7.8894 14.2874L11.0132 12.4796C11.2035 12.3686 11.2987 12.2101 11.2987 11.988V7.3894L12.6149 8.15053C12.7258 8.21387 12.7735 8.30907 12.7735 8.43597V11.9245C12.7735 13.6212 11.4572 14.9058 9.6972 14.9058ZM5.939 11.3697L2.91018 9.62543C2.03797 9.1179 1.45133 8.0397 1.45133 6.99317C1.45133 5.77217 2.18077 4.67803 3.30657 4.21813V7.83357C3.30657 8.0556 3.40178 8.21417 3.592 8.32513L7.5564 10.6244L6.2561 11.3697C6.14517 11.433 6.04993 11.433 5.939 11.3697ZM5.76467 13.9703C3.9728 13.9703 2.6566 12.6224 2.6566 10.9574C2.6566 10.8305 2.6725 10.7036 2.68826 10.5768L5.81213 12.3845C6.00237 12.4955 6.19273 12.4955 6.38297 12.3845L10.3631 10.0853V11.5918C10.3631 11.7186 10.3155 11.8138 10.2046 11.8772L7.17577 13.6215C6.76347 13.8593 6.27203 13.9703 5.76467 13.9703ZM9.6972 15.8572C11.6159 15.8572 13.2174 14.4935 13.5823 12.6857C15.3583 12.2258 16.5 10.5608 16.5 8.86417C16.5 7.7541 16.0243 6.6759 15.168 5.89887C15.2473 5.56583 15.2949 5.2328 15.2949 4.89993C15.2949 2.6324 13.4554 0.935567 11.3305 0.935567C10.9025 0.935567 10.4902 0.99892 10.0778 1.14172C9.36417 0.443973 8.381 0 7.30277 0C5.38407 0 3.78256 1.36364 3.41771 3.17142C1.64172 3.63133 0.5 5.29633 0.5 6.993C0.5 8.10307 0.975663 9.18127 1.83198 9.9583C1.7527 10.2913 1.70511 10.6244 1.70511 10.9572C1.70511 13.2248 3.54458 14.9216 5.66947 14.9216C6.09753 14.9216 6.50983 14.8582 6.92217 14.7154C7.63567 15.4132 8.61883 15.8572 9.6972 15.8572Z" fill="white"/>
</g>
</g>
<defs>
<clipPath id="clip0_2092_1800">
<rect width="16" height="16" fill="white" transform="translate(0.5)"/>
</clipPath>
</defs>
</svg>
