<svg width="17" height="16" viewBox="0 0 17 16" fill="none" xmlns="http://www.w3.org/2000/svg">
<g clip-path="url(#clip0_2092_1770)">
<mask id="mask0_2092_1770" style="mask-type:luminance" maskUnits="userSpaceOnUse" x="0" y="0" width="17" height="16">
<path d="M16.5 0H0.5V16H16.5V0Z" fill="white"/>
</mask>
<g mask="url(#mask0_2092_1770)">
<mask id="mask1_2092_1770" style="mask-type:luminance" maskUnits="userSpaceOnUse" x="0" y="0" width="17" height="16">
<path d="M16.5 0H0.5V16H16.5V0Z" fill="white"/>
</mask>
<g mask="url(#mask1_2092_1770)">
<path d="M16.131 10.9838L9.24712 15.124C9.02152 15.2597 8.76328 15.3313 8.5 15.3313C8.23675 15.3313 7.97846 15.2597 7.75286 15.124L0.869003 10.9838C0.640038 10.8461 0.5 10.5985 0.5 10.3313C0.5 10.0641 0.640038 9.81645 0.869003 9.67877L7.75286 5.53867C7.97846 5.40299 8.23675 5.3313 8.5 5.3313C8.76328 5.3313 9.02152 5.40299 9.24712 5.53867L16.131 9.67877C16.36 9.81645 16.5 10.0641 16.5 10.3313C16.5 10.5985 16.36 10.8461 16.131 10.9838Z" fill="url(#paint0_linear_2092_1770)"/>
<path d="M16.131 8.65256L9.24712 12.7926C9.02152 12.9283 8.76328 13 8.5 13C8.23675 13 7.97846 12.9283 7.75286 12.7926L0.869003 8.65256C0.640038 8.5148 0.5 8.2672 0.5 8C0.5 7.73282 0.640038 7.48518 0.869003 7.34746L7.75286 3.20737C7.97846 3.07168 8.23675 3 8.5 3C8.76328 3 9.02152 3.07168 9.24712 3.20737L16.131 7.34746C16.36 7.48518 16.5 7.73282 16.5 8C16.5 8.2672 16.36 8.5148 16.131 8.65256Z" fill="url(#paint1_linear_2092_1770)"/>
<path d="M16.131 6.31818L9.24712 10.4583C9.02152 10.5939 8.76328 10.6656 8.5 10.6656C8.23675 10.6656 7.97846 10.5939 7.75286 10.4583L0.869003 6.31818C0.640038 6.18046 0.5 5.93283 0.5 5.66565C0.5 5.39846 0.640038 5.15083 0.869003 5.01311L7.75286 0.873017C7.97846 0.737337 8.23675 0.665649 8.5 0.665649C8.76328 0.665649 9.02152 0.737337 9.24712 0.873017L16.131 5.01311C16.36 5.15083 16.5 5.39846 16.5 5.66565C16.5 5.93283 16.36 6.18046 16.131 6.31818Z" fill="url(#paint2_linear_2092_1770)"/>
<path d="M11.8334 7.55765C11.8334 8.29403 11.2364 8.89099 10.5 8.89099H5.83334C5.09695 8.89099 4.5 8.29403 4.5 7.55765V2.66565H11.8334V7.55765Z" fill="url(#paint3_radial_2092_1770)" fill-opacity="0.4"/>
<path d="M11.8334 7.55765C11.8334 8.29403 11.2364 8.89099 10.5 8.89099H5.83334C5.09695 8.89099 4.5 8.29403 4.5 7.55765V2.66565H11.8334V7.55765Z" fill="url(#paint4_radial_2092_1770)" fill-opacity="0.4"/>
<path d="M11.8334 7.55765C11.8334 8.29403 11.2364 8.89099 10.5 8.89099H5.83334C5.09695 8.89099 4.5 8.29403 4.5 7.55765V2.66565H11.8334V7.55765Z" fill="url(#paint5_radial_2092_1770)" fill-opacity="0.4"/>
<path d="M11.8334 7.55765C11.8334 8.29403 11.2364 8.89099 10.5 8.89099H5.83334C5.09695 8.89099 4.5 8.29403 4.5 7.55765V2.66565H11.8334V7.55765Z" fill="url(#paint6_radial_2092_1770)" fill-opacity="0.4"/>
<path d="M11.8334 7.55765C11.8334 8.29403 11.2364 8.89099 10.5 8.89099H5.83334C5.09695 8.89099 4.5 8.29403 4.5 7.55765V2.66565H11.8334V7.55765Z" fill="url(#paint7_radial_2092_1770)" fill-opacity="0.4"/>
<path d="M11.8334 7.55765C11.8334 8.29403 11.2364 8.89099 10.5 8.89099H5.83334C5.09695 8.89099 4.5 8.29403 4.5 7.55765V2.66565H11.8334V7.55765Z" fill="url(#paint8_radial_2092_1770)" fill-opacity="0.4"/>
<path d="M8.01858 3.31028L7.76982 2.80011C7.749 2.7608 7.7104 2.72675 7.65934 2.70267C7.60826 2.67859 7.54725 2.66565 7.48468 2.66565C7.42214 2.66565 7.36112 2.67859 7.31005 2.70267C7.25898 2.72675 7.22038 2.7608 7.19957 2.80011L6.9508 3.31028C6.87498 3.46428 6.74675 3.60454 6.57612 3.72002C6.40548 3.83551 6.19708 3.92314 5.9672 3.97603L5.20177 4.14185C5.14277 4.15571 5.09168 4.18143 5.05555 4.21548C5.0194 4.24951 5 4.29019 5 4.33188C5 4.37357 5.0194 4.41423 5.05555 4.44828C5.09168 4.48231 5.14277 4.50803 5.20177 4.52191L5.9672 4.68771C6.16372 4.73139 6.34502 4.80035 6.501 4.89045C6.53005 4.90723 6.55823 4.92475 6.58548 4.94297C6.72874 5.03882 6.84258 5.152 6.92118 5.27615C6.93774 5.30231 6.95274 5.32895 6.9661 5.35602L7.21486 5.86619C7.23363 5.90162 7.26685 5.93279 7.31062 5.95622C7.3154 5.95879 7.32032 5.96127 7.32535 5.96363C7.37642 5.98771 7.43743 6.00065 7.5 6.00065C7.56257 6.00065 7.62358 5.98771 7.67465 5.96363C7.72572 5.93955 7.76432 5.9055 7.78514 5.86619L8.0339 5.35602C8.11125 5.20091 8.24182 5.05999 8.41522 4.94442C8.58864 4.82885 8.80008 4.74182 9.0328 4.69027L9.79824 4.52447C9.8572 4.51059 9.90832 4.48487 9.94448 4.45083C9.98056 4.41679 10 4.37611 10 4.33443C10 4.29274 9.98056 4.25207 9.94448 4.21803C9.90832 4.18399 9.8572 4.15827 9.79824 4.1444L9.78296 4.14185L9.01752 3.97603C8.7848 3.92448 8.57328 3.83747 8.39992 3.72188C8.22652 3.60631 8.09595 3.46539 8.01858 3.31028Z" fill="url(#paint9_linear_2092_1770)"/>
<path d="M11.0775 6.78623L11.5368 6.88572L11.546 6.88725C11.5813 6.89557 11.612 6.911 11.6336 6.93143C11.6553 6.95185 11.667 6.97625 11.667 7.00126C11.667 7.02628 11.6553 7.05068 11.6336 7.0711C11.612 7.09154 11.5813 7.10697 11.546 7.11528L11.0867 7.21477C10.947 7.2457 10.8202 7.29792 10.7161 7.36726C10.6121 7.4366 10.5337 7.52117 10.4873 7.61422L10.338 7.92032C10.3256 7.94392 10.3024 7.96434 10.2718 7.97878C10.2412 7.99323 10.2045 8.00104 10.167 8.00104C10.1295 8.00104 10.0928 7.99323 10.0622 7.97878C10.0316 7.96434 10.0084 7.94392 9.99587 7.92032L9.99539 7.91937L9.84667 7.61422C9.80051 7.52088 9.72235 7.43602 9.61827 7.3664C9.51419 7.29677 9.38715 7.24434 9.24731 7.21323L8.78803 7.11375C8.75267 7.10543 8.72195 7.09 8.70035 7.06958C8.67859 7.04915 8.66699 7.02475 8.66699 6.99974C8.66699 6.97472 8.67859 6.95032 8.70035 6.9299C8.72195 6.90946 8.75267 6.89403 8.78803 6.88572L9.24731 6.78623C9.38523 6.7545 9.51027 6.70192 9.61267 6.63262C9.71499 6.56334 9.79195 6.47918 9.83747 6.38678L9.98675 6.08068C9.99923 6.05708 10.0224 6.03666 10.053 6.02222C10.0836 6.00777 10.1203 6 10.1578 6C10.1953 6 10.232 6.00777 10.2626 6.02222C10.2932 6.03666 10.3164 6.05708 10.3288 6.08068L10.4781 6.38678C10.5245 6.47983 10.6029 6.5644 10.7069 6.63375C10.811 6.70308 10.9379 6.7553 11.0775 6.78623Z" fill="url(#paint10_linear_2092_1770)"/>
</g>
</g>
</g>
<defs>
<linearGradient id="paint0_linear_2092_1770" x1="0.5" y1="5.3313" x2="9.4888" y2="19.7133" gradientUnits="userSpaceOnUse">
<stop stop-color="#004695"/>
<stop offset="1" stop-color="#0078D4"/>
</linearGradient>
<linearGradient id="paint1_linear_2092_1770" x1="0.5" y1="3" x2="9.4888" y2="17.382" gradientUnits="userSpaceOnUse">
<stop stop-color="#0078D4"/>
<stop offset="1" stop-color="#0FAFFF"/>
</linearGradient>
<linearGradient id="paint2_linear_2092_1770" x1="0.9" y1="0.66565" x2="9.8888" y2="15.0477" gradientUnits="userSpaceOnUse">
<stop stop-color="#3BD5FF"/>
<stop offset="1" stop-color="#0FAFFF"/>
</linearGradient>
<radialGradient id="paint3_radial_2092_1770" cx="0" cy="0" r="1" gradientUnits="userSpaceOnUse" gradientTransform="translate(7.5 5.33231) rotate(90) scale(1 0.97124)">
<stop stop-color="#00204D"/>
<stop offset="1" stop-color="#00204D" stop-opacity="0"/>
</radialGradient>
<radialGradient id="paint4_radial_2092_1770" cx="0" cy="0" r="1" gradientUnits="userSpaceOnUse" gradientTransform="translate(8.5 4.99899) rotate(-14.0362) scale(1.37437 0.380635)">
<stop stop-color="#00204D"/>
<stop offset="1" stop-color="#00204D" stop-opacity="0"/>
</radialGradient>
<radialGradient id="paint5_radial_2092_1770" cx="0" cy="0" r="1" gradientUnits="userSpaceOnUse" gradientTransform="translate(6.5 4.99899) rotate(-165.964) scale(1.37437 0.384775)">
<stop stop-color="#00204D"/>
<stop offset="1" stop-color="#00204D" stop-opacity="0"/>
</radialGradient>
<radialGradient id="paint6_radial_2092_1770" cx="0" cy="0" r="1" gradientUnits="userSpaceOnUse" gradientTransform="translate(9.5 7.33231) rotate(-153.435) scale(0.745357 0.359002)">
<stop stop-color="#00204D"/>
<stop offset="1" stop-color="#00204D" stop-opacity="0"/>
</radialGradient>
<radialGradient id="paint7_radial_2092_1770" cx="0" cy="0" r="1" gradientUnits="userSpaceOnUse" gradientTransform="translate(10.8334 7.33231) rotate(-26.565) scale(0.745357 0.290223)">
<stop stop-color="#00204D"/>
<stop offset="1" stop-color="#00204D" stop-opacity="0"/>
</radialGradient>
<radialGradient id="paint8_radial_2092_1770" cx="0" cy="0" r="1" gradientUnits="userSpaceOnUse" gradientTransform="translate(10.1666 7.66565) rotate(90) scale(0.666666 0.627526)">
<stop offset="0.0638343" stop-color="#00204D"/>
<stop offset="1" stop-color="#00204D" stop-opacity="0"/>
</radialGradient>
<linearGradient id="paint9_linear_2092_1770" x1="6.43217" y1="3.09882" x2="8.32475" y2="8.55931" gradientUnits="userSpaceOnUse">
<stop stop-color="white"/>
<stop offset="1" stop-color="#DFFAFF"/>
</linearGradient>
<linearGradient id="paint10_linear_2092_1770" x1="6.43248" y1="3.09983" x2="8.32506" y2="8.56032" gradientUnits="userSpaceOnUse">
<stop stop-color="white"/>
<stop offset="1" stop-color="#DFFAFF"/>
</linearGradient>
<clipPath id="clip0_2092_1770">
<rect width="16" height="16" fill="white" transform="translate(0.5)"/>
</clipPath>
</defs>
</svg>
