<svg width="20" height="20" viewBox="0 0 20 20" fill="none" xmlns="http://www.w3.org/2000/svg">
<g clip-path="url(#clip0_1729_11660)">
<mask id="mask0_1729_11660" style="mask-type:luminance" maskUnits="userSpaceOnUse" x="0" y="0" width="20" height="20">
<path d="M20 0H0V20H20V0Z" fill="white"/>
</mask>
<g mask="url(#mask0_1729_11660)">
<path d="M19.5388 13.7297L10.9339 18.9049C10.6519 19.0745 10.3291 19.1641 10 19.1641C9.67094 19.1641 9.34808 19.0745 9.06608 18.9049L0.461254 13.7297C0.175048 13.5576 0 13.248 0 12.9141C0 12.5801 0.175048 12.2705 0.461254 12.0984L9.06608 6.92327C9.34808 6.75367 9.67094 6.66406 10 6.66406C10.3291 6.66406 10.6519 6.75367 10.9339 6.92327L19.5388 12.0984C19.825 12.2705 20 12.5801 20 12.9141C20 13.248 19.825 13.5576 19.5388 13.7297Z" fill="url(#paint0_linear_1729_11660)"/>
<path d="M19.5388 10.8157L10.9339 15.9908C10.6519 16.1604 10.3291 16.25 10 16.25C9.67094 16.25 9.34808 16.1604 9.06608 15.9908L0.461254 10.8157C0.175048 10.6435 0 10.334 0 10C0 9.66602 0.175048 9.35648 0.461254 9.18433L9.06608 4.00921C9.34808 3.8396 9.67094 3.75 10 3.75C10.3291 3.75 10.6519 3.8396 10.9339 4.00921L19.5388 9.18433C19.825 9.35648 20 9.66602 20 10C20 10.334 19.825 10.6435 19.5388 10.8157Z" fill="url(#paint1_linear_1729_11660)"/>
<path d="M19.5388 7.8977L10.9339 13.0728C10.6519 13.2424 10.3291 13.332 10 13.332C9.67094 13.332 9.34808 13.2424 9.06608 13.0728L0.461254 7.8977C0.175048 7.72555 0 7.41601 0 7.08203C0 6.74805 0.175048 6.43851 0.461254 6.26636L9.06608 1.09124C9.34808 0.92164 9.67094 0.832031 10 0.832031C10.3291 0.832031 10.6519 0.92164 10.9339 1.09124L19.5388 6.26636C19.825 6.43851 20 6.74805 20 7.08203C20 7.41601 19.825 7.72555 19.5388 7.8977Z" fill="url(#paint2_linear_1729_11660)"/>
<path d="M14.1667 9.44703C14.1667 10.3675 13.4205 11.1137 12.5 11.1137H6.66667C5.74619 11.1137 5 10.3675 5 9.44703V3.33203H14.1667V9.44703Z" fill="url(#paint3_radial_1729_11660)" fill-opacity="0.4"/>
<path d="M14.1667 9.44703C14.1667 10.3675 13.4205 11.1137 12.5 11.1137H6.66667C5.74619 11.1137 5 10.3675 5 9.44703V3.33203H14.1667V9.44703Z" fill="url(#paint4_radial_1729_11660)" fill-opacity="0.4"/>
<path d="M14.1667 9.44703C14.1667 10.3675 13.4205 11.1137 12.5 11.1137H6.66667C5.74619 11.1137 5 10.3675 5 9.44703V3.33203H14.1667V9.44703Z" fill="url(#paint5_radial_1729_11660)" fill-opacity="0.4"/>
<path d="M14.1667 9.44703C14.1667 10.3675 13.4205 11.1137 12.5 11.1137H6.66667C5.74619 11.1137 5 10.3675 5 9.44703V3.33203H14.1667V9.44703Z" fill="url(#paint6_radial_1729_11660)" fill-opacity="0.4"/>
<path d="M14.1667 9.44703C14.1667 10.3675 13.4205 11.1137 12.5 11.1137H6.66667C5.74619 11.1137 5 10.3675 5 9.44703V3.33203H14.1667V9.44703Z" fill="url(#paint7_radial_1729_11660)" fill-opacity="0.4"/>
<path d="M14.1667 9.44703C14.1667 10.3675 13.4205 11.1137 12.5 11.1137H6.66667C5.74619 11.1137 5 10.3675 5 9.44703V3.33203H14.1667V9.44703Z" fill="url(#paint8_radial_1729_11660)" fill-opacity="0.4"/>
<path d="M9.39823 4.13782L9.08727 3.50011C9.06125 3.45097 9.013 3.40841 8.94917 3.3783C8.88533 3.3482 8.80906 3.33203 8.73085 3.33203C8.65267 3.33203 8.5764 3.3482 8.51256 3.3783C8.44873 3.40841 8.40048 3.45097 8.37446 3.50011L8.0635 4.13782C7.96873 4.33032 7.80844 4.50564 7.59515 4.64999C7.38185 4.79436 7.12135 4.90389 6.834 4.97001L5.87721 5.17728C5.80346 5.19461 5.7396 5.22676 5.69444 5.26932C5.64925 5.31186 5.625 5.3627 5.625 5.41482C5.625 5.46693 5.64925 5.51776 5.69444 5.56032C5.7396 5.60286 5.80346 5.63501 5.87721 5.65236L6.834 5.85961C7.07965 5.9142 7.30627 6.00041 7.50125 6.11303C7.53756 6.13401 7.57279 6.15591 7.60685 6.17868C7.78592 6.29849 7.92823 6.43997 8.02648 6.59516C8.04717 6.62786 8.06592 6.66116 8.08263 6.69499L8.39358 7.3327C8.41704 7.37699 8.45856 7.41595 8.51327 7.44524C8.51925 7.44845 8.5254 7.45155 8.53169 7.45451C8.59552 7.48461 8.67179 7.50078 8.75 7.50078C8.82821 7.50078 8.90448 7.48461 8.96831 7.45451C9.03215 7.42441 9.0804 7.38184 9.10642 7.3327L9.41737 6.69499C9.51406 6.50111 9.67727 6.32495 9.89402 6.18049C10.1108 6.03603 10.3751 5.92724 10.666 5.8628L11.6228 5.65555C11.6965 5.6382 11.7604 5.60605 11.8056 5.56351C11.8507 5.52095 11.875 5.47011 11.875 5.41801C11.875 5.36589 11.8507 5.31505 11.8056 5.27251C11.7604 5.22995 11.6965 5.1978 11.6228 5.18047L11.6037 5.17728L10.6469 4.97001C10.356 4.90557 10.0916 4.7968 9.8749 4.65232C9.65815 4.50786 9.49494 4.3317 9.39823 4.13782Z" fill="url(#paint9_linear_1729_11660)"/>
<path d="M13.2221 8.48279L13.7962 8.60715L13.8077 8.60906C13.8519 8.61946 13.8902 8.63875 13.9173 8.66429C13.9444 8.68981 13.959 8.72031 13.959 8.75158C13.959 8.78285 13.9444 8.81335 13.9173 8.83888C13.8902 8.86442 13.8519 8.88371 13.8077 8.8941L13.2336 9.01846C13.059 9.05713 12.9005 9.1224 12.7704 9.20908C12.6404 9.29575 12.5424 9.40146 12.4844 9.51777L12.2978 9.9004C12.2822 9.9299 12.2533 9.95542 12.215 9.97348C12.1767 9.99154 12.1309 10.0013 12.084 10.0013C12.0371 10.0013 11.9913 9.99154 11.953 9.97348C11.9147 9.95542 11.8858 9.9299 11.8701 9.9004L11.8695 9.89921L11.6836 9.51777C11.6259 9.4011 11.5282 9.29502 11.3981 9.208C11.268 9.12096 11.1092 9.05542 10.9344 9.01654L10.3603 8.89219C10.3161 8.88179 10.2777 8.8625 10.2507 8.83698C10.2235 8.81144 10.209 8.78094 10.209 8.74967C10.209 8.7184 10.2235 8.6879 10.2507 8.66237C10.2777 8.63683 10.3161 8.61754 10.3603 8.60715L10.9344 8.48279C11.1068 8.44312 11.2631 8.3774 11.3911 8.29077C11.519 8.20417 11.6152 8.09898 11.6721 7.98348L11.8587 7.60085C11.8743 7.57135 11.9032 7.54583 11.9415 7.52777C11.9798 7.50971 12.0256 7.5 12.0725 7.5C12.1194 7.5 12.1652 7.50971 12.2035 7.52777C12.2418 7.54583 12.2707 7.57135 12.2863 7.60085L12.4729 7.98348C12.5309 8.09979 12.6289 8.2055 12.7589 8.29219C12.889 8.37885 13.0476 8.44412 13.2221 8.48279Z" fill="url(#paint10_linear_1729_11660)"/>
</g>
</g>
<defs>
<linearGradient id="paint0_linear_1729_11660" x1="0" y1="6.66406" x2="11.236" y2="24.6416" gradientUnits="userSpaceOnUse">
<stop stop-color="#004695"/>
<stop offset="1" stop-color="#0078D4"/>
</linearGradient>
<linearGradient id="paint1_linear_1729_11660" x1="0" y1="3.75" x2="11.236" y2="21.7275" gradientUnits="userSpaceOnUse">
<stop stop-color="#0078D4"/>
<stop offset="1" stop-color="#0FAFFF"/>
</linearGradient>
<linearGradient id="paint2_linear_1729_11660" x1="0.5" y1="0.832031" x2="11.736" y2="18.8096" gradientUnits="userSpaceOnUse">
<stop stop-color="#3BD5FF"/>
<stop offset="1" stop-color="#0FAFFF"/>
</linearGradient>
<radialGradient id="paint3_radial_1729_11660" cx="0" cy="0" r="1" gradientUnits="userSpaceOnUse" gradientTransform="translate(8.75 6.66536) rotate(90) scale(1.25 1.21405)">
<stop stop-color="#00204D"/>
<stop offset="1" stop-color="#00204D" stop-opacity="0"/>
</radialGradient>
<radialGradient id="paint4_radial_1729_11660" cx="0" cy="0" r="1" gradientUnits="userSpaceOnUse" gradientTransform="translate(10 6.2487) rotate(-14.0362) scale(1.71796 0.475794)">
<stop stop-color="#00204D"/>
<stop offset="1" stop-color="#00204D" stop-opacity="0"/>
</radialGradient>
<radialGradient id="paint5_radial_1729_11660" cx="0" cy="0" r="1" gradientUnits="userSpaceOnUse" gradientTransform="translate(7.5 6.2487) rotate(-165.964) scale(1.71796 0.480969)">
<stop stop-color="#00204D"/>
<stop offset="1" stop-color="#00204D" stop-opacity="0"/>
</radialGradient>
<radialGradient id="paint6_radial_1729_11660" cx="0" cy="0" r="1" gradientUnits="userSpaceOnUse" gradientTransform="translate(11.25 9.16536) rotate(-153.435) scale(0.931696 0.448752)">
<stop stop-color="#00204D"/>
<stop offset="1" stop-color="#00204D" stop-opacity="0"/>
</radialGradient>
<radialGradient id="paint7_radial_1729_11660" cx="0" cy="0" r="1" gradientUnits="userSpaceOnUse" gradientTransform="translate(12.9167 9.16536) rotate(-26.565) scale(0.931696 0.362779)">
<stop stop-color="#00204D"/>
<stop offset="1" stop-color="#00204D" stop-opacity="0"/>
</radialGradient>
<radialGradient id="paint8_radial_1729_11660" cx="0" cy="0" r="1" gradientUnits="userSpaceOnUse" gradientTransform="translate(12.0833 9.58203) rotate(90) scale(0.833333 0.784408)">
<stop offset="0.0638343" stop-color="#00204D"/>
<stop offset="1" stop-color="#00204D" stop-opacity="0"/>
</radialGradient>
<linearGradient id="paint9_linear_1729_11660" x1="7.41521" y1="3.87349" x2="9.78094" y2="10.6991" gradientUnits="userSpaceOnUse">
<stop stop-color="white"/>
<stop offset="1" stop-color="#DFFAFF"/>
</linearGradient>
<linearGradient id="paint10_linear_1729_11660" x1="7.41586" y1="3.87479" x2="9.78159" y2="10.7004" gradientUnits="userSpaceOnUse">
<stop stop-color="white"/>
<stop offset="1" stop-color="#DFFAFF"/>
</linearGradient>
<clipPath id="clip0_1729_11660">
<rect width="20" height="20" fill="white"/>
</clipPath>
</defs>
</svg>
