<svg xmlns="http://www.w3.org/2000/svg" xmlns:xlink="http://www.w3.org/1999/xlink" width="322" height="44" viewBox="0 0 322 44">
  <defs>
    <clipPath id="clip-Off-Disabled">
      <rect width="322" height="44"/>
    </clipPath>
  </defs>
  <g id="Off-Disabled" clip-path="url(#clip-Off-Disabled)">
    <rect width="322" height="44" fill="#f1f1f1"/>
    <g id="Background" fill="#1f1f1f">
      <path d="M 321.5 43.5 L 0.5 43.5 L 0.5 0.5 L 321.5 0.5 L 321.5 43.5 Z" stroke="none"/>
      <path d="M 1 1 L 1 43 L 321 43 L 321 1 L 1 1 M 0 0 L 322 0 L 322 44 L 0 44 L 0 0 Z" stroke="none" fill="#313131"/>
    </g>
    <rect id="Divider" width="1" height="24" transform="translate(161 10)" fill="#313131"/>
    <text id="Camera_label" data-name="Camera label" transform="translate(200 13)" fill="#585858" font-size="12" font-family="SegoeUI, Segoe UI"><tspan x="0" y="13">Camera not in use</tspan></text>
    <path id="Camera_disabled_icon" data-name="Camera disabled icon" d="M12.5,509.031a3.408,3.408,0,0,1,1.359.272,3.634,3.634,0,0,1,1.117.745,3.348,3.348,0,0,1,.75,1.1A3.555,3.555,0,0,1,16,512.508a3.35,3.35,0,0,1-.273,1.351,3.608,3.608,0,0,1-.75,1.11,3.371,3.371,0,0,1-1.109.745,3.617,3.617,0,0,1-1.367.272,3.407,3.407,0,0,1-1.359-.272,3.634,3.634,0,0,1-1.117-.745,3.347,3.347,0,0,1-.75-1.1A3.555,3.555,0,0,1,9,512.508a3.351,3.351,0,0,1,.273-1.351,3.608,3.608,0,0,1,.75-1.11,3.371,3.371,0,0,1,1.109-.745A3.616,3.616,0,0,1,12.5,509.031ZM10,512.508a2.393,2.393,0,0,0,.2.963,2.585,2.585,0,0,0,.531.792,2.423,2.423,0,0,0,.8.536,2.491,2.491,0,0,0,.977.194,2.591,2.591,0,0,0,.719-.1,2.241,2.241,0,0,0,.656-.31l-3.461-3.439a2.334,2.334,0,0,0-.3.652A2.76,2.76,0,0,0,10,512.508Zm4.586,1.366a2.333,2.333,0,0,0,.3-.652,2.759,2.759,0,0,0,.109-.714,2.393,2.393,0,0,0-.2-.963,2.428,2.428,0,0,0-.539-.784,2.725,2.725,0,0,0-.8-.536,2.353,2.353,0,0,0-.969-.2,2.593,2.593,0,0,0-.719.1,2.245,2.245,0,0,0-.656.311ZM16,504v5.326a4.453,4.453,0,0,0-1-.823v-2.9l-3,1.5v.714a4.157,4.157,0,0,0-.508.078,4.1,4.1,0,0,0-.492.14v-2.981H1v5.962H8a4.038,4.038,0,0,0-.219.994H0v-7.95H12v1.925Z" transform="translate(171 -486)" fill="#585858"/>
    <path id="Mic_off_icon" data-name="Mic off icon" d="M23.943,2.531l-1.019-1V1.5a1.448,1.448,0,0,1,.119-.586A1.5,1.5,0,0,1,23.37.437,1.538,1.538,0,0,1,24.453,0h4.076a1.538,1.538,0,0,1,1.083.437,1.5,1.5,0,0,1,.326.477,1.448,1.448,0,0,1,.119.586V8.531l-1.019-1V1.5a.472.472,0,0,0-.143-.352A.529.529,0,0,0,28.528,1H24.453a.491.491,0,0,0-.358.141.509.509,0,0,0-.151.359ZM32.095,8v2.523l-1.019-.992V8ZM35,15.148l-.716.7-3-2.945a3.218,3.218,0,0,1-1.106.8A3.388,3.388,0,0,1,28.831,14H27v1h2.038v1H23.943V15h2.038V14H24.15a3.206,3.206,0,0,1-1.266-.25,3.307,3.307,0,0,1-1.035-.687,3.239,3.239,0,0,1-.7-1.016,3.16,3.16,0,0,1-.263-1.25V8h1.019v2.8a2.093,2.093,0,0,0,.175.852,2.238,2.238,0,0,0,.486.7,2.2,2.2,0,0,0,.708.469,2.493,2.493,0,0,0,.876.18h4.681a2.187,2.187,0,0,0,.947-.211,2.427,2.427,0,0,0,.78-.586l-.812-.8a1.486,1.486,0,0,1-.533.438,1.613,1.613,0,0,1-.685.164H24.453a1.538,1.538,0,0,1-1.083-.437,1.5,1.5,0,0,1-.326-.477,1.448,1.448,0,0,1-.119-.586V4.711L19,.852l.716-.7ZM28.528,11a.5.5,0,0,0,.287-.086.526.526,0,0,0,.191-.234L23.943,5.711V10.5a.472.472,0,0,0,.143.352.529.529,0,0,0,.366.148Z" transform="translate(-9 14)" fill="#fff"/>
    <text id="Mic_label" data-name="Mic label" transform="translate(38 13)" fill="#fff" font-size="12" font-family="SegoeUI, Segoe UI"><tspan x="0" y="13">Microphone off</tspan></text>
  </g>
</svg>
