<?xml version="1.0" encoding="UTF-8"?>
<svg width="53px" height="52px" viewBox="0 0 53 52" version="1.1" xmlns="http://www.w3.org/2000/svg" xmlns:xlink="http://www.w3.org/1999/xlink">
    <!-- Generator: Sketch 54.1 (76490) - https://sketchapp.com -->
    <title>0</title>
    <desc>Created with Sketch.</desc>
    <g id="Devices" stroke="none" stroke-width="1" fill="none" fill-rule="evenodd">
        <g id="Artboard" transform="translate(-7.000000, -159.000000)">
            <g id="0" transform="translate(7.000000, 159.000000)">
                <rect id="Rectangle" fill="#000000" x="7" y="6" width="40" height="40"></rect>
                <g id="left" transform="translate(0.000000, 14.000000)" fill="#000000">
                    <rect id="carat" transform="translate(12.000000, 12.000000) rotate(-314.000000) translate(-12.000000, -12.000000) " x="4" y="4" width="16" height="16"></rect>
                </g>
                <g id="bottom" transform="translate(15.000000, 28.000000)" fill="#000000">
                    <rect id="carat" transform="translate(12.000000, 12.000000) rotate(-314.000000) translate(-12.000000, -12.000000) " x="4" y="4" width="16" height="16"></rect>
                </g>
                <g id="right" transform="translate(29.000000, 14.000000)" fill="#000000">
                    <rect id="carat" transform="translate(12.000000, 12.000000) rotate(-314.000000) translate(-12.000000, -12.000000) " x="4" y="4" width="16" height="16"></rect>
                </g>
                <g id="top" transform="translate(16.000000, 0.000000)" fill="#000000">
                    <rect id="carat" transform="translate(11.311985, 12.000000) rotate(-314.000000) translate(-11.311985, -12.000000) " x="3.31198537" y="4" width="16" height="16"></rect>
                </g>
                <path d="M26.5,31.1376953 C24.166655,31.1376953 23,29.4993653 23,26.2226562 C23,24.522778 23.3155893,23.2273808 23.9467773,22.3364258 C24.5779654,21.4454708 25.4928325,21 26.6914062,21 C28.9700635,21 30.109375,22.6656734 30.109375,25.9970703 C30.109375,27.6559328 29.798343,28.9274044 29.1762695,29.8115234 C28.5541961,30.6956424 27.6621152,31.1376953 26.5,31.1376953 Z M26.5957031,22.6474609 C25.6614537,22.6474609 25.1943359,23.8209518 25.1943359,26.1679688 C25.1943359,28.3782663 25.6523392,29.4833984 26.5683594,29.4833984 C27.461593,29.4833984 27.9082031,28.3440869 27.9082031,26.0654297 C27.9082031,23.7867725 27.4707075,22.6474609 26.5957031,22.6474609 Z" fill="#FFFFFF" fill-rule="nonzero"></path>
            </g>
        </g>
    </g>
</svg>