<?xml version="1.0" encoding="UTF-8"?>
<svg width="53px" height="52px" viewBox="0 0 53 52" version="1.1" xmlns="http://www.w3.org/2000/svg" xmlns:xlink="http://www.w3.org/1999/xlink">
    <!-- Generator: Sketch 54.1 (76490) - https://sketchapp.com -->
    <title>1</title>
    <desc>Created with Sketch.</desc>
    <g id="Devices" stroke="none" stroke-width="1" fill="none" fill-rule="evenodd">
        <g id="Artboard" transform="translate(-67.000000, -159.000000)">
            <g id="1" transform="translate(67.000000, 159.000000)">
                <rect id="Rectangle" fill="#000000" x="7" y="6" width="40" height="40"></rect>
                <g id="left" transform="translate(0.000000, 14.000000)" fill="#000000">
                    <rect id="carat" transform="translate(12.000000, 12.000000) rotate(-314.000000) translate(-12.000000, -12.000000) " x="4" y="4" width="16" height="16"></rect>
                </g>
                <g id="bottom" transform="translate(15.000000, 28.000000)" fill="#000000">
                    <rect id="carat" transform="translate(12.000000, 12.000000) rotate(-314.000000) translate(-12.000000, -12.000000) " x="4" y="4" width="16" height="16"></rect>
                </g>
                <g id="right" transform="translate(29.000000, 14.000000)" fill="#000000">
                    <rect id="carat" transform="translate(12.000000, 12.000000) rotate(-314.000000) translate(-12.000000, -12.000000) " x="4" y="4" width="16" height="16"></rect>
                </g>
                <g id="top" transform="translate(16.000000, 0.000000)" fill="#000000">
                    <rect id="carat" transform="translate(11.311985, 12.000000) rotate(-314.000000) translate(-11.311985, -12.000000) " x="3.31198537" y="4" width="16" height="16"></rect>
                </g>
                <polygon fill="#FFFFFF" fill-rule="nonzero" points="30.2548828 30.9667969 24.0546875 30.9667969 24.0546875 29.2578125 26.0849609 29.2578125 26.0849609 23.1533203 24 23.6044922 24 21.8544922 28.2382812 21 28.2382812 29.2578125 30.2548828 29.2578125"></polygon>
            </g>
        </g>
    </g>
</svg>