<?xml version="1.0" encoding="UTF-8"?>
<svg width="53px" height="52px" viewBox="0 0 53 52" version="1.1" xmlns="http://www.w3.org/2000/svg" xmlns:xlink="http://www.w3.org/1999/xlink">
    <!-- Generator: Sketch 54.1 (76490) - https://sketchapp.com -->
    <title>3</title>
    <desc>Created with Sketch.</desc>
    <g id="Devices" stroke="none" stroke-width="1" fill="none" fill-rule="evenodd">
        <g id="Artboard" transform="translate(-187.000000, -159.000000)">
            <g id="3" transform="translate(187.000000, 159.000000)">
                <rect id="Rectangle" fill="#000000" x="7" y="6" width="40" height="40"></rect>
                <g id="left" transform="translate(0.000000, 14.000000)" fill="#000000">
                    <rect id="carat" transform="translate(12.000000, 12.000000) rotate(-314.000000) translate(-12.000000, -12.000000) " x="4" y="4" width="16" height="16"></rect>
                </g>
                <g id="bottom" transform="translate(15.000000, 28.000000)" fill="#000000">
                    <rect id="carat" transform="translate(12.000000, 12.000000) rotate(-314.000000) translate(-12.000000, -12.000000) " x="4" y="4" width="16" height="16"></rect>
                </g>
                <g id="right" transform="translate(29.000000, 14.000000)" fill="#000000">
                    <rect id="carat" transform="translate(12.000000, 12.000000) rotate(-314.000000) translate(-12.000000, -12.000000) " x="4" y="4" width="16" height="16"></rect>
                </g>
                <g id="top" transform="translate(16.000000, 0.000000)" fill="#000000">
                    <rect id="carat" transform="translate(11.311985, 12.000000) rotate(-314.000000) translate(-11.311985, -12.000000) " x="3.31198537" y="4" width="16" height="16"></rect>
                </g>
                <path d="M24,30.6455078 L24,28.765625 C24.6562533,29.244143 25.4218706,29.4833984 26.296875,29.4833984 C26.84831,29.4833984 27.2778305,29.36491 27.5854492,29.1279297 C27.8930679,28.8909493 28.046875,28.560549 28.046875,28.1367188 C28.046875,27.6992166 27.85661,27.3619804 27.4760742,27.125 C27.0955385,26.8880196 26.5725945,26.7695312 25.9072266,26.7695312 L25.0253906,26.7695312 L25.0253906,25.1152344 L25.8388672,25.1152344 C27.1149152,25.1152344 27.7529297,24.6914105 27.7529297,23.84375 C27.7529297,23.04622 27.2630257,22.6474609 26.2832031,22.6474609 C25.6269498,22.6474609 24.9889354,22.8593729 24.3691406,23.2832031 L24.3691406,21.5195312 C25.0572951,21.1731754 25.8593704,21 26.7753906,21 C27.7779998,21 28.5584282,21.2255837 29.1166992,21.6767578 C29.6749702,22.1279319 29.9541016,22.7135381 29.9541016,23.4335938 C29.9541016,24.7141991 29.304694,25.5162744 28.0058594,25.8398438 L28.0058594,25.8740234 C28.6985712,25.9606124 29.2454407,26.2124003 29.6464844,26.6293945 C30.047528,27.0463888 30.2480469,27.5579397 30.2480469,28.1640625 C30.2480469,29.0800827 29.9130893,29.8046848 29.2431641,30.3378906 C28.5732388,30.8710964 27.6481179,31.1376953 26.4677734,31.1376953 C25.4560496,31.1376953 24.6334667,30.9736345 24,30.6455078 Z" fill="#FFFFFF" fill-rule="nonzero"></path>
            </g>
        </g>
    </g>
</svg>