<?xml version="1.0" encoding="UTF-8"?>
<svg width="53px" height="52px" viewBox="0 0 53 52" version="1.1" xmlns="http://www.w3.org/2000/svg" xmlns:xlink="http://www.w3.org/1999/xlink">
    <!-- Generator: Sketch 54.1 (76490) - https://sketchapp.com -->
    <title>6</title>
    <desc>Created with Sketch.</desc>
    <g id="Devices" stroke="none" stroke-width="1" fill="none" fill-rule="evenodd">
        <g id="Artboard" transform="translate(-367.000000, -159.000000)">
            <g id="6" transform="translate(367.000000, 159.000000)">
                <rect id="Rectangle" fill="#000000" x="7" y="6" width="40" height="40"></rect>
                <g id="left" transform="translate(0.000000, 14.000000)" fill="#000000">
                    <rect id="carat" transform="translate(12.000000, 12.000000) rotate(-314.000000) translate(-12.000000, -12.000000) " x="4" y="4" width="16" height="16"></rect>
                </g>
                <g id="bottom" transform="translate(15.000000, 28.000000)" fill="#000000">
                    <rect id="carat" transform="translate(12.000000, 12.000000) rotate(-314.000000) translate(-12.000000, -12.000000) " x="4" y="4" width="16" height="16"></rect>
                </g>
                <g id="right" transform="translate(29.000000, 14.000000)" fill="#000000">
                    <rect id="carat" transform="translate(12.000000, 12.000000) rotate(-314.000000) translate(-12.000000, -12.000000) " x="4" y="4" width="16" height="16"></rect>
                </g>
                <g id="top" transform="translate(16.000000, 0.000000)" fill="#000000">
                    <rect id="carat" transform="translate(11.311985, 12.000000) rotate(-314.000000) translate(-11.311985, -12.000000) " x="3.31198537" y="4" width="16" height="16"></rect>
                </g>
                <path d="M30.2070312,21.2666016 L30.2070312,23.0712891 C29.710284,22.7887356 29.1679717,22.6474609 28.5800781,22.6474609 C27.8554651,22.6474609 27.2709983,22.9243136 26.8266602,23.4780273 C26.382322,24.031741 26.1510418,24.7734329 26.1328125,25.703125 L26.1738281,25.703125 C26.6432315,25.0104132 27.3290971,24.6640625 28.2314453,24.6640625 C29.0517619,24.6640625 29.7023088,24.9420545 30.1831055,25.4980469 C30.6639021,26.0540392 30.9042969,26.7900345 30.9042969,27.7060547 C30.9042969,28.6904346 30.5852896,29.5084603 29.9472656,30.1601562 C29.3092416,30.8118522 28.4980518,31.1376953 27.5136719,31.1376953 C26.4108018,31.1376953 25.5494823,30.7389363 24.9296875,29.9414062 C24.3098927,29.1438762 24,28.0250723 24,26.5849609 C24,24.88964 24.398759,23.5349986 25.1962891,22.5209961 C25.9938191,21.5069936 27.076165,21 28.4433594,21 C29.1998736,21 29.7877583,21.0888663 30.2070312,21.2666016 Z M27.5,26.2636719 C27.1035136,26.2636719 26.7879244,26.4026679 26.5532227,26.6806641 C26.318521,26.9586602 26.2011719,27.3141254 26.2011719,27.7470703 C26.2011719,28.2255883 26.3207996,28.6346012 26.5600586,28.9741211 C26.7993176,29.313641 27.1171855,29.4833984 27.5136719,29.4833984 C27.9010436,29.4833984 28.2109363,29.33187 28.4433594,29.0288086 C28.6757824,28.7257472 28.7919922,28.3304061 28.7919922,27.8427734 C28.7919922,26.7900338 28.3613324,26.2636719 27.5,26.2636719 Z" fill="#FFFFFF" fill-rule="nonzero"></path>
            </g>
        </g>
    </g>
</svg>