<?xml version="1.0" encoding="UTF-8"?>
<svg width="53px" height="52px" viewBox="0 0 53 52" version="1.1" xmlns="http://www.w3.org/2000/svg" xmlns:xlink="http://www.w3.org/1999/xlink">
    <!-- Generator: Sketch 54.1 (76490) - https://sketchapp.com -->
    <title>8</title>
    <desc>Created with Sketch.</desc>
    <g id="Devices" stroke="none" stroke-width="1" fill="none" fill-rule="evenodd">
        <g id="Artboard" transform="translate(-487.000000, -159.000000)">
            <g id="8" transform="translate(487.000000, 159.000000)">
                <rect id="Rectangle" fill="#000000" x="7" y="6" width="40" height="40"></rect>
                <g id="left" transform="translate(0.000000, 14.000000)" fill="#000000">
                    <rect id="carat" transform="translate(12.000000, 12.000000) rotate(-314.000000) translate(-12.000000, -12.000000) " x="4" y="4" width="16" height="16"></rect>
                </g>
                <g id="bottom" transform="translate(15.000000, 28.000000)" fill="#000000">
                    <rect id="carat" transform="translate(12.000000, 12.000000) rotate(-314.000000) translate(-12.000000, -12.000000) " x="4" y="4" width="16" height="16"></rect>
                </g>
                <g id="right" transform="translate(29.000000, 14.000000)" fill="#000000">
                    <rect id="carat" transform="translate(12.000000, 12.000000) rotate(-314.000000) translate(-12.000000, -12.000000) " x="4" y="4" width="16" height="16"></rect>
                </g>
                <g id="top" transform="translate(16.000000, 0.000000)" fill="#000000">
                    <rect id="carat" transform="translate(11.311985, 12.000000) rotate(-314.000000) translate(-11.311985, -12.000000) " x="3.31198537" y="4" width="16" height="16"></rect>
                </g>
                <path d="M25.9755859,25.8740234 L25.9755859,25.8398438 C24.8544866,25.379555 24.2939453,24.6344453 24.2939453,23.6044922 C24.2939453,22.847978 24.5947236,22.2247746 25.1962891,21.7348633 C25.7978546,21.244952 26.574865,21 27.5273438,21 C28.4980517,21 29.2727836,21.2290016 29.8515625,21.6870117 C30.4303414,22.1450218 30.7197266,22.7363245 30.7197266,23.4609375 C30.7197266,24.5319064 30.0999411,25.32031 28.8603516,25.8261719 L28.8603516,25.8535156 C29.5257195,26.0494801 30.0418276,26.3719053 30.4086914,26.8208008 C30.7755552,27.2696963 30.9589844,27.7744113 30.9589844,28.3349609 C30.9589844,29.2008507 30.6388378,29.8844376 29.9985352,30.3857422 C29.3582325,30.8870468 28.4638729,31.1376953 27.3154297,31.1376953 C26.3219351,31.1376953 25.5209991,30.8927433 24.9125977,30.402832 C24.3041962,29.9129207 24,29.2646525 24,28.4580078 C24,27.286778 24.6585221,26.4254585 25.9755859,25.8740234 Z M28.6894531,23.6455078 C28.6894531,23.3128239 28.5834972,23.0473643 28.371582,22.8491211 C28.1596669,22.6508779 27.878257,22.5517578 27.5273438,22.5517578 C27.1855452,22.5517578 26.9018566,22.6554352 26.6762695,22.862793 C26.4506825,23.0701508 26.3378906,23.3356104 26.3378906,23.6591797 C26.3378906,24.2698598 26.7298138,24.7324203 27.5136719,25.046875 C28.29753,24.7233057 28.6894531,24.2561879 28.6894531,23.6455078 Z M27.4179688,26.6943359 C26.5019485,27.0543638 26.0439453,27.6057906 26.0439453,28.3486328 C26.0439453,28.7041033 26.1840806,28.9980457 26.4643555,29.2304688 C26.7446303,29.4628918 27.0852845,29.5791016 27.4863281,29.5791016 C27.919273,29.5791016 28.2679023,29.4651704 28.5322266,29.2373047 C28.7965508,29.009439 28.9287109,28.7086607 28.9287109,28.3349609 C28.9287109,27.5875614 28.4251352,27.0406918 27.4179688,26.6943359 Z" fill="#FFFFFF" fill-rule="nonzero"></path>
            </g>
        </g>
    </g>
</svg>