<svg width="16" height="16" viewBox="0 0 16 16" fill="none" xmlns="http://www.w3.org/2000/svg">
<path d="M8.64706 0C9.69012 0 10.5357 0.884576 10.5357 1.97576L10.5351 2.4H13.2353C13.6576 2.4 14 2.75818 14 3.2V7C13.4477 7 13 7.44772 13 8C13 8.55229 13.4477 9 14 9V12.8023C14 13.2442 13.6576 13.6023 13.2353 13.6023L10.5351 13.6016L10.5357 14.0242C10.5357 15.1154 9.69012 16 8.64706 16C7.604 16 6.75846 15.1154 6.75846 14.0242L6.75823 13.6016L4.05882 13.6023C3.63649 13.6023 3.29412 13.2442 3.29412 12.8023L3.29335 9.9768L2.88859 9.97696C1.84555 9.97696 1 9.09232 1 8.0012C1 6.91 1.84555 6.02542 2.88859 6.02542L3.29335 6.0248L3.29412 3.2C3.29412 2.75818 3.63649 2.4 4.05882 2.4H6.75823L6.75846 1.97576C6.75846 0.884576 7.604 0 8.64706 0Z" fill="url(#paint0_linear_1889_18231)"/>
<path fill-rule="evenodd" clip-rule="evenodd" d="M7.39833 4.18539C7.43685 4.07388 7.53504 4 7.64474 4H9.42105C9.50736 4 9.58818 4.04595 9.63735 4.12297C9.68651 4.19999 9.69776 4.29829 9.66745 4.38603L8.81395 6.85714H10.7368C10.8413 6.85714 10.9359 6.92426 10.9779 7.02818C11.0198 7.13209 11.0011 7.2531 10.9303 7.33651L7.04875 11.9079C6.96343 12.0084 6.82451 12.0292 6.71732 11.9576C6.61012 11.886 6.56466 11.7419 6.60886 11.614L7.65974 8.57142H6.26316C6.17685 8.57142 6.09602 8.52547 6.04686 8.44845C5.9977 8.37143 5.98645 8.27313 6.01676 8.18539L7.39833 4.18539Z" fill="url(#paint1_linear_1889_18231)"/>
<defs>
<linearGradient id="paint0_linear_1889_18231" x1="5.5" y1="1" x2="11.5" y2="15" gradientUnits="userSpaceOnUse">
<stop stop-color="#097ED1"/>
<stop offset="1" stop-color="#0F5499"/>
</linearGradient>
<linearGradient id="paint1_linear_1889_18231" x1="6" y1="5.28571" x2="11.4103" y2="10.2689" gradientUnits="userSpaceOnUse">
<stop stop-color="#32BCEF"/>
<stop offset="1" stop-color="#128FDD"/>
</linearGradient>
</defs>
</svg>
