<svg xmlns="http://www.w3.org/2000/svg" width="16" height="16" fill="none" viewBox="0 0 16 16"><g clip-path="url(#clip0_1874_17802)"><g clip-path="url(#clip1_1874_17802)"><path fill="url(#paint0_linear_1874_17802)" d="M0 3C0 2.44772 0.447715 2 1 2H14C14.5523 2 15 2.44772 15 3V12C15 13.6569 13.6569 15 12 15H3C1.34315 15 0 13.6569 0 12V3Z"/><rect width="9" height="9" x="3" y="4" fill="#fff" fill-opacity=".5" rx=".667"/><g filter="url(#filter0_d_1874_17802)"><path fill="#F25022" d="M7 5H4V8H7V5Z"/><path fill="#7FBA00" d="M11 5H8V8H11V5Z"/><path fill="#FFB900" d="M11 9H8V12H11V9Z"/><path fill="#00A4EF" d="M7 9H4V12H7V9Z"/></g><path stroke="url(#paint1_linear_1874_17802)" stroke-linecap="round" d="M3.5 2.5V1C3.5 0.723858 3.72386 0.5 4 0.5H11C11.2761 0.5 11.5 0.723858 11.5 1V2.5"/><rect width="7" height="1" x="4" fill="url(#paint2_linear_1874_17802)"/><mask id="mask0_1874_17802" style="mask-type:alpha" width="7" height="1" x="4" y="0" maskUnits="userSpaceOnUse"><rect width="7" height="1" x="4" fill="url(#paint3_linear_1874_17802)"/></mask></g></g><defs><filter id="filter0_d_1874_17802" width="8.333" height="8.333" x="3.333" y="4.5" color-interpolation-filters="sRGB" filterUnits="userSpaceOnUse"><feFlood flood-opacity="0" result="BackgroundImageFix"/><feColorMatrix in="SourceAlpha" result="hardAlpha" type="matrix" values="0 0 0 0 0 0 0 0 0 0 0 0 0 0 0 0 0 0 127 0"/><feOffset dy=".167"/><feGaussianBlur stdDeviation=".333"/><feColorMatrix type="matrix" values="0 0 0 0 0 0 0 0 0 0 0 0 0 0 0 0 0 0 0.15 0"/><feBlend in2="BackgroundImageFix" mode="normal" result="effect1_dropShadow_1874_17802"/><feBlend in="SourceGraphic" in2="effect1_dropShadow_1874_17802" mode="normal" result="shape"/></filter><filter id="filter1_dd_1874_17802" width="11" height="5" x="2" y="-1.667" color-interpolation-filters="sRGB" filterUnits="userSpaceOnUse"><feFlood flood-opacity="0" result="BackgroundImageFix"/><feColorMatrix in="SourceAlpha" result="hardAlpha" type="matrix" values="0 0 0 0 0 0 0 0 0 0 0 0 0 0 0 0 0 0 127 0"/><feOffset dy="-.667"/><feGaussianBlur stdDeviation=".167"/><feColorMatrix type="matrix" values="0 0 0 0 0 0 0 0 0 0 0 0 0 0 0 0 0 0 0.1 0"/><feBlend in2="BackgroundImageFix" mode="normal" result="effect1_dropShadow_1874_17802"/><feColorMatrix in="SourceAlpha" result="hardAlpha" type="matrix" values="0 0 0 0 0 0 0 0 0 0 0 0 0 0 0 0 0 0 127 0"/><feOffset dy="-.667"/><feGaussianBlur stdDeviation=".5"/><feColorMatrix type="matrix" values="0 0 0 0 0 0 0 0 0 0 0 0 0 0 0 0 0 0 0.2 0"/><feBlend in2="effect1_dropShadow_1874_17802" mode="normal" result="effect2_dropShadow_1874_17802"/><feBlend in="SourceGraphic" in2="effect2_dropShadow_1874_17802" mode="normal" result="shape"/></filter><linearGradient id="paint0_linear_1874_17802" x1="3.409" x2="6.527" y1=".08" y2="14.472" gradientUnits="userSpaceOnUse"><stop offset=".271" stop-color="#fff"/><stop offset="1" stop-color="#DFDFDF"/></linearGradient><linearGradient id="paint1_linear_1874_17802" x1="7.5" x2="7.632" y1=".5" y2="2.655" gradientUnits="userSpaceOnUse"><stop stop-color="#30DAFF"/><stop offset="1" stop-color="#0094D4"/></linearGradient><linearGradient id="paint2_linear_1874_17802" x1="7.111" x2="7.111" y1="0" y2="1" gradientUnits="userSpaceOnUse"><stop stop-color="#22BCFF"/><stop offset="1" stop-color="#0088F0"/></linearGradient><linearGradient id="paint3_linear_1874_17802" x1="7.111" x2="7.111" y1="0" y2="1" gradientUnits="userSpaceOnUse"><stop stop-color="#28AFEA"/><stop offset="1" stop-color="#3CCBF4"/></linearGradient><clipPath id="clip0_1874_17802"><rect width="16" height="16" fill="#fff"/></clipPath><clipPath id="clip1_1874_17802"><rect width="16" height="16" fill="#fff"/></clipPath></defs></svg>