<svg xmlns="http://www.w3.org/2000/svg" width="17" height="16" fill="none" viewBox="0 0 17 16"><g clip-path="url(#clip0_1771_11727)"><path fill="#9C640A" d="M2.01172 1C2.01172 0.447715 2.45943 0 3.01172 0H13.0117C13.564 0 14.0117 0.447715 14.0117 1V11C14.0117 11.5523 13.564 12 13.0117 12H3.01172C2.45943 12 2.01172 11.5523 2.01172 11V1Z"/><mask id="mask0_1771_11727" style="mask-type:alpha" width="13" height="12" x="2" y="0" maskUnits="userSpaceOnUse"><path fill="#9C640A" d="M2.01172 1C2.01172 0.447715 2.45943 0 3.01172 0H13.0117C13.564 0 14.0117 0.447715 14.0117 1V11C14.0117 11.5523 13.564 12 13.0117 12H3.01172C2.45943 12 2.01172 11.5523 2.01172 11V1Z"/></mask><g mask="url(#mask0_1771_11727)"><g filter="url(#filter0_dd_1771_11727)"><path fill="#BC822A" d="M1.01172 3C1.01172 2.44772 1.45943 2 2.01172 2H14.0117C14.564 2 15.0117 2.44772 15.0117 3V13C15.0117 13.5523 14.564 14 14.0117 14H2.01172C1.45943 14 1.01172 13.5523 1.01172 13V3Z"/></g></g><path fill="#BC822A" d="M1.01172 3C1.01172 2.44772 1.45943 2 2.01172 2H14.0117C14.564 2 15.0117 2.44772 15.0117 3V13C15.0117 13.5523 14.564 14 14.0117 14H2.01172C1.45943 14 1.01172 13.5523 1.01172 13V3Z"/><mask id="mask1_1771_11727" style="mask-type:alpha" width="15" height="12" x="1" y="2" maskUnits="userSpaceOnUse"><path fill="#BC822A" d="M1.01172 3C1.01172 2.44772 1.45943 2 2.01172 2H14.0117C14.564 2 15.0117 2.44772 15.0117 3V13C15.0117 13.5523 14.564 14 14.0117 14H2.01172C1.45943 14 1.01172 13.5523 1.01172 13V3Z"/></mask><g mask="url(#mask1_1771_11727)"><g filter="url(#filter1_dd_1771_11727)"><path fill="#D9D9D9" d="M0.0117188 5C0.0117188 4.44772 0.459434 4 1.01172 4H15.0117C15.564 4 16.0117 4.44772 16.0117 5V15C16.0117 15.5523 15.564 16 15.0117 16H1.01172C0.459434 16 0.0117188 15.5523 0.0117188 15V5Z"/><path fill="url(#paint0_linear_1771_11727)" d="M0.0117188 5C0.0117188 4.44772 0.459434 4 1.01172 4H15.0117C15.564 4 16.0117 4.44772 16.0117 5V15C16.0117 15.5523 15.564 16 15.0117 16H1.01172C0.459434 16 0.0117188 15.5523 0.0117188 15V5Z"/><path fill="url(#paint1_linear_1771_11727)" d="M0.0117188 5C0.0117188 4.44772 0.459434 4 1.01172 4H15.0117C15.564 4 16.0117 4.44772 16.0117 5V15C16.0117 15.5523 15.564 16 15.0117 16H1.01172C0.459434 16 0.0117188 15.5523 0.0117188 15V5Z"/></g></g><path fill="#D9D9D9" d="M0.0117188 5C0.0117188 4.44772 0.459434 4 1.01172 4H15.0117C15.564 4 16.0117 4.44772 16.0117 5V15C16.0117 15.5523 15.564 16 15.0117 16H1.01172C0.459434 16 0.0117188 15.5523 0.0117188 15V5Z"/><path fill="url(#paint2_linear_1771_11727)" d="M0.0117188 5C0.0117188 4.44772 0.459434 4 1.01172 4H15.0117C15.564 4 16.0117 4.44772 16.0117 5V15C16.0117 15.5523 15.564 16 15.0117 16H1.01172C0.459434 16 0.0117188 15.5523 0.0117188 15V5Z"/><path fill="url(#paint3_linear_1771_11727)" d="M0.0117188 5C0.0117188 4.44772 0.459434 4 1.01172 4H15.0117C15.564 4 16.0117 4.44772 16.0117 5V15C16.0117 15.5523 15.564 16 15.0117 16H1.01172C0.459434 16 0.0117188 15.5523 0.0117188 15V5Z"/><g filter="url(#filter2_dd_1771_11727)"><path fill="url(#paint4_linear_1771_11727)" fill-rule="evenodd" d="M9.01172 7C9.01172 6.44772 8.564 6 8.01172 6C7.45943 6 7.01172 6.44772 7.01172 7V10.5858L6.21883 9.79289C5.8283 9.40237 5.19514 9.40237 4.80461 9.79289C4.41409 10.1834 4.41409 10.8166 4.80461 11.2071L7.30461 13.7071C7.69514 14.0976 8.3283 14.0976 8.71883 13.7071L11.2188 11.2071C11.6093 10.8166 11.6093 10.1834 11.2188 9.79289C10.8283 9.40237 10.1951 9.40237 9.80461 9.79289L9.01172 10.5858V7Z" clip-rule="evenodd"/></g></g><defs><filter id="filter0_dd_1771_11727" width="15.333" height="13.333" x=".345" y="1.003" color-interpolation-filters="sRGB" filterUnits="userSpaceOnUse"><feFlood flood-opacity="0" result="BackgroundImageFix"/><feColorMatrix in="SourceAlpha" result="hardAlpha" type="matrix" values="0 0 0 0 0 0 0 0 0 0 0 0 0 0 0 0 0 0 127 0"/><feOffset dy="-.33"/><feGaussianBlur stdDeviation=".333"/><feColorMatrix type="matrix" values="0 0 0 0 0 0 0 0 0 0 0 0 0 0 0 0 0 0 0.32 0"/><feBlend in2="BackgroundImageFix" mode="normal" result="effect1_dropShadow_1771_11727"/><feColorMatrix in="SourceAlpha" result="hardAlpha" type="matrix" values="0 0 0 0 0 0 0 0 0 0 0 0 0 0 0 0 0 0 127 0"/><feOffset dy="-.07"/><feGaussianBlur stdDeviation=".033"/><feColorMatrix type="matrix" values="0 0 0 0 0 0 0 0 0 0 0 0 0 0 0 0 0 0 0.15 0"/><feBlend in2="effect1_dropShadow_1771_11727" mode="normal" result="effect2_dropShadow_1771_11727"/><feBlend in="SourceGraphic" in2="effect2_dropShadow_1771_11727" mode="normal" result="shape"/></filter><filter id="filter1_dd_1771_11727" width="17.333" height="13.333" x="-.655" y="3.003" color-interpolation-filters="sRGB" filterUnits="userSpaceOnUse"><feFlood flood-opacity="0" result="BackgroundImageFix"/><feColorMatrix in="SourceAlpha" result="hardAlpha" type="matrix" values="0 0 0 0 0 0 0 0 0 0 0 0 0 0 0 0 0 0 127 0"/><feOffset dy="-.33"/><feGaussianBlur stdDeviation=".333"/><feColorMatrix type="matrix" values="0 0 0 0 0 0 0 0 0 0 0 0 0 0 0 0 0 0 0.32 0"/><feBlend in2="BackgroundImageFix" mode="normal" result="effect1_dropShadow_1771_11727"/><feColorMatrix in="SourceAlpha" result="hardAlpha" type="matrix" values="0 0 0 0 0 0 0 0 0 0 0 0 0 0 0 0 0 0 127 0"/><feOffset dy="-.07"/><feGaussianBlur stdDeviation=".033"/><feColorMatrix type="matrix" values="0 0 0 0 0 0 0 0 0 0 0 0 0 0 0 0 0 0 0.15 0"/><feBlend in2="effect1_dropShadow_1771_11727" mode="normal" result="effect2_dropShadow_1771_11727"/><feBlend in="SourceGraphic" in2="effect2_dropShadow_1771_11727" mode="normal" result="shape"/></filter><filter id="filter2_dd_1771_11727" width="8.333" height="9.333" x="3.845" y="5.667" color-interpolation-filters="sRGB" filterUnits="userSpaceOnUse"><feFlood flood-opacity="0" result="BackgroundImageFix"/><feColorMatrix in="SourceAlpha" result="hardAlpha" type="matrix" values="0 0 0 0 0 0 0 0 0 0 0 0 0 0 0 0 0 0 127 0"/><feOffset dy=".333"/><feGaussianBlur stdDeviation=".333"/><feColorMatrix type="matrix" values="0 0 0 0 0 0 0 0 0 0 0 0 0 0 0 0 0 0 0.32 0"/><feBlend in2="BackgroundImageFix" mode="normal" result="effect1_dropShadow_1771_11727"/><feColorMatrix in="SourceAlpha" result="hardAlpha" type="matrix" values="0 0 0 0 0 0 0 0 0 0 0 0 0 0 0 0 0 0 127 0"/><feOffset dy=".067"/><feGaussianBlur stdDeviation=".033"/><feColorMatrix type="matrix" values="0 0 0 0 0 0 0 0 0 0 0 0 0 0 0 0 0 0 0.24 0"/><feBlend in2="effect1_dropShadow_1771_11727" mode="normal" result="effect2_dropShadow_1771_11727"/><feBlend in="SourceGraphic" in2="effect2_dropShadow_1771_11727" mode="normal" result="shape"/></filter><linearGradient id="paint0_linear_1771_11727" x1=".012" x2="11.532" y1="4" y2="19.36" gradientUnits="userSpaceOnUse"><stop stop-color="#DEB678"/><stop offset="1" stop-color="#C59141"/></linearGradient><linearGradient id="paint1_linear_1771_11727" x1="4.512" x2="9.512" y1="2.5" y2="17.5" gradientUnits="userSpaceOnUse"><stop stop-color="#DEB678"/><stop offset="1" stop-color="#B57F2D"/></linearGradient><linearGradient id="paint2_linear_1771_11727" x1=".012" x2="11.532" y1="4" y2="19.36" gradientUnits="userSpaceOnUse"><stop stop-color="#DEB678"/><stop offset="1" stop-color="#C59141"/></linearGradient><linearGradient id="paint3_linear_1771_11727" x1="4.512" x2="9.512" y1="2.5" y2="17.5" gradientUnits="userSpaceOnUse"><stop stop-color="#DEB678"/><stop offset="1" stop-color="#B57F2D"/></linearGradient><linearGradient id="paint4_linear_1771_11727" x1="6.103" x2="8.552" y1="4.818" y2="13.391" gradientUnits="userSpaceOnUse"><stop offset=".271" stop-color="#fff"/><stop offset="1" stop-color="#F0F0F0"/></linearGradient><clipPath id="clip0_1771_11727"><rect width="16" height="16" fill="#fff" transform="translate(0.0117188)"/></clipPath></defs></svg>