<svg xmlns="http://www.w3.org/2000/svg" width="128" height="128" viewBox="0 0 32 32"><g fill="none"><g filter="url(#IconifyId199691df1f81eb73818217)"><path fill="url(#IconifyId199691df1f81eb73818194)" d="m28.046 9.04l-1.25-.62c-.2-.11-.13-.42.1-.42h.58a2.5 2.5 0 0 0 0-5h-2.03a4.468 4.468 0 0 0-2.3 8.3l1.88 1.13c.59.35.95.99.95 1.67V25a1 1 0 0 1-1 1h-3.48v4h4.48c2.21 0 4-1.79 4-4V12.16c0-1.33-.75-2.53-1.93-3.12"/><path fill="url(#IconifyId199691df1f81eb73818195)" d="m28.046 9.04l-1.25-.62c-.2-.11-.13-.42.1-.42h.58a2.5 2.5 0 0 0 0-5h-2.03a4.468 4.468 0 0 0-2.3 8.3l1.88 1.13c.59.35.95.99.95 1.67V25a1 1 0 0 1-1 1h-3.48v4h4.48c2.21 0 4-1.79 4-4V12.16c0-1.33-.75-2.53-1.93-3.12"/><path fill="url(#IconifyId199691df1f81eb73818196)" d="m28.046 9.04l-1.25-.62c-.2-.11-.13-.42.1-.42h.58a2.5 2.5 0 0 0 0-5h-2.03a4.468 4.468 0 0 0-2.3 8.3l1.88 1.13c.59.35.95.99.95 1.67V25a1 1 0 0 1-1 1h-3.48v4h4.48c2.21 0 4-1.79 4-4V12.16c0-1.33-.75-2.53-1.93-3.12"/><path fill="url(#IconifyId199691df1f81eb73818164)" d="m28.046 9.04l-1.25-.62c-.2-.11-.13-.42.1-.42h.58a2.5 2.5 0 0 0 0-5h-2.03a4.468 4.468 0 0 0-2.3 8.3l1.88 1.13c.59.35.95.99.95 1.67V25a1 1 0 0 1-1 1h-3.48v4h4.48c2.21 0 4-1.79 4-4V12.16c0-1.33-.75-2.53-1.93-3.12"/><path fill="url(#IconifyId199691df1f81eb73818165)" d="m28.046 9.04l-1.25-.62c-.2-.11-.13-.42.1-.42h.58a2.5 2.5 0 0 0 0-5h-2.03a4.468 4.468 0 0 0-2.3 8.3l1.88 1.13c.59.35.95.99.95 1.67V25a1 1 0 0 1-1 1h-3.48v4h4.48c2.21 0 4-1.79 4-4V12.16c0-1.33-.75-2.53-1.93-3.12"/><path fill="url(#IconifyId199691df1f81eb73818166)" d="m28.046 9.04l-1.25-.62c-.2-.11-.13-.42.1-.42h.58a2.5 2.5 0 0 0 0-5h-2.03a4.468 4.468 0 0 0-2.3 8.3l1.88 1.13c.59.35.95.99.95 1.67V25a1 1 0 0 1-1 1h-3.48v4h4.48c2.21 0 4-1.79 4-4V12.16c0-1.33-.75-2.53-1.93-3.12"/><path fill="url(#IconifyId199691df1f81eb73818167)" d="m28.046 9.04l-1.25-.62c-.2-.11-.13-.42.1-.42h.58a2.5 2.5 0 0 0 0-5h-2.03a4.468 4.468 0 0 0-2.3 8.3l1.88 1.13c.59.35.95.99.95 1.67V25a1 1 0 0 1-1 1h-3.48v4h4.48c2.21 0 4-1.79 4-4V12.16c0-1.33-.75-2.53-1.93-3.12"/></g><g filter="url(#IconifyId199691df1f81eb73818218)"><path stroke="url(#IconifyId199691df1f81eb73818197)" stroke-linecap="round" stroke-width=".75" d="m25.6 9.031l1.802.862a2 2 0 0 1 1.136 1.804V25.5a2 2 0 0 1-2 2h-2.187"/></g><path fill="url(#IconifyId199691df1f81eb73818198)" d="M3.836 16.99v1.99c0 .69.39 1.32 1.01 1.62l.69.33a.7.7 0 0 0 .6 0l.69-.33c.62-.3 1.01-.93 1.01-1.62v-1.99z"/><path fill="url(#IconifyId199691df1f81eb73818168)" d="M3.836 16.99v1.99c0 .69.39 1.32 1.01 1.62l.69.33a.7.7 0 0 0 .6 0l.69-.33c.62-.3 1.01-.93 1.01-1.62v-1.99z"/><path fill="url(#IconifyId199691df1f81eb73818199)" d="M16.526 11c-.95 0-1.82-.53-2.24-1.38l-.71-1.43a5.36 5.36 0 0 1-.59-2.48A2.687 2.687 0 0 0 10.306 3c-.18 0-.33.14-.33.33v2.076S9.374 5 8.288 5c-1.313 0-2.742.84-3.572 2.1c-.74 1.332-1.624 2.606-2.43 3.9c-.2.25-.31.56-.31.88c0 1.73 1.39 3.12 3.12 3.12h3.88v3h-1.46c-.85 0-1.56.69-1.54 1.53c.02.82.68 1.47 1.5 1.47l1.5.04v2.9c0 3.35 2.71 6.06 6.06 6.06h6.89a3.05 3.05 0 0 0 3.05-3.05v-7.49c0-4.67-3.78-8.46-8.45-8.46"/><path fill="url(#IconifyId199691df1f81eb73818169)" d="M16.526 11c-.95 0-1.82-.53-2.24-1.38l-.71-1.43a5.36 5.36 0 0 1-.59-2.48A2.687 2.687 0 0 0 10.306 3c-.18 0-.33.14-.33.33v2.076S9.374 5 8.288 5c-1.313 0-2.742.84-3.572 2.1c-.74 1.332-1.624 2.606-2.43 3.9c-.2.25-.31.56-.31.88c0 1.73 1.39 3.12 3.12 3.12h3.88v3h-1.46c-.85 0-1.56.69-1.54 1.53c.02.82.68 1.47 1.5 1.47l1.5.04v2.9c0 3.35 2.71 6.06 6.06 6.06h6.89a3.05 3.05 0 0 0 3.05-3.05v-7.49c0-4.67-3.78-8.46-8.45-8.46"/><path fill="url(#IconifyId199691df1f81eb73818170)" d="M16.526 11c-.95 0-1.82-.53-2.24-1.38l-.71-1.43a5.36 5.36 0 0 1-.59-2.48A2.687 2.687 0 0 0 10.306 3c-.18 0-.33.14-.33.33v2.076S9.374 5 8.288 5c-1.313 0-2.742.84-3.572 2.1c-.74 1.332-1.624 2.606-2.43 3.9c-.2.25-.31.56-.31.88c0 1.73 1.39 3.12 3.12 3.12h3.88v3h-1.46c-.85 0-1.56.69-1.54 1.53c.02.82.68 1.47 1.5 1.47l1.5.04v2.9c0 3.35 2.71 6.06 6.06 6.06h6.89a3.05 3.05 0 0 0 3.05-3.05v-7.49c0-4.67-3.78-8.46-8.45-8.46"/><path fill="url(#IconifyId199691df1f81eb73818171)" d="M16.526 11c-.95 0-1.82-.53-2.24-1.38l-.71-1.43a5.36 5.36 0 0 1-.59-2.48A2.687 2.687 0 0 0 10.306 3c-.18 0-.33.14-.33.33v2.076S9.374 5 8.288 5c-1.313 0-2.742.84-3.572 2.1c-.74 1.332-1.624 2.606-2.43 3.9c-.2.25-.31.56-.31.88c0 1.73 1.39 3.12 3.12 3.12h3.88v3h-1.46c-.85 0-1.56.69-1.54 1.53c.02.82.68 1.47 1.5 1.47l1.5.04v2.9c0 3.35 2.71 6.06 6.06 6.06h6.89a3.05 3.05 0 0 0 3.05-3.05v-7.49c0-4.67-3.78-8.46-8.45-8.46"/><path fill="url(#IconifyId199691df1f81eb73818172)" d="M16.526 11c-.95 0-1.82-.53-2.24-1.38l-.71-1.43a5.36 5.36 0 0 1-.59-2.48A2.687 2.687 0 0 0 10.306 3c-.18 0-.33.14-.33.33v2.076S9.374 5 8.288 5c-1.313 0-2.742.84-3.572 2.1c-.74 1.332-1.624 2.606-2.43 3.9c-.2.25-.31.56-.31.88c0 1.73 1.39 3.12 3.12 3.12h3.88v3h-1.46c-.85 0-1.56.69-1.54 1.53c.02.82.68 1.47 1.5 1.47l1.5.04v2.9c0 3.35 2.71 6.06 6.06 6.06h6.89a3.05 3.05 0 0 0 3.05-3.05v-7.49c0-4.67-3.78-8.46-8.45-8.46"/><path fill="url(#IconifyId199691df1f81eb73818173)" d="M16.526 11c-.95 0-1.82-.53-2.24-1.38l-.71-1.43a5.36 5.36 0 0 1-.59-2.48A2.687 2.687 0 0 0 10.306 3c-.18 0-.33.14-.33.33v2.076S9.374 5 8.288 5c-1.313 0-2.742.84-3.572 2.1c-.74 1.332-1.624 2.606-2.43 3.9c-.2.25-.31.56-.31.88c0 1.73 1.39 3.12 3.12 3.12h3.88v3h-1.46c-.85 0-1.56.69-1.54 1.53c.02.82.68 1.47 1.5 1.47l1.5.04v2.9c0 3.35 2.71 6.06 6.06 6.06h6.89a3.05 3.05 0 0 0 3.05-3.05v-7.49c0-4.67-3.78-8.46-8.45-8.46"/><path fill="url(#IconifyId199691df1f81eb73818174)" fill-opacity=".75" d="M16.526 11c-.95 0-1.82-.53-2.24-1.38l-.71-1.43a5.36 5.36 0 0 1-.59-2.48A2.687 2.687 0 0 0 10.306 3c-.18 0-.33.14-.33.33v2.076S9.374 5 8.288 5c-1.313 0-2.742.84-3.572 2.1c-.74 1.332-1.624 2.606-2.43 3.9c-.2.25-.31.56-.31.88c0 1.73 1.39 3.12 3.12 3.12h3.88v3h-1.46c-.85 0-1.56.69-1.54 1.53c.02.82.68 1.47 1.5 1.47l1.5.04v2.9c0 3.35 2.71 6.06 6.06 6.06h6.89a3.05 3.05 0 0 0 3.05-3.05v-7.49c0-4.67-3.78-8.46-8.45-8.46"/><path fill="url(#IconifyId199691df1f81eb73818200)" d="M16.526 11c-.95 0-1.82-.53-2.24-1.38l-.71-1.43a5.36 5.36 0 0 1-.59-2.48A2.687 2.687 0 0 0 10.306 3c-.18 0-.33.14-.33.33v2.076S9.374 5 8.288 5c-1.313 0-2.742.84-3.572 2.1c-.74 1.332-1.624 2.606-2.43 3.9c-.2.25-.31.56-.31.88c0 1.73 1.39 3.12 3.12 3.12h3.88v3h-1.46c-.85 0-1.56.69-1.54 1.53c.02.82.68 1.47 1.5 1.47l1.5.04v2.9c0 3.35 2.71 6.06 6.06 6.06h6.89a3.05 3.05 0 0 0 3.05-3.05v-7.49c0-4.67-3.78-8.46-8.45-8.46"/><path fill="url(#IconifyId199691df1f81eb73818201)" d="M7.256 8c-.74 0-1.39.46-1.63 1.15c-.08.21-.15.43-.23.65c-.25.72-.93 1.2-1.7 1.2h-1.41c-.2.25-.31.56-.31.88c0 1.73 1.39 3.12 3.12 3.12h5.88v-2.25c0-.97-.78-1.75-1.75-1.75c-.14 0-.25-.11-.25-.25V9.72c0-.95-.77-1.72-1.72-1.72"/><path fill="url(#IconifyId199691df1f81eb73818175)" d="M7.256 8c-.74 0-1.39.46-1.63 1.15c-.08.21-.15.43-.23.65c-.25.72-.93 1.2-1.7 1.2h-1.41c-.2.25-.31.56-.31.88c0 1.73 1.39 3.12 3.12 3.12h5.88v-2.25c0-.97-.78-1.75-1.75-1.75c-.14 0-.25-.11-.25-.25V9.72c0-.95-.77-1.72-1.72-1.72"/><path fill="url(#IconifyId199691df1f81eb73818176)" d="M7.256 8c-.74 0-1.39.46-1.63 1.15c-.08.21-.15.43-.23.65c-.25.72-.93 1.2-1.7 1.2h-1.41c-.2.25-.31.56-.31.88c0 1.73 1.39 3.12 3.12 3.12h5.88v-2.25c0-.97-.78-1.75-1.75-1.75c-.14 0-.25-.11-.25-.25V9.72c0-.95-.77-1.72-1.72-1.72"/><path fill="url(#IconifyId199691df1f81eb73818202)" d="M3.236 11.96c0-.53-.42-.96-.95-.96c-.2.25-.361.676-.361.988c0 .36.09.688.22.922c.05.01.09.01.13.01c.53 0 .96-.43.96-.96"/><path fill="url(#IconifyId199691df1f81eb73818203)" d="m9.626 17.74l1.35-1.36V15h-2v3c.24-.02.47-.09.65-.26"/><path fill="url(#IconifyId199691df1f81eb73818204)" d="M13.686 19.74c-.85.83-1.99 1.3-3.18 1.3h-1.53v2.9c0 3.31 1.71 6 5 6.06V19.4z"/><path fill="url(#IconifyId199691df1f81eb73818205)" d="M13.686 19.74c-.85.83-1.99 1.3-3.18 1.3h-1.53v2.9c0 3.31 1.71 6 5 6.06V19.4z"/><path fill="url(#IconifyId199691df1f81eb73818177)" d="M13.686 19.74c-.85.83-1.99 1.3-3.18 1.3h-1.53v2.9c0 3.31 1.71 6 5 6.06V19.4z"/><path fill="url(#IconifyId199691df1f81eb73818178)" d="M13.686 19.74c-.85.83-1.99 1.3-3.18 1.3h-1.53v2.9c0 3.31 1.71 6 5 6.06V19.4z"/><path fill="url(#IconifyId199691df1f81eb73818179)" d="M7.274 10.016a.539.539 0 1 0 0-1.078a.539.539 0 0 0 0 1.078"/><path fill="url(#IconifyId199691df1f81eb73818180)" d="M7.274 10.016a.539.539 0 1 0 0-1.078a.539.539 0 0 0 0 1.078"/><path fill="url(#IconifyId199691df1f81eb73818181)" d="M21.696 19c-4.27 0-7.72 3.45-7.72 7.72V28h-5c-.94 0-1.72.64-1.94 1.51c-.06.25.13.49.38.49h14.51a3.05 3.05 0 0 0 3.05-3.05V19z"/><path fill="url(#IconifyId199691df1f81eb73818206)" d="M21.696 19c-4.27 0-7.72 3.45-7.72 7.72V28h-5c-.94 0-1.72.64-1.94 1.51c-.06.25.13.49.38.49h14.51a3.05 3.05 0 0 0 3.05-3.05V19z"/><path fill="url(#IconifyId199691df1f81eb73818182)" d="M21.696 19c-4.27 0-7.72 3.45-7.72 7.72V28h-5c-.94 0-1.72.64-1.94 1.51c-.06.25.13.49.38.49h14.51a3.05 3.05 0 0 0 3.05-3.05V19z"/><path fill="url(#IconifyId199691df1f81eb73818181)" d="M21.696 19c-4.27 0-7.72 3.45-7.72 7.72V28h-5c-.94 0-1.72.64-1.94 1.51c-.06.25.13.49.38.49h14.51a3.05 3.05 0 0 0 3.05-3.05V19z"/><path fill="url(#IconifyId199691df1f81eb73818183)" d="M21.696 19c-4.27 0-7.72 3.45-7.72 7.72V28h-5c-.94 0-1.72.64-1.94 1.51c-.06.25.13.49.38.49h14.51a3.05 3.05 0 0 0 3.05-3.05V19z"/><path fill="url(#IconifyId199691df1f81eb73818184)" d="M21.696 19c-4.27 0-7.72 3.45-7.72 7.72V28h-5c-.94 0-1.72.64-1.94 1.51c-.06.25.13.49.38.49h14.51a3.05 3.05 0 0 0 3.05-3.05V19z"/><path fill="url(#IconifyId199691df1f81eb73818185)" d="M21.696 19c-4.27 0-7.72 3.45-7.72 7.72V28h-5c-.94 0-1.72.64-1.94 1.51c-.06.25.13.49.38.49h14.51a3.05 3.05 0 0 0 3.05-3.05V19z"/><path fill="url(#IconifyId199691df1f81eb73818186)" d="M21.696 19c-4.27 0-7.72 3.45-7.72 7.72V28h-5c-.94 0-1.72.64-1.94 1.51c-.06.25.13.49.38.49h14.51a3.05 3.05 0 0 0 3.05-3.05V19z"/><path fill="url(#IconifyId199691df1f81eb73818207)" d="M21.696 19c-4.27 0-7.72 3.45-7.72 7.72V28h-5c-.94 0-1.72.64-1.94 1.51c-.06.25.13.49.38.49h14.51a3.05 3.05 0 0 0 3.05-3.05V19z"/><path fill="url(#IconifyId199691df1f81eb73818206)" d="M21.696 19c-4.27 0-7.72 3.45-7.72 7.72V28h-5c-.94 0-1.72.64-1.94 1.51c-.06.25.13.49.38.49h14.51a3.05 3.05 0 0 0 3.05-3.05V19z"/><g filter="url(#IconifyId199691df1f81eb73818219)"><path fill="#BD948F" d="M4.24 18.993v-1.237h.789v1.368a1 1 0 0 0 .048.306l.352 1.094l-.388-.204a1.5 1.5 0 0 1-.802-1.328"/></g><path fill="url(#IconifyId199691df1f81eb73818208)" d="M7.576 16.49h-3.48c-.41 0-.75.34-.75.75s.34.75.75.75h3.48a.749.749 0 1 0 0-1.5"/><path fill="url(#IconifyId199691df1f81eb73818187)" d="M7.576 16.49h-3.48c-.41 0-.75.34-.75.75s.34.75.75.75h3.48a.749.749 0 1 0 0-1.5"/><path fill="url(#IconifyId199691df1f81eb73818188)" d="M7.576 16.49h-3.48c-.41 0-.75.34-.75.75s.34.75.75.75h3.48a.749.749 0 1 0 0-1.5"/><path fill="url(#IconifyId199691df1f81eb73818189)" d="M21.976 19.45v5.8c0 .41.34.75.75.75s.75-.34.75-.75v-5.8c0-2.96-1.86-5.5-4.48-6.5a.76.76 0 0 0-1.02.71c0 .31.19.59.48.7c2.06.78 3.52 2.77 3.52 5.09"/><path fill="#F2A85C" d="m9.626 17.74l4.35-4.396l1.578 2.11l.953 1.796l-2.821 2.49c-.85.83-1.99 1.3-3.18 1.3h-1.53l-1.5-.04c-.82 0-1.48-.65-1.5-1.47c-.02-.84.69-1.53 1.54-1.53h1.46c.24-.02.47-.09.65-.26"/><path fill="url(#IconifyId199691df1f81eb73818209)" d="m9.626 17.74l4.35-4.396l1.578 2.11l.953 1.796l-2.821 2.49c-.85.83-1.99 1.3-3.18 1.3h-1.53l-1.5-.04c-.82 0-1.48-.65-1.5-1.47c-.02-.84.69-1.53 1.54-1.53h1.46c.24-.02.47-.09.65-.26"/><path fill="url(#IconifyId199691df1f81eb73818210)" d="m9.626 17.74l4.35-4.396l1.578 2.11l.953 1.796l-2.821 2.49c-.85.83-1.99 1.3-3.18 1.3h-1.53l-1.5-.04c-.82 0-1.48-.65-1.5-1.47c-.02-.84.69-1.53 1.54-1.53h1.46c.24-.02.47-.09.65-.26"/><path fill="url(#IconifyId199691df1f81eb73818211)" d="m9.626 17.74l4.35-4.396l1.578 2.11l.953 1.796l-2.821 2.49c-.85.83-1.99 1.3-3.18 1.3h-1.53l-1.5-.04c-.82 0-1.48-.65-1.5-1.47c-.02-.84.69-1.53 1.54-1.53h1.46c.24-.02.47-.09.65-.26"/><path fill="url(#IconifyId199691df1f81eb73818190)" d="m9.626 17.74l4.35-4.396l1.578 2.11l.953 1.796l-2.821 2.49c-.85.83-1.99 1.3-3.18 1.3h-1.53l-1.5-.04c-.82 0-1.48-.65-1.5-1.47c-.02-.84.69-1.53 1.54-1.53h1.46c.24-.02.47-.09.65-.26"/><path fill="url(#IconifyId199691df1f81eb73818191)" d="m9.626 17.74l4.35-4.396l1.578 2.11l.953 1.796l-2.821 2.49c-.85.83-1.99 1.3-3.18 1.3h-1.53l-1.5-.04c-.82 0-1.48-.65-1.5-1.47c-.02-.84.69-1.53 1.54-1.53h1.46c.24-.02.47-.09.65-.26"/><path fill="url(#IconifyId199691df1f81eb73818192)" d="m9.626 17.74l4.35-4.396l1.578 2.11l.953 1.796l-2.821 2.49c-.85.83-1.99 1.3-3.18 1.3h-1.53l-1.5-.04c-.82 0-1.48-.65-1.5-1.47c-.02-.84.69-1.53 1.54-1.53h1.46c.24-.02.47-.09.65-.26"/><g filter="url(#IconifyId199691df1f81eb73818220)"><path fill="url(#IconifyId199691df1f81eb73818212)" d="m15.304 17.844l-1.589 1.342a1.875 1.875 0 0 1-2.552-.123l2.906-2.532z"/></g><g filter="url(#IconifyId199691df1f81eb73818221)"><path fill="url(#IconifyId199691df1f81eb73818213)" d="m14.467 11.011l-2.088-4.527a.5.5 0 0 0-.678-.238L9.38 7.408a.5.5 0 0 0-.23.658l2.134 4.593a.5.5 0 0 0 .691.23l2.276-1.228a.5.5 0 0 0 .216-.65"/></g><g filter="url(#IconifyId199691df1f81eb73818222)"><path fill="url(#IconifyId199691df1f81eb73818214)" d="M12.278 5.688c-.091-.844-.409-1.382-.731-1.698c-.238-.232-.556-.019-.556.313v1.385a.5.5 0 0 0 .5.5h.313c.276 0 .503-.226.474-.5"/></g><g filter="url(#IconifyId199691df1f81eb73818223)"><ellipse cx="28.202" cy="4.963" fill="url(#IconifyId199691df1f81eb73818193)" rx="1.191" ry="1.561" transform="rotate(-38.224 28.202 4.963)"/></g><g filter="url(#IconifyId199691df1f81eb73818224)" opacity=".3"><path stroke="url(#IconifyId199691df1f81eb73818215)" stroke-linecap="round" stroke-width=".5" d="M23.038 4.75c-.927.896-2.194 3.287.156 5.688"/></g><g filter="url(#IconifyId199691df1f81eb73818225)"><path stroke="url(#IconifyId199691df1f81eb73818216)" stroke-linecap="round" stroke-width=".4" d="m25.96 8.453l-1.828.797"/></g><defs><radialGradient id="IconifyId199691df1f81eb73818164" cx="0" cy="0" r="1" gradientTransform="matrix(-4.37499 -1.81254 .67438 -1.62776 29.476 8.625)" gradientUnits="userSpaceOnUse"><stop stop-color="#843977"/><stop offset=".991" stop-color="#843977" stop-opacity="0"/></radialGradient><radialGradient id="IconifyId199691df1f81eb73818165" cx="0" cy="0" r="1" gradientTransform="matrix(5.1875 -.0625 .06678 5.54297 22.288 7.5)" gradientUnits="userSpaceOnUse"><stop stop-color="#9D5F57"/><stop offset="1" stop-color="#9D5F57" stop-opacity="0"/></radialGradient><radialGradient id="IconifyId199691df1f81eb73818166" cx="0" cy="0" r="1" gradientTransform="matrix(2.65624 -2.28126 2.77135 3.22689 24.382 14.063)" gradientUnits="userSpaceOnUse"><stop stop-color="#894144"/><stop offset="1" stop-color="#894144" stop-opacity="0"/></radialGradient><radialGradient id="IconifyId199691df1f81eb73818167" cx="0" cy="0" r="1" gradientTransform="rotate(19.525 -63.307 77.673)scale(4.67509 9.51915)" gradientUnits="userSpaceOnUse"><stop stop-color="#602B2E"/><stop offset=".899" stop-color="#602B2E" stop-opacity="0"/></radialGradient><radialGradient id="IconifyId199691df1f81eb73818168" cx="0" cy="0" r="1" gradientTransform="matrix(-.84586 .28195 -.31015 -.93044 6.388 20.088)" gradientUnits="userSpaceOnUse"><stop stop-color="#8B4267"/><stop offset="1" stop-color="#8B4267" stop-opacity="0"/></radialGradient><radialGradient id="IconifyId199691df1f81eb73818169" cx="0" cy="0" r="1" gradientTransform="matrix(4.0625 -3.34375 3.01184 3.65924 12.226 23.188)" gradientUnits="userSpaceOnUse"><stop stop-color="#F4718B"/><stop offset=".854" stop-color="#F37890" stop-opacity="0"/></radialGradient><radialGradient id="IconifyId199691df1f81eb73818170" cx="0" cy="0" r="1" gradientTransform="matrix(-2.875 -5.1875 4.90914 -2.72073 22.038 18.5)" gradientUnits="userSpaceOnUse"><stop stop-color="#FFC881"/><stop offset="1" stop-color="#FFC881" stop-opacity="0"/></radialGradient><radialGradient id="IconifyId199691df1f81eb73818171" cx="0" cy="0" r="1" gradientTransform="matrix(-1.15624 -2.65625 3.25833 -1.41832 12.148 16.5)" gradientUnits="userSpaceOnUse"><stop stop-color="#D58653"/><stop offset="0" stop-color="#C56F38" stop-opacity=".974"/><stop offset="1" stop-color="#D58653" stop-opacity="0"/></radialGradient><radialGradient id="IconifyId199691df1f81eb73818172" cx="0" cy="0" r="1" gradientTransform="rotate(92.272 -3.06 15.606)scale(3.9406 3.57085)" gradientUnits="userSpaceOnUse"><stop stop-color="#E58463"/><stop offset="0" stop-color="#C56F38" stop-opacity=".974"/><stop offset="1" stop-color="#E58463" stop-opacity="0"/></radialGradient><radialGradient id="IconifyId199691df1f81eb73818173" cx="0" cy="0" r="1" gradientTransform="matrix(-5.28123 -3.31253 3.30204 -5.26451 16.132 25.063)" gradientUnits="userSpaceOnUse"><stop stop-color="#E58463"/><stop offset="0" stop-color="#C56F38" stop-opacity=".974"/><stop offset="1" stop-color="#E58463" stop-opacity="0"/></radialGradient><radialGradient id="IconifyId199691df1f81eb73818174" cx="0" cy="0" r="1" gradientTransform="rotate(-38.839 17.067 -5.375)scale(3.20846 2.73313)" gradientUnits="userSpaceOnUse"><stop stop-color="#F16C42"/><stop offset="1" stop-color="#FFB179" stop-opacity="0"/></radialGradient><radialGradient id="IconifyId199691df1f81eb73818175" cx="0" cy="0" r="1" gradientTransform="rotate(-40.426 27.218 2.252)scale(6.09611 3.09167)" gradientUnits="userSpaceOnUse"><stop stop-color="#F4718B"/><stop offset="1" stop-color="#F37890" stop-opacity="0"/></radialGradient><radialGradient id="IconifyId199691df1f81eb73818176" cx="0" cy="0" r="1" gradientTransform="rotate(125.87 2.379 6.575)scale(2.50663 3.22281)" gradientUnits="userSpaceOnUse"><stop stop-color="#FFDAB6"/><stop offset="1" stop-color="#FFDAB6" stop-opacity="0"/></radialGradient><radialGradient id="IconifyId199691df1f81eb73818177" cx="0" cy="0" r="1" gradientTransform="matrix(-3.125 -.93749 .99471 -3.31576 13.976 28.188)" gradientUnits="userSpaceOnUse"><stop stop-color="#DA9269"/><stop offset="1" stop-color="#DA9269" stop-opacity="0"/></radialGradient><radialGradient id="IconifyId199691df1f81eb73818178" cx="0" cy="0" r="1" gradientTransform="matrix(-2.93748 2.66252 -1.19454 -1.3179 12.788 19.4)" gradientUnits="userSpaceOnUse"><stop stop-color="#DA9269"/><stop offset="1" stop-color="#DA9269" stop-opacity="0"/></radialGradient><radialGradient id="IconifyId199691df1f81eb73818179" cx="0" cy="0" r="1" gradientTransform="matrix(-.438 .60644 -.54067 -.39049 7.434 9.303)" gradientUnits="userSpaceOnUse"><stop offset=".006" stop-color="#433437"/><stop offset="1" stop-color="#3B2838"/></radialGradient><radialGradient id="IconifyId199691df1f81eb73818180" cx="0" cy="0" r="1" gradientTransform="matrix(-.23584 .32007 -.2698 -.1988 7.451 9.362)" gradientUnits="userSpaceOnUse"><stop stop-color="#5C5051"/><stop offset="1" stop-color="#5C5051" stop-opacity="0"/></radialGradient><radialGradient id="IconifyId199691df1f81eb73818181" cx="0" cy="0" r="1" gradientTransform="rotate(123.77 4.764 17.368)scale(12.4808)" gradientUnits="userSpaceOnUse"><stop stop-color="#FFBC7A"/><stop offset="1" stop-color="#DC872A"/><stop offset="1" stop-color="#F79755"/></radialGradient><radialGradient id="IconifyId199691df1f81eb73818182" cx="0" cy="0" r="1" gradientTransform="rotate(98.94 -2.79 17.791)scale(5.6309 3.83133)" gradientUnits="userSpaceOnUse"><stop stop-color="#EA8853"/><stop offset="1" stop-color="#EA8853" stop-opacity="0"/></radialGradient><radialGradient id="IconifyId199691df1f81eb73818183" cx="0" cy="0" r="1" gradientTransform="matrix(0 .65625 -6.46875 0 14.976 28.938)" gradientUnits="userSpaceOnUse"><stop stop-color="#FAA44D"/><stop offset="1" stop-color="#FD9A6A" stop-opacity="0"/></radialGradient><radialGradient id="IconifyId199691df1f81eb73818184" cx="0" cy="0" r="1" gradientTransform="matrix(-.9375 6.1875 -2.27772 -.34511 14.35 23.313)" gradientUnits="userSpaceOnUse"><stop stop-color="#E88750"/><stop offset="1" stop-color="#E88750" stop-opacity="0"/></radialGradient><radialGradient id="IconifyId199691df1f81eb73818185" cx="0" cy="0" r="1" gradientTransform="matrix(-11 -7.12493 8.92994 -13.7867 24.163 30)" gradientUnits="userSpaceOnUse"><stop offset=".78" stop-color="#E9812E" stop-opacity="0"/><stop offset="1" stop-color="#E9812E"/></radialGradient><radialGradient id="IconifyId199691df1f81eb73818186" cx="0" cy="0" r="1" gradientTransform="rotate(100.46 3.514 19.587)scale(8.2623 3.78689)" gradientUnits="userSpaceOnUse"><stop stop-color="#FFC881"/><stop offset="1" stop-color="#FFC881" stop-opacity="0"/></radialGradient><radialGradient id="IconifyId199691df1f81eb73818187" cx="0" cy="0" r="1" gradientTransform="matrix(2.40625 -.73437 .6019 1.97218 3.57 18.219)" gradientUnits="userSpaceOnUse"><stop stop-color="#FFCE9C"/><stop offset=".775" stop-color="#FFCE9C" stop-opacity="0"/></radialGradient><radialGradient id="IconifyId199691df1f81eb73818188" cx="0" cy="0" r="1" gradientTransform="matrix(0 .57813 -1.91938 0 6.632 16.922)" gradientUnits="userSpaceOnUse"><stop stop-color="#F9AE7E"/><stop offset="1" stop-color="#F9AE7E" stop-opacity="0"/></radialGradient><radialGradient id="IconifyId199691df1f81eb73818189" cx="0" cy="0" r="1" gradientTransform="rotate(153.759 9.574 12.017)scale(4.94738 12.4391)" gradientUnits="userSpaceOnUse"><stop stop-color="#C37E70"/><stop offset="1" stop-color="#9C5F60"/></radialGradient><radialGradient id="IconifyId199691df1f81eb73818190" cx="0" cy="0" r="1" gradientTransform="matrix(5.96875 0 0 1.18584 7.57 19.578)" gradientUnits="userSpaceOnUse"><stop stop-color="#F3A26C"/><stop offset="1" stop-color="#F3A26C" stop-opacity="0"/></radialGradient><radialGradient id="IconifyId199691df1f81eb73818191" cx="0" cy="0" r="1" gradientTransform="matrix(1.09375 1.15625 -2.49436 2.35953 10.788 15.781)" gradientUnits="userSpaceOnUse"><stop stop-color="#D58653"/><stop offset="1" stop-color="#D58653" stop-opacity="0"/></radialGradient><radialGradient id="IconifyId199691df1f81eb73818192" cx="0" cy="0" r="1" gradientTransform="matrix(-.71875 -.875 2.79292 -2.29421 14.1 19.875)" gradientUnits="userSpaceOnUse"><stop stop-color="#E98B57"/><stop offset="1" stop-color="#E98B57" stop-opacity="0"/></radialGradient><radialGradient id="IconifyId199691df1f81eb73818193" cx="0" cy="0" r="1" gradientTransform="matrix(-.83066 2.4724 -1.88722 -.63406 28.7 4.332)" gradientUnits="userSpaceOnUse"><stop stop-color="#C89185"/><stop offset="1" stop-color="#C89185" stop-opacity="0"/></radialGradient><linearGradient id="IconifyId199691df1f81eb73818194" x1="25.476" x2="25.476" y1="29.375" y2="3" gradientUnits="userSpaceOnUse"><stop stop-color="#732D22"/><stop offset="1" stop-color="#B67574"/></linearGradient><linearGradient id="IconifyId199691df1f81eb73818195" x1="30.913" x2="28.538" y1="18.688" y2="18.688" gradientUnits="userSpaceOnUse"><stop stop-color="#8B6D68"/><stop offset="1" stop-color="#8B6D68" stop-opacity="0"/></linearGradient><linearGradient id="IconifyId199691df1f81eb73818196" x1="25.944" x2="25.944" y1="30.219" y2="25.969" gradientUnits="userSpaceOnUse"><stop stop-color="#843977"/><stop offset=".991" stop-color="#843977" stop-opacity="0"/></linearGradient><linearGradient id="IconifyId199691df1f81eb73818197" x1="26.444" x2="26.444" y1="9.031" y2="27.5" gradientUnits="userSpaceOnUse"><stop stop-color="#C89492"/><stop offset="1" stop-color="#AA7472"/></linearGradient><linearGradient id="IconifyId199691df1f81eb73818198" x1="5.836" x2="6.619" y1="17.743" y2="20.127" gradientUnits="userSpaceOnUse"><stop stop-color="#9C5D65"/><stop offset="1" stop-color="#814376"/></linearGradient><linearGradient id="IconifyId199691df1f81eb73818199" x1="12.083" x2=".959" y1="3" y2="20.273" gradientUnits="userSpaceOnUse"><stop stop-color="#FFBC7A"/><stop offset="1" stop-color="#DC872A"/><stop offset="1" stop-color="#F79755"/></linearGradient><linearGradient id="IconifyId199691df1f81eb73818200" x1="3.594" x2="5.235" y1="6.875" y2="8.105" gradientUnits="userSpaceOnUse"><stop stop-color="#FFD490"/><stop offset="1" stop-color="#FFD490" stop-opacity="0"/></linearGradient><linearGradient id="IconifyId199691df1f81eb73818201" x1="5.913" x2="6.029" y1="8.938" y2="15.082" gradientUnits="userSpaceOnUse"><stop stop-color="#FFD0A7"/><stop offset="1" stop-color="#EBB28F"/></linearGradient><linearGradient id="IconifyId199691df1f81eb73818202" x1="1.808" x2="3.24" y1="11.961" y2="11.961" gradientUnits="userSpaceOnUse"><stop offset=".006" stop-color="#432F41"/><stop offset="1" stop-color="#342230"/></linearGradient><linearGradient id="IconifyId199691df1f81eb73818203" x1="11.257" x2="10.585" y1="15.938" y2="14.688" gradientUnits="userSpaceOnUse"><stop stop-color="#DAA37B"/><stop offset="1" stop-color="#EBB28F"/></linearGradient><linearGradient id="IconifyId199691df1f81eb73818204" x1="13.976" x2="8.976" y1="23.669" y2="23.669" gradientUnits="userSpaceOnUse"><stop stop-color="#E19D85"/><stop offset="1" stop-color="#E8B997"/></linearGradient><linearGradient id="IconifyId199691df1f81eb73818205" x1="11.163" x2="11.163" y1="28.938" y2="25.875" gradientUnits="userSpaceOnUse"><stop stop-color="#E19D85"/><stop offset="1" stop-color="#E19D85" stop-opacity="0"/></linearGradient><linearGradient id="IconifyId199691df1f81eb73818206" x1="16" x2="16" y1="30.625" y2="27.813" gradientUnits="userSpaceOnUse"><stop stop-color="#F4718B"/><stop offset=".77" stop-color="#F37890" stop-opacity="0"/></linearGradient><linearGradient id="IconifyId199691df1f81eb73818207" x1="25.257" x2="24.476" y1="25" y2="25" gradientUnits="userSpaceOnUse"><stop stop-color="#EE9F58"/><stop offset="1" stop-color="#EE9F58" stop-opacity="0"/></linearGradient><linearGradient id="IconifyId199691df1f81eb73818208" x1="7.288" x2="4.507" y1="18.438" y2="16.49" gradientUnits="userSpaceOnUse"><stop stop-color="#E68A48"/><stop offset="1" stop-color="#FAAF70"/></linearGradient><linearGradient id="IconifyId199691df1f81eb73818209" x1="15.632" x2="13.413" y1="17.192" y2="17.969" gradientUnits="userSpaceOnUse"><stop stop-color="#F0A456"/><stop offset="1" stop-color="#F1A75A" stop-opacity="0"/></linearGradient><linearGradient id="IconifyId199691df1f81eb73818210" x1="9.975" x2="9.975" y1="21.719" y2="19.281" gradientUnits="userSpaceOnUse"><stop stop-color="#F4718B"/><stop offset=".713" stop-color="#F37890" stop-opacity="0"/></linearGradient><linearGradient id="IconifyId199691df1f81eb73818211" x1="5.975" x2="7.288" y1="20.531" y2="20.531" gradientUnits="userSpaceOnUse"><stop stop-color="#FBA97E"/><stop offset="1" stop-color="#EB9D74" stop-opacity="0"/></linearGradient><linearGradient id="IconifyId199691df1f81eb73818212" x1="14.694" x2="13.007" y1="19.281" y2="17.625" gradientUnits="userSpaceOnUse"><stop stop-color="#F5A57F"/><stop offset="1" stop-color="#F5A57F" stop-opacity="0"/></linearGradient><linearGradient id="IconifyId199691df1f81eb73818213" x1="13.476" x2="10.351" y1="9.281" y2="10.969" gradientUnits="userSpaceOnUse"><stop stop-color="#FFD490"/><stop offset="1" stop-color="#FFD490" stop-opacity="0"/></linearGradient><linearGradient id="IconifyId199691df1f81eb73818214" x1="12.031" x2="11.204" y1="4.808" y2="5.095" gradientUnits="userSpaceOnUse"><stop stop-color="#FFD490"/><stop offset="1" stop-color="#FFD490" stop-opacity="0"/></linearGradient><linearGradient id="IconifyId199691df1f81eb73818215" x1="22.524" x2="22.524" y1="4.75" y2="10.438" gradientUnits="userSpaceOnUse"><stop stop-color="#C89492"/><stop offset="1" stop-color="#AA7472"/></linearGradient><linearGradient id="IconifyId199691df1f81eb73818216" x1="24.929" x2="24.929" y1="8.594" y2="9.25" gradientUnits="userSpaceOnUse"><stop stop-color="#C89492"/><stop offset="1" stop-color="#AA7472"/></linearGradient><filter id="IconifyId199691df1f81eb73818217" width="9.2" height="27.4" x="20.976" y="3" color-interpolation-filters="sRGB" filterUnits="userSpaceOnUse"><feFlood flood-opacity="0" result="BackgroundImageFix"/><feBlend in="SourceGraphic" in2="BackgroundImageFix" result="shape"/><feColorMatrix in="SourceAlpha" result="hardAlpha" values="0 0 0 0 0 0 0 0 0 0 0 0 0 0 0 0 0 0 127 0"/><feOffset dx=".2" dy=".4"/><feGaussianBlur stdDeviation=".5"/><feComposite in2="hardAlpha" k2="-1" k3="1" operator="arithmetic"/><feColorMatrix values="0 0 0 0 0.431373 0 0 0 0 0.239216 0 0 0 0 0.231373 0 0 0 1 0"/><feBlend in2="shape" result="effect1_innerShadow_28327_3925"/></filter><filter id="IconifyId199691df1f81eb73818218" width="7.938" height="22.219" x="22.476" y="7.156" color-interpolation-filters="sRGB" filterUnits="userSpaceOnUse"><feFlood flood-opacity="0" result="BackgroundImageFix"/><feBlend in="SourceGraphic" in2="BackgroundImageFix" result="shape"/><feGaussianBlur result="effect1_foregroundBlur_28327_3925" stdDeviation=".75"/></filter><filter id="IconifyId199691df1f81eb73818219" width="3.189" height="4.768" x="3.239" y="16.756" color-interpolation-filters="sRGB" filterUnits="userSpaceOnUse"><feFlood flood-opacity="0" result="BackgroundImageFix"/><feBlend in="SourceGraphic" in2="BackgroundImageFix" result="shape"/><feGaussianBlur result="effect1_foregroundBlur_28327_3925" stdDeviation=".5"/></filter><filter id="IconifyId199691df1f81eb73818220" width="5.141" height="4.097" x="10.663" y="16.031" color-interpolation-filters="sRGB" filterUnits="userSpaceOnUse"><feFlood flood-opacity="0" result="BackgroundImageFix"/><feBlend in="SourceGraphic" in2="BackgroundImageFix" result="shape"/><feGaussianBlur result="effect1_foregroundBlur_28327_3925" stdDeviation=".25"/></filter><filter id="IconifyId199691df1f81eb73818221" width="9.41" height="10.755" x="7.102" y="4.193" color-interpolation-filters="sRGB" filterUnits="userSpaceOnUse"><feFlood flood-opacity="0" result="BackgroundImageFix"/><feBlend in="SourceGraphic" in2="BackgroundImageFix" result="shape"/><feGaussianBlur result="effect1_foregroundBlur_28327_3925" stdDeviation="1"/></filter><filter id="IconifyId199691df1f81eb73818222" width="3.289" height="4.295" x="9.991" y="2.893" color-interpolation-filters="sRGB" filterUnits="userSpaceOnUse"><feFlood flood-opacity="0" result="BackgroundImageFix"/><feBlend in="SourceGraphic" in2="BackgroundImageFix" result="shape"/><feGaussianBlur result="effect1_foregroundBlur_28327_3925" stdDeviation=".5"/></filter><filter id="IconifyId199691df1f81eb73818223" width="4.689" height="4.861" x="25.858" y="2.532" color-interpolation-filters="sRGB" filterUnits="userSpaceOnUse"><feFlood flood-opacity="0" result="BackgroundImageFix"/><feBlend in="SourceGraphic" in2="BackgroundImageFix" result="shape"/><feGaussianBlur result="effect1_foregroundBlur_28327_3925" stdDeviation=".5"/></filter><filter id="IconifyId199691df1f81eb73818224" width="3.34" height="7.688" x="20.854" y="3.75" color-interpolation-filters="sRGB" filterUnits="userSpaceOnUse"><feFlood flood-opacity="0" result="BackgroundImageFix"/><feBlend in="SourceGraphic" in2="BackgroundImageFix" result="shape"/><feGaussianBlur result="effect1_foregroundBlur_28327_3925" stdDeviation=".375"/></filter><filter id="IconifyId199691df1f81eb73818225" width="3.828" height="2.797" x="23.132" y="7.453" color-interpolation-filters="sRGB" filterUnits="userSpaceOnUse"><feFlood flood-opacity="0" result="BackgroundImageFix"/><feBlend in="SourceGraphic" in2="BackgroundImageFix" result="shape"/><feGaussianBlur result="effect1_foregroundBlur_28327_3925" stdDeviation=".4"/></filter></defs></g></svg>