<svg viewBox="0 0 96 96" xmlns="http://www.w3.org/2000/svg" xmlns:xlink="http://www.w3.org/1999/xlink" id="Icons_Clipboard" overflow="hidden"><path d="M73 82 23 82 23 20 34 20 34 26 62 26 62 20 73 20 73 82ZM48 12C49.7 12 51 13.3 51 15 51 16.7 49.7 18 48 18 46.3 18 45 16.7 45 15 45 14.2 45.3 13.4 45.9 12.9 46.4 12.3 47.2 12 48 12ZM75 14 58 14 58 12C58 9.8 56.2 8 54 8L42 8C39.8 8 38 9.8 38 12L38 14 21 14C18.8 14 17 15.8 17 18L17 84C17 86.2 18.8 88 21 88L75 88C77.2 88 79 86.2 79 84L79 18C79 15.8 77.2 14 75 14Z"/></svg>