<svg width="20" height="20" viewBox="0 0 20 20" fill="none" xmlns="http://www.w3.org/2000/svg">
<path d="M7.08535 3C7.29127 2.4174 7.84689 2 8.5 2H11.5C12.1531 2 12.7087 2.4174 12.9146 3H14.5C15.3284 3 16 3.67157 16 4.5V10.337L15.3698 8.89819C15.2826 8.69904 15.1554 8.52562 15 8.38568V4.5C15 4.22386 14.7761 4 14.5 4H12.9146C12.7087 4.5826 12.1531 5 11.5 5H8.5C7.84689 5 7.29127 4.5826 7.08535 4H5.5C5.22386 4 5 4.22386 5 4.5V16.5C5 16.7761 5.22386 17 5.5 17H9.08561C8.9672 17.3338 8.97447 17.6857 9.08567 18H5.5C4.67157 18 4 17.3284 4 16.5V4.5C4 3.67157 4.67157 3 5.5 3H7.08535ZM8.5 3C8.22386 3 8 3.22386 8 3.5C8 3.77614 8.22386 4 8.5 4H11.5C11.7761 4 12 3.77614 12 3.5C12 3.22386 11.7761 3 11.5 3H8.5ZM14.4538 9.2994C14.3741 9.11744 14.1942 8.99992 13.9956 9C13.797 9.00008 13.6172 9.11776 13.5376 9.29979L10.0417 17.2998C9.93114 17.5528 10.0466 17.8476 10.2997 17.9582C10.5527 18.0687 10.8475 17.9533 10.958 17.7002L12.138 15H15.859L17.0419 17.7006C17.1527 17.9535 17.4475 18.0688 17.7005 17.958C17.9534 17.8472 18.0687 17.5523 17.9579 17.2994L14.4538 9.2994ZM15.421 14H12.575L13.9963 10.7474L15.421 14Z" fill="#212121"/>
</svg>
