<svg width="20" height="20" viewBox="0 0 20 20" fill="none" xmlns="http://www.w3.org/2000/svg">
<path d="M7.08535 3C7.29127 2.4174 7.84689 2 8.5 2H11.5C12.1531 2 12.7087 2.4174 12.9146 3H14.5C15.3284 3 16 3.67157 16 4.5V9H15V4.5C15 4.22386 14.7761 4 14.5 4H12.9146C12.7087 4.5826 12.1531 5 11.5 5H8.5C7.84689 5 7.29127 4.5826 7.08535 4H5.5C5.22386 4 5 4.22386 5 4.5V16.5C5 16.7761 5.22386 17 5.5 17H9.03544C9.08595 17.3531 9.18915 17.6891 9.33682 18H5.5C4.67157 18 4 17.3284 4 16.5V4.5C4 3.67157 4.67157 3 5.5 3H7.08535ZM8.5 3C8.22386 3 8 3.22386 8 3.5C8 3.77614 8.22386 4 8.5 4H11.5C11.7761 4 12 3.77614 12 3.5C12 3.22386 11.7761 3 11.5 3H8.5ZM10 12.5C10 11.1193 11.1193 10 12.5 10H16.5C17.8807 10 19 11.1193 19 12.5V16.5C19 17.0095 18.8476 17.4835 18.5858 17.8787L15.5607 14.8536C14.9749 14.2678 14.0251 14.2678 13.4393 14.8536L10.4142 17.8787C10.1524 17.4835 10 17.0095 10 16.5V12.5ZM17 12.75C17 12.3358 16.6642 12 16.25 12C15.8358 12 15.5 12.3358 15.5 12.75C15.5 13.1642 15.8358 13.5 16.25 13.5C16.6642 13.5 17 13.1642 17 12.75ZM11.1213 18.5858C11.5165 18.8476 11.9905 19 12.5 19H16.5C17.0095 19 17.4835 18.8476 17.8787 18.5858L14.8536 15.5607C14.6583 15.3654 14.3417 15.3654 14.1464 15.5607L11.1213 18.5858Z" fill="#212121"/>
</svg>
