<svg width="20" height="20" viewBox="0 0 20 20" fill="none" xmlns="http://www.w3.org/2000/svg">
<path d="M8.49751 7.4966C9.04842 7.4966 9.49502 7.05 9.49502 6.4991C9.49502 5.94819 9.04842 5.50159 8.49751 5.50159C7.9466 5.50159 7.5 5.94819 7.5 6.4991C7.5 7.05 7.9466 7.4966 8.49751 7.4966ZM5 6C5 4.34315 6.34315 3 8 3H14C15.6569 3 17 4.34315 17 6V12C17 13.6569 15.6569 15 14 15H8C6.34315 15 5 13.6569 5 12V6ZM8 4C6.89543 4 6 4.89543 6 6V12C6 12.3709 6.10097 12.7182 6.27692 13.016L9.79085 9.50207C10.4586 8.83427 11.5414 8.83427 12.2092 9.50207L15.7231 13.016C15.899 12.7182 16 12.3709 16 12V6C16 4.89543 15.1046 4 14 4H8ZM15.016 13.7231L11.502 10.2092C11.2248 9.9319 10.7752 9.9319 10.498 10.2092L6.98403 13.7231C7.28178 13.899 7.6291 14 8 14H14C14.3709 14 14.7182 13.899 15.016 13.7231ZM12 17C12.8885 17 13.6868 16.6138 14.2361 16H7.5C5.68782 16 4.1973 14.6228 4.01807 12.8579C4.00612 12.7402 4 12.6208 4 12.5V5.76392C3.38625 6.31324 3 7.11152 3 8.00002V12.5C3 14.9853 5.01472 17 7.5 17H12Z" fill="#212121"/>
</svg>
